<svg width="49" height="48" viewBox="0 0 49 48" fill="none" xmlns="http://www.w3.org/2000/svg">
<mask id="mask0_1019_4790" style="mask-type:alpha" maskUnits="userSpaceOnUse" x="0" y="0" width="49" height="48">
<rect x="0.333496" width="48" height="48" fill="#D9D9D9"/>
</mask>
<g mask="url(#mask0_1019_4790)">
<path d="M16.8335 24L20.3335 20.5C20.6335 20.2 20.7835 19.8333 20.7835 19.4C20.7835 18.9667 20.6335 18.6 20.3335 18.3C20.0335 18 19.6668 17.85 19.2335 17.85C18.8002 17.85 18.4335 18 18.1335 18.3L13.4835 22.95C13.3168 23.1167 13.2002 23.2833 13.1335 23.45C13.0668 23.6167 13.0335 23.8 13.0335 24C13.0335 24.2 13.0668 24.3833 13.1335 24.55C13.2002 24.7167 13.3168 24.8833 13.4835 25.05L18.1835 29.75C18.4835 30.05 18.8502 30.2 19.2835 30.2C19.7168 30.2 20.0835 30.05 20.3835 29.75C20.6835 29.45 20.8335 29.0833 20.8335 28.65C20.8335 28.2167 20.6835 27.85 20.3835 27.55L16.8335 24ZM31.8335 24L28.2835 27.55C27.9835 27.85 27.8335 28.2167 27.8335 28.65C27.8335 29.0833 27.9835 29.45 28.2835 29.75C28.5835 30.05 28.9502 30.2 29.3835 30.2C29.8168 30.2 30.1835 30.05 30.4835 29.75L35.1835 25.05C35.3502 24.8833 35.4668 24.7167 35.5335 24.55C35.6002 24.3833 35.6335 24.2 35.6335 24C35.6335 23.8 35.6002 23.6167 35.5335 23.45C35.4668 23.2833 35.3502 23.1167 35.1835 22.95L30.4835 18.25C30.3502 18.0833 30.1835 17.9667 29.9835 17.9C29.7835 17.8333 29.5835 17.8 29.3835 17.8C29.1835 17.8 28.9918 17.8333 28.8085 17.9C28.6252 17.9667 28.4502 18.0833 28.2835 18.25C27.9835 18.55 27.8335 18.9167 27.8335 19.35C27.8335 19.7833 27.9835 20.15 28.2835 20.45L31.8335 24ZM9.3335 42C8.5335 42 7.8335 41.7 7.2335 41.1C6.6335 40.5 6.3335 39.8 6.3335 39V9C6.3335 8.2 6.6335 7.5 7.2335 6.9C7.8335 6.3 8.5335 6 9.3335 6H39.3335C40.1335 6 40.8335 6.3 41.4335 6.9C42.0335 7.5 42.3335 8.2 42.3335 9V39C42.3335 39.8 42.0335 40.5 41.4335 41.1C40.8335 41.7 40.1335 42 39.3335 42H9.3335Z" fill="white"/>
</g>
</svg>
