<svg width="48" height="48" viewBox="0 0 48 48" fill="none" xmlns="http://www.w3.org/2000/svg">
<mask id="mask0_1019_4782" style="mask-type:alpha" maskUnits="userSpaceOnUse" x="0" y="0" width="48" height="48">
<rect width="48" height="48" fill="#D9D9D9"/>
</mask>
<g mask="url(#mask0_1019_4782)">
<path d="M24.55 30.55C26.75 30.55 28.6167 29.85 30.15 28.45C31.6833 27.05 32.45 25.35 32.45 23.35C32.45 21.6167 31.8917 20.1333 30.775 18.9C29.6583 17.6667 28.3 17.05 26.7 17.05C25.3 17.05 24.1 17.5083 23.1 18.425C22.1 19.3417 21.6 20.45 21.6 21.75C21.6 22.3167 21.7 22.8833 21.9 23.45C22.1 24.0167 22.4333 24.5 22.9 24.9C23.2667 25.2667 23.6583 25.4167 24.075 25.35C24.4917 25.2833 24.8333 25.1167 25.1 24.85C25.3667 24.5833 25.5167 24.2583 25.55 23.875C25.5833 23.4917 25.4333 23.1333 25.1 22.8C24.9333 22.6333 24.8083 22.475 24.725 22.325C24.6417 22.175 24.6 22 24.6 21.8C24.6 21.3333 24.7833 20.9333 25.15 20.6C25.5167 20.2667 26.0333 20.1 26.7 20.1C27.4667 20.1 28.125 20.4083 28.675 21.025C29.225 21.6417 29.5 22.4333 29.5 23.4C29.5 24.5667 29.0333 25.5583 28.1 26.375C27.1667 27.1917 26 27.6 24.6 27.6C22.9 27.6 21.4583 26.925 20.275 25.575C19.0917 24.225 18.5 22.55 18.5 20.55C18.5 19.7833 18.6083 19.0333 18.825 18.3C19.0417 17.5667 19.3667 16.8833 19.8 16.25C20.0333 15.8833 20.1417 15.5 20.125 15.1C20.1083 14.7 19.95 14.35 19.65 14.05C19.35 13.75 19 13.6 18.6 13.6C18.2 13.6 17.8667 13.7667 17.6 14.1C16.9 15 16.3667 16 16 17.1C15.6333 18.2 15.45 19.3333 15.45 20.5C15.45 23.3 16.3333 25.675 18.1 27.625C19.8667 29.575 22.0167 30.55 24.55 30.55ZM13.5 44C13.0667 44 12.7083 43.8583 12.425 43.575C12.1417 43.2917 12 42.9333 12 42.5V35.4C10.1 33.6667 8.625 31.6417 7.575 29.325C6.525 27.0083 6 24.5667 6 22C6 17 7.75 12.75 11.25 9.25C14.75 5.75 19 4 24 4C28.1667 4 31.8583 5.225 35.075 7.675C38.2917 10.125 40.3833 13.3167 41.35 17.25L44.1 28.15C44.2333 28.6167 44.15 29.0417 43.85 29.425C43.55 29.8083 43.15 30 42.65 30H38V37C38 37.8333 37.7083 38.5417 37.125 39.125C36.5417 39.7083 35.8333 40 35 40H30V42.5C30 42.9333 29.8583 43.2917 29.575 43.575C29.2917 43.8583 28.9333 44 28.5 44H13.5Z" fill="white"/>
</g>
</svg>
