<svg width="49" height="48" viewBox="0 0 49 48" fill="none" xmlns="http://www.w3.org/2000/svg">
<mask id="mask0_1019_4798" style="mask-type:alpha" maskUnits="userSpaceOnUse" x="0" y="0" width="49" height="48">
<rect x="0.666504" width="48" height="48" fill="#D9D9D9"/>
</mask>
<g mask="url(#mask0_1019_4798)">
<path d="M23.6165 19.4L19.5665 15.3C19.3998 15.1333 19.2832 14.9667 19.2165 14.8C19.1498 14.6333 19.1165 14.45 19.1165 14.25V5.5C19.1165 5.06667 19.2582 4.70833 19.5415 4.425C19.8248 4.14167 20.1832 4 20.6165 4H28.7665C29.1998 4 29.5582 4.14167 29.8415 4.425C30.1248 4.70833 30.2665 5.06667 30.2665 5.5V14.25C30.2665 14.45 30.2332 14.6333 30.1665 14.8C30.0998 14.9667 29.9832 15.1333 29.8165 15.3L25.7165 19.4C25.5498 19.5667 25.3832 19.675 25.2165 19.725C25.0498 19.775 24.8665 19.8 24.6665 19.8C24.4665 19.8 24.2832 19.775 24.1165 19.725C23.9498 19.675 23.7832 19.5667 23.6165 19.4ZM29.2665 25.05C29.0998 24.8833 28.9915 24.7167 28.9415 24.55C28.8915 24.3833 28.8665 24.2 28.8665 24C28.8665 23.8 28.8915 23.6167 28.9415 23.45C28.9915 23.2833 29.0998 23.1167 29.2665 22.95L33.3665 18.85C33.5332 18.6833 33.6998 18.5667 33.8665 18.5C34.0332 18.4333 34.2165 18.4 34.4165 18.4H43.1665C43.5998 18.4 43.9582 18.5417 44.2415 18.825C44.5248 19.1083 44.6665 19.4667 44.6665 19.9V28.05C44.6665 28.4833 44.5248 28.8417 44.2415 29.125C43.9582 29.4083 43.5998 29.55 43.1665 29.55H34.4165C34.2165 29.55 34.0332 29.5167 33.8665 29.45C33.6998 29.3833 33.5332 29.2667 33.3665 29.1L29.2665 25.05ZM4.6665 28.05V19.9C4.6665 19.4667 4.80817 19.1083 5.0915 18.825C5.37484 18.5417 5.73317 18.4 6.1665 18.4H14.9165C15.1165 18.4 15.2998 18.4333 15.4665 18.5C15.6332 18.5667 15.7998 18.6833 15.9665 18.85L20.0665 22.95C20.2332 23.1167 20.3415 23.2833 20.3915 23.45C20.4415 23.6167 20.4665 23.8 20.4665 24C20.4665 24.2 20.4415 24.3833 20.3915 24.55C20.3415 24.7167 20.2332 24.8833 20.0665 25.05L15.9665 29.1C15.7998 29.2667 15.6332 29.3833 15.4665 29.45C15.2998 29.5167 15.1165 29.55 14.9165 29.55H6.1665C5.73317 29.55 5.37484 29.4083 5.0915 29.125C4.80817 28.8417 4.6665 28.4833 4.6665 28.05ZM19.1165 42.5V33.75C19.1165 33.55 19.1498 33.3667 19.2165 33.2C19.2832 33.0333 19.3998 32.8667 19.5665 32.7L23.6165 28.6C23.7832 28.4333 23.9498 28.325 24.1165 28.275C24.2832 28.225 24.4665 28.2 24.6665 28.2C24.8665 28.2 25.0498 28.225 25.2165 28.275C25.3832 28.325 25.5498 28.4333 25.7165 28.6L29.8165 32.7C29.9832 32.8667 30.0998 33.0333 30.1665 33.2C30.2332 33.3667 30.2665 33.55 30.2665 33.75V42.5C30.2665 42.9333 30.1248 43.2917 29.8415 43.575C29.5582 43.8583 29.1998 44 28.7665 44H20.6165C20.1832 44 19.8248 43.8583 19.5415 43.575C19.2582 43.2917 19.1165 42.9333 19.1165 42.5Z" fill="white"/>
</g>
</svg>
