<svg width="48" height="48" viewBox="0 0 48 48" fill="none" xmlns="http://www.w3.org/2000/svg">
<mask id="mask0_1019_4853" style="mask-type:alpha" maskUnits="userSpaceOnUse" x="0" y="0" width="48" height="48">
<rect width="48" height="48" fill="#D9D9D9"/>
</mask>
<g mask="url(#mask0_1019_4853)">
<path d="M22.5 42.5V27.7C21.7667 27.4 21.1667 26.9167 20.7 26.25C20.2333 25.5833 20 24.8333 20 24C20 22.9 20.3917 21.9583 21.175 21.175C21.9583 20.3917 22.9 20 24 20C25.1 20 26.0417 20.3917 26.825 21.175C27.6083 21.9583 28 22.9 28 24C28 24.8333 27.7667 25.5833 27.3 26.25C26.8333 26.9167 26.2333 27.4 25.5 27.7V42.5C25.5 42.9333 25.3583 43.2917 25.075 43.575C24.7917 43.8583 24.4333 44 24 44C23.5667 44 23.2083 43.8583 22.925 43.575C22.6417 43.2917 22.5 42.9333 22.5 42.5ZM11.3 37.4C11 37.7 10.625 37.85 10.175 37.85C9.725 37.85 9.36667 37.6833 9.1 37.35C7.5 35.55 6.25 33.525 5.35 31.275C4.45 29.025 4 26.6 4 24C4 21.2333 4.525 18.6333 5.575 16.2C6.625 13.7667 8.05 11.65 9.85 9.85C11.65 8.05 13.7667 6.625 16.2 5.575C18.6333 4.525 21.2333 4 24 4C26.7667 4 29.3667 4.525 31.8 5.575C34.2333 6.625 36.35 8.05 38.15 9.85C39.95 11.65 41.375 13.7667 42.425 16.2C43.475 18.6333 44 21.2333 44 24C44 26.6 43.55 29.025 42.65 31.275C41.75 33.525 40.5 35.55 38.9 37.35C38.6333 37.6833 38.275 37.8583 37.825 37.875C37.375 37.8917 37 37.75 36.7 37.45C36.4 37.15 36.2667 36.7833 36.3 36.35C36.3333 35.9167 36.5 35.5333 36.8 35.2C38.1333 33.7 39.1667 32 39.9 30.1C40.6333 28.2 41 26.1667 41 24C41 19.2667 39.35 15.25 36.05 11.95C32.75 8.65 28.7333 7 24 7C19.2667 7 15.25 8.65 11.95 11.95C8.65 15.25 7 19.2667 7 24C7 26.1667 7.36667 28.2 8.1 30.1C8.83333 32 9.86667 33.7 11.2 35.2C11.5 35.5333 11.6667 35.9083 11.7 36.325C11.7333 36.7417 11.6 37.1 11.3 37.4ZM16.95 31.75C16.65 32.05 16.2833 32.2 15.85 32.2C15.4167 32.2 15.0667 32.0333 14.8 31.7C13.9333 30.6333 13.25 29.4583 12.75 28.175C12.25 26.8917 12 25.5 12 24C12 20.6667 13.1667 17.8333 15.5 15.5C17.8333 13.1667 20.6667 12 24 12C27.3333 12 30.1667 13.1667 32.5 15.5C34.8333 17.8333 36 20.6667 36 24C36 25.5 35.75 26.8917 35.25 28.175C34.75 29.4583 34.0667 30.6333 33.2 31.7C32.9333 32.0333 32.5917 32.2083 32.175 32.225C31.7583 32.2417 31.4 32.1 31.1 31.8C30.8 31.5 30.65 31.1333 30.65 30.7C30.65 30.2667 30.7833 29.8833 31.05 29.55C31.65 28.7833 32.125 27.9333 32.475 27C32.825 26.0667 33 25.0667 33 24C33 21.5 32.125 19.375 30.375 17.625C28.625 15.875 26.5 15 24 15C21.5 15 19.375 15.875 17.625 17.625C15.875 19.375 15 21.5 15 24C15 25.0667 15.175 26.0667 15.525 27C15.875 27.9333 16.35 28.7833 16.95 29.55C17.2167 29.8833 17.3583 30.2583 17.375 30.675C17.3917 31.0917 17.25 31.45 16.95 31.75Z" fill="white"/>
</g>
</svg>
