<svg width="246" height="99" viewBox="0 0 246 99" fill="none" xmlns="http://www.w3.org/2000/svg">
<path d="M35.9296 98.4998V81.3559H0.570312V67.4265L34.8581 18.6735H52.5378V67.4265H64.86V81.3559H52.5378V98.4998H35.9296ZM12.6782 73.4269L9.57086 67.4265H35.9296V31.5315L40.1084 32.8172L12.6782 73.4269Z" fill="#002FDF"/>
<path d="M150.447 58.5867C150.447 80.6301 132.761 98.4998 110.945 98.4998C89.1291 98.4998 71.4436 80.6301 71.4436 58.5867C71.4436 36.5432 89.1291 18.6735 110.945 18.6735C132.761 18.6735 150.447 36.5432 150.447 58.5867Z" fill="url(#paint0_linear_1375_12704)"/>
<path d="M150.498 58.5864C150.498 80.2082 132.238 98.5 110.65 98.5C89.0606 98.5 71.5593 80.9721 71.5593 59.3503C71.5593 37.7285 76.891 63.7821 98.4799 63.7821C120.069 63.7821 150.498 36.9646 150.498 58.5864Z" fill="#002FDF"/>
<path d="M184.997 98.4999C180.643 98.4999 176.499 97.6915 172.567 96.0745C168.634 94.3873 165.298 92.0323 162.56 89.0093C159.821 85.9864 157.995 82.4362 157.082 78.3588L171.513 73.5081C172.707 76.8825 174.463 79.4485 176.78 81.206C179.098 82.8932 181.836 83.7368 184.997 83.7368C187.595 83.7368 189.807 83.2447 191.633 82.2605C193.529 81.2763 195.004 79.9054 196.057 78.1479C197.11 76.3201 197.637 74.2111 197.637 71.8208C197.637 69.4306 197.11 67.3919 196.057 65.7047C195.074 63.9472 193.634 62.6115 191.738 61.6976C189.912 60.7134 187.665 60.2213 184.997 60.2213C183.452 60.2213 181.907 60.397 180.362 60.7485C178.817 61.1 177.412 61.5921 176.148 62.2248L172.356 54.316L192.475 32.3822H161.822V18.6736H210.804V31.3277L190.158 54.8433L190.685 48.1998C195.39 48.1998 199.463 49.1841 202.904 51.1525C206.415 53.0506 209.119 55.722 211.015 59.1667C212.981 62.6115 213.964 66.6186 213.964 71.1881C213.964 76.3904 212.7 81.0654 210.172 85.2131C207.644 89.3608 204.203 92.6298 199.849 95.02C195.495 97.34 190.544 98.4999 184.997 98.4999Z" fill="#002FDF"/>
<path d="M224.176 31.9265C223.375 31.9265 222.689 31.6412 222.119 31.0707C221.548 30.5002 221.263 29.8143 221.263 29.0131V13.8889C221.263 13.0876 221.548 12.4018 222.119 11.8313C222.689 11.2607 223.375 10.9755 224.176 10.9755H226.098V7.75226C226.098 5.73989 226.803 4.02809 228.214 2.61685C229.626 1.20562 231.338 0.5 233.35 0.5C235.362 0.5 237.074 1.20562 238.485 2.61685C239.897 4.02809 240.602 5.73989 240.602 7.75226V10.9755H242.524C243.325 10.9755 244.011 11.2607 244.581 11.8313C245.152 12.4018 245.437 13.0876 245.437 13.8889V29.0131C245.437 29.8143 245.152 30.5002 244.581 31.0707C244.011 31.6412 243.325 31.9265 242.524 31.9265H224.176ZM233.35 24.2713C234.133 24.2713 234.799 23.9971 235.348 23.4486C235.896 22.8998 236.17 22.234 236.17 21.451C236.17 20.668 235.896 20.0021 235.348 19.4534C234.799 18.9049 234.133 18.6307 233.35 18.6307C232.567 18.6307 231.901 18.9049 231.352 19.4534C230.804 20.0021 230.53 20.668 230.53 21.451C230.53 22.234 230.804 22.8998 231.352 23.4486C231.901 23.9971 232.567 24.2713 233.35 24.2713ZM228.515 10.9755H238.185V7.75226C238.185 6.40925 237.715 5.26769 236.775 4.32758C235.834 3.38747 234.693 2.91742 233.35 2.91742C232.007 2.91742 230.865 3.38747 229.925 4.32758C228.985 5.26769 228.515 6.40925 228.515 7.75226V10.9755Z" fill="#002FDF"/>
<defs>
<linearGradient id="paint0_linear_1375_12704" x1="228.742" y1="0.500002" x2="147.869" y2="161.362" gradientUnits="userSpaceOnUse">
<stop stop-color="#002FDF"/>
<stop offset="1" stop-color="#4D62B0"/>
</linearGradient>
</defs>
</svg>
