<svg width="306" height="99" viewBox="0 0 306 99" fill="none" xmlns="http://www.w3.org/2000/svg">
<path d="M41.4541 98.5V78.6283H0.46875V62.4826L40.2121 5.97256H60.7047V62.4826H74.9875V78.6283H60.7047V98.5H41.4541ZM14.5031 69.4377L10.9014 62.4826H41.4541V20.8763L46.2978 22.3667L14.5031 69.4377Z" fill="#002FDF"/>
<path d="M179.88 47.5594C179.88 73.5495 159.028 94.6187 133.306 94.6187C107.584 94.6187 86.7319 73.5495 86.7319 47.5594C86.7319 21.5692 107.584 0.5 133.306 0.5C159.028 0.5 179.88 21.5692 179.88 47.5594Z" fill="url(#paint0_linear_1375_12729)"/>
<path d="M179.941 47.559C179.941 73.052 158.412 94.6189 132.957 94.6189C107.503 94.6189 86.8684 73.9527 86.8684 48.4597C86.8684 22.9666 93.1547 53.685 118.609 53.685C144.063 53.685 179.941 22.066 179.941 47.559Z" fill="#002FDF"/>
<path d="M232.663 98.5V78.6283H191.678V62.4826L231.421 5.97256H251.914V62.4826H266.196V78.6283H251.914V98.5H232.663ZM205.712 69.4377L202.11 62.4826H232.663V20.8763L237.507 22.3667L205.712 69.4377Z" fill="#002FDF"/>
<path d="M288.068 0.5001L291.551 14.4828L305.534 17.9654L291.551 21.4481L288.068 35.4308L284.586 21.4481L270.603 17.9654L284.586 14.4828L288.068 0.5001Z" fill="#002FDF"/>
<defs>
<linearGradient id="paint0_linear_1375_12729" x1="284.734" y1="0.500002" x2="214.801" y2="173.8" gradientUnits="userSpaceOnUse">
<stop stop-color="#002FDF"/>
<stop offset="1" stop-color="#4D62B0"/>
</linearGradient>
</defs>
</svg>
