<svg width="303" height="99" viewBox="0 0 303 99" fill="none" xmlns="http://www.w3.org/2000/svg">
<path d="M34.3422 98.5C29.2502 98.5 24.3308 97.5506 19.584 95.6519C14.8372 93.6669 10.7808 90.9051 7.41488 87.3666C4.04896 83.7417 1.84817 79.4265 0.8125 74.4207L18.5483 68.4656C19.8429 72.6083 21.9142 75.629 24.7623 77.5277C27.6104 79.4265 30.8037 80.3758 34.3422 80.3758C37.3629 80.3758 39.9952 79.7717 42.2392 78.5634C44.4831 77.2688 46.2092 75.4995 47.4175 73.2556C48.7121 70.9254 49.3594 68.2499 49.3594 65.2292C49.3594 62.2085 48.7121 59.5762 47.4175 57.3322C46.2092 55.0883 44.4831 53.3622 42.2392 52.1539C39.9952 50.8593 37.3629 50.212 34.3422 50.212C31.2352 50.212 28.4734 50.9025 26.0569 52.2834C23.6403 53.5779 21.8711 55.6061 20.7491 58.3679L4.30788 54.4841L12.0754 0.5H65.9301V17.3296H20.2313L27.7398 8.2675L22.432 48.3996L16.9948 43.6096C19.1524 40.0711 21.8711 37.4819 25.1507 35.8421C28.5166 34.2023 32.8319 33.3824 38.0965 33.3824C44.5694 33.3824 50.1361 34.7633 54.7966 37.5251C59.4571 40.2006 63.0388 43.9117 65.5417 48.6585C68.1309 53.4053 69.4254 58.9289 69.4254 65.2292C69.4254 71.5295 67.8719 77.2257 64.7649 82.3177C61.7442 87.3234 57.6016 91.2935 52.3369 94.2279C47.0723 97.076 41.0741 98.5 34.3422 98.5Z" fill="#002FDF"/>
<path d="M175.508 49.5C175.508 76.562 153.57 98.5 126.508 98.5C99.446 98.5 77.5079 76.562 77.5079 49.5C77.5079 22.438 99.446 0.5 126.508 0.5C153.57 0.5 175.508 22.438 175.508 49.5Z" fill="#002FDF"/>
<path d="M100.007 41.1169L105.169 35.955L100.007 30.793L103.439 27.3609L108.601 32.5228L113.735 27.3883L117.168 30.8205L112.033 35.955L117.168 41.0894L113.735 44.5216L108.601 39.3871L103.439 44.549L100.007 41.1169Z" fill="white"/>
<path d="M134.857 41.1169L140.019 35.955L134.857 30.793L138.289 27.3609L143.451 32.5228L148.586 27.3883L152.018 30.8205L146.883 35.955L152.018 41.0894L148.586 44.5216L143.451 39.3871L138.289 44.549L134.857 41.1169Z" fill="white"/>
<path d="M137.371 68.4528C137.371 74.5801 132.404 79.5472 126.277 79.5472C120.15 79.5472 115.182 74.5801 115.182 68.4528C115.182 62.3256 120.15 57.3585 126.277 57.3585C132.404 57.3585 137.371 62.3256 137.371 68.4528Z" fill="white"/>
<path d="M281.59 49.5C281.59 76.562 259.652 98.5 232.59 98.5C205.528 98.5 183.59 76.562 183.59 49.5C183.59 22.438 205.528 0.5 232.59 0.5C259.652 0.5 281.59 22.438 281.59 49.5Z" fill="#002FDF"/>
<path d="M206.089 41.1169L211.251 35.955L206.089 30.793L209.521 27.3609L214.683 32.5228L219.818 27.3883L223.25 30.8205L218.116 35.955L223.25 41.0894L219.818 44.5216L214.683 39.3871L209.521 44.549L206.089 41.1169Z" fill="white"/>
<path d="M240.94 41.1169L246.102 35.955L240.94 30.793L244.372 27.3609L249.534 32.5228L254.668 27.3883L258.1 30.8205L252.966 35.955L258.1 41.0894L254.668 44.5216L249.534 39.3871L244.372 44.549L240.94 41.1169Z" fill="white"/>
<path d="M243.454 68.4528C243.454 74.5801 238.486 79.5472 232.359 79.5472C226.232 79.5472 221.265 74.5801 221.265 68.4528C221.265 62.3256 226.232 57.3585 232.359 57.3585C238.486 57.3585 243.454 62.3256 243.454 68.4528Z" fill="white"/>
<path d="M300.719 28.2769C300.305 28.2769 299.957 28.1346 299.678 27.8501C299.398 27.5658 299.258 27.2135 299.258 26.793V12.9434C299.258 12.5229 299.398 12.1704 299.678 11.8859C299.959 11.6016 300.306 11.4595 300.72 11.4595C301.135 11.4595 301.482 11.6016 301.762 11.8859C302.042 12.1704 302.182 12.5229 302.182 12.9434V26.793C302.182 27.2135 302.042 27.5658 301.761 27.8501C301.481 28.1346 301.134 28.2769 300.719 28.2769ZM300.719 37.0279C300.305 37.0279 299.957 36.8856 299.678 36.6011C299.398 36.3165 299.258 35.964 299.258 35.5435C299.258 35.1228 299.398 34.7704 299.678 34.4865C299.959 34.2023 300.306 34.0601 300.72 34.0601C301.135 34.0601 301.482 34.2024 301.762 34.487C302.042 34.7716 302.182 35.1241 302.182 35.5445C302.182 35.9653 302.042 36.3176 301.761 36.6016C301.481 36.8858 301.134 37.0279 300.719 37.0279Z" fill="#002FDF"/>
</svg>
