<svg width="305" height="99" viewBox="0 0 305 99" fill="none" xmlns="http://www.w3.org/2000/svg">
<path d="M33.9312 98.8123C28.8446 98.8123 23.9305 97.8629 19.1888 95.9642C14.4471 93.9792 10.3951 91.2174 7.03278 87.6789C3.67048 84.0541 1.47205 79.7388 0.4375 74.7331L18.1542 68.778C19.4474 72.9207 21.5165 75.9414 24.3616 77.8401C27.2066 79.7388 30.3965 80.6882 33.9312 80.6882C36.9487 80.6882 39.5781 80.084 41.8197 78.8757C44.0612 77.5812 45.7855 75.8119 46.9925 73.568C48.2856 71.2377 48.9322 68.5622 48.9322 65.5416C48.9322 62.5209 48.2856 59.8885 46.9925 57.6446C45.7855 55.4007 44.0612 53.6746 41.8197 52.4663C39.5781 51.1717 36.9487 50.5244 33.9312 50.5244C30.8275 50.5244 28.0687 51.2149 25.6548 52.5957C23.2408 53.8903 21.4734 55.9185 20.3527 58.6803L3.92912 54.7965L11.6883 0.8125H65.4851V17.6421H19.8354L27.3359 8.57999L22.0338 48.712L16.6024 43.9221C18.7577 40.3835 21.4734 37.7944 24.7495 36.1546C28.1118 34.5148 32.4225 33.6949 37.6815 33.6949C44.1474 33.6949 49.7082 35.0757 54.3637 37.8375C59.0191 40.513 62.597 44.2241 65.0972 48.9709C67.6835 53.7177 68.9767 59.2413 68.9767 65.5416C68.9767 71.8419 67.4249 77.538 64.3212 82.63C61.3038 87.6357 57.1656 91.6058 51.9066 94.5402C46.6476 97.3882 40.6558 98.8123 33.9312 98.8123Z" fill="#002FDF"/>
<path d="M174.049 49.8124C174.049 76.8743 152.337 98.8123 125.554 98.8123C98.771 98.8123 77.0592 76.8743 77.0592 49.8124C77.0592 22.7505 98.771 0.8125 125.554 0.8125C152.337 0.8125 174.049 22.7505 174.049 49.8124Z" fill="url(#paint0_linear_1375_12716)"/>
<path d="M174.112 49.812C174.112 76.3563 151.695 98.8125 125.191 98.8125C98.6869 98.8125 77.2013 77.2941 77.2013 50.7498C77.2013 24.2056 83.7468 56.1906 110.251 56.1906C136.755 56.1906 174.112 23.2677 174.112 49.812Z" fill="#002FDF"/>
<path d="M216.464 98.8124C211.119 98.8124 206.032 97.8199 201.204 95.8349C196.376 93.7635 192.281 90.8723 188.919 87.1612C185.557 83.45 183.315 79.0916 182.194 74.0859L199.911 68.1308C201.377 72.2735 203.532 75.4236 206.377 77.5813C209.222 79.6526 212.584 80.6883 216.464 80.6883C219.654 80.6883 222.369 80.0841 224.611 78.8758C226.939 77.6676 228.749 75.9846 230.042 73.827C231.336 71.583 231.982 68.9939 231.982 66.0595C231.982 63.1251 231.336 60.6222 230.042 58.5509C228.835 56.3933 227.068 54.7535 224.74 53.6315C222.499 52.4232 219.74 51.8191 216.464 51.8191C214.567 51.8191 212.671 52.0349 210.774 52.4664C208.877 52.8979 207.153 53.5021 205.601 54.2788L200.946 44.5694L225.646 17.6422H188.014V0.812604H248.147V16.3476L222.801 45.2167L223.447 37.0609C229.223 37.0609 234.224 38.2692 238.448 40.6857C242.759 43.0159 246.078 46.2956 248.406 50.5245C250.82 54.7535 252.027 59.6729 252.027 65.2827C252.027 71.6693 250.475 77.4086 247.371 82.5007C244.268 87.5927 240.043 91.6059 234.698 94.5403C229.353 97.3884 223.275 98.8124 216.464 98.8124Z" fill="#002FDF"/>
<path d="M268.855 41.3772C268.519 41.3772 268.218 41.2953 267.951 41.1314C267.684 40.9675 267.476 40.7513 267.328 40.4829C267.174 40.2165 267.089 39.928 267.074 39.6173C267.058 39.3067 267.142 38.999 267.325 38.6943L284.262 9.43603C284.446 9.13134 284.675 8.90612 284.95 8.76037C285.225 8.61462 285.515 8.54174 285.82 8.54174C286.124 8.54174 286.414 8.61462 286.689 8.76037C286.964 8.90612 287.193 9.13134 287.377 9.43603L304.314 38.6943C304.497 38.999 304.581 39.3067 304.565 39.6173C304.55 39.928 304.465 40.2165 304.311 40.4829C304.163 40.7513 303.955 40.9675 303.688 41.1314C303.421 41.2953 303.12 41.3772 302.784 41.3772H268.855ZM270.882 38.4094H300.757L285.82 12.6887L270.882 38.4094ZM285.82 36.0506C286.272 36.0506 286.652 35.8974 286.958 35.591C287.264 35.2847 287.418 34.9052 287.418 34.4524C287.418 33.9997 287.264 33.6201 286.958 33.3138C286.652 33.0074 286.272 32.8543 285.82 32.8543C285.367 32.8543 284.987 33.0074 284.681 33.3138C284.375 33.6201 284.221 33.9997 284.221 34.4524C284.221 34.9052 284.375 35.2847 284.681 35.591C284.987 35.8974 285.367 36.0506 285.82 36.0506ZM285.82 30.8757C286.241 30.8757 286.593 30.7336 286.877 30.4494C287.161 30.1648 287.303 29.8123 287.303 29.3919V22.467C287.303 22.0466 287.161 21.6943 286.877 21.41C286.592 21.1254 286.239 20.9832 285.819 20.9832C285.398 20.9832 285.046 21.1254 284.762 21.41C284.478 21.6943 284.336 22.0466 284.336 22.467V29.3919C284.336 29.8123 284.478 30.1648 284.763 30.4494C285.047 30.7336 285.4 30.8757 285.82 30.8757Z" fill="#002FDF"/>
<defs>
<linearGradient id="paint0_linear_1375_12716" x1="283.831" y1="0.812502" x2="213.744" y2="173.963" gradientUnits="userSpaceOnUse">
<stop stop-color="#002FDF"/>
<stop offset="1" stop-color="#4D62B0"/>
</linearGradient>
</defs>
</svg>
