<svg width="48" height="48" viewBox="0 0 48 48" fill="none" xmlns="http://www.w3.org/2000/svg">
<mask id="mask0_980_52649" style="mask-type:alpha" maskUnits="userSpaceOnUse" x="0" y="0" width="48" height="48">
<rect width="48" height="48" fill="#D9D9D9"/>
</mask>
<g mask="url(#mask0_980_52649)">
<path d="M35.7425 38.5155C37.1578 38.5155 38.3392 38.0417 39.2865 37.094C40.2338 36.1467 40.7075 34.9653 40.7075 33.55C40.7075 32.1473 40.2338 30.9723 39.2865 30.025C38.3392 29.0777 37.1578 28.604 35.7425 28.604C34.3398 28.604 33.1648 29.0777 32.2175 30.025C31.2698 30.9723 30.796 32.1473 30.796 33.55C30.796 34.9653 31.2698 36.1467 32.2175 37.094C33.1648 38.0417 34.3398 38.5155 35.7425 38.5155ZM35.669 42.323C35.3793 42.323 35.1198 42.2217 34.8905 42.019C34.6608 41.8167 34.5358 41.5705 34.5155 41.2805L34.454 40.3845C33.6103 40.1768 32.875 39.8845 32.248 39.5075C31.621 39.1305 31.0678 38.687 30.5885 38.177L29.8345 38.5575C29.5578 38.6985 29.281 38.7267 29.004 38.642C28.727 38.5577 28.4975 38.3872 28.3155 38.1305L28.173 37.946C27.991 37.669 27.9237 37.3838 27.971 37.0905C28.0187 36.7968 28.1707 36.5487 28.427 36.346L29.081 35.823C28.863 35.1 28.754 34.3507 28.754 33.575C28.754 32.7993 28.863 32.05 29.081 31.327L28.427 30.804C28.1833 30.6013 28.0313 30.348 27.971 30.044C27.911 29.7403 27.972 29.45 28.154 29.173L28.3155 28.969C28.4975 28.705 28.7322 28.5358 29.0195 28.4615C29.3065 28.3872 29.5885 28.4205 29.8655 28.5615L30.5885 28.923C31.0678 28.4333 31.621 28.0032 32.248 27.6325C32.875 27.2622 33.6103 26.9732 34.454 26.7655L34.5155 25.8385C34.5358 25.5488 34.6608 25.2995 34.8905 25.0905C35.1198 24.8815 35.3793 24.777 35.669 24.777H35.8655C36.1422 24.777 36.3883 24.8763 36.604 25.075C36.8193 25.2737 36.941 25.5115 36.969 25.7885L37.0805 26.7655C37.9242 26.9732 38.6595 27.2622 39.2865 27.6325C39.9135 28.0032 40.4667 28.4333 40.946 28.923L41.669 28.5615C41.946 28.4205 42.2282 28.3872 42.5155 28.4615C42.8025 28.5358 43.037 28.705 43.219 28.969L43.3615 29.173C43.5435 29.45 43.6108 29.7403 43.5635 30.044C43.5158 30.348 43.3638 30.6013 43.1075 30.804L42.454 31.327C42.6717 32.05 42.7805 32.7993 42.7805 33.575C42.7805 34.3507 42.6717 35.1 42.454 35.823L43.1075 36.346C43.3512 36.5487 43.5032 36.7935 43.5635 37.0805C43.6235 37.3678 43.5625 37.65 43.3805 37.927L43.219 38.1805C43.037 38.4242 42.8075 38.5832 42.5305 38.6575C42.2538 38.7318 41.977 38.6985 41.7 38.5575L40.946 38.177C40.4667 38.687 39.9135 39.1305 39.2865 39.5075C38.6595 39.8845 37.9242 40.1768 37.0805 40.3845L36.969 41.3115C36.941 41.6012 36.8193 41.8422 36.604 42.0345C36.3883 42.2268 36.1422 42.323 35.8655 42.323H35.669ZM7.8845 39C7.0975 39 6.42 38.7108 5.852 38.1325C5.284 37.5545 5 36.8822 5 36.1155V11.8845C5 11.1178 5.284 10.4455 5.852 9.8675C6.42 9.28917 7.0975 9 7.8845 9H19.1655C19.5525 9 19.9282 9.08017 20.2925 9.2405C20.6565 9.40083 20.9718 9.60783 21.2385 9.8615L23.627 12.2695H40.1155C40.8822 12.2695 41.5545 12.5585 42.1325 13.1365C42.7108 13.7148 43 14.3873 43 15.154V21.0615C43 21.5025 42.818 21.8262 42.454 22.0325C42.0897 22.2392 41.714 22.2385 41.327 22.0305C40.45 21.6205 39.5428 21.3013 38.6055 21.073C37.6685 20.8447 36.7077 20.7305 35.723 20.7305C32.028 20.7305 28.9728 22.0062 26.5575 24.5575C24.1422 27.1088 22.9345 30.096 22.9345 33.519C22.9345 34.1757 22.9833 34.8238 23.081 35.4635C23.1783 36.1032 23.3308 36.7243 23.5385 37.327C23.6665 37.7473 23.612 38.1313 23.375 38.479C23.1377 38.8263 22.8088 39 22.3885 39H7.8845Z" fill="url(#paint0_linear_980_52649)"/>
</g>
<defs>
<linearGradient id="paint0_linear_980_52649" x1="43.5858" y1="7.14872" x2="10.8751" y2="47.1298" gradientUnits="userSpaceOnUse">
<stop stop-color="#F468AF"/>
<stop offset="1" stop-color="#D25F9A"/>
</linearGradient>
</defs>
</svg>
