<svg width="48" height="48" viewBox="0 0 48 48" fill="none" xmlns="http://www.w3.org/2000/svg">
<mask id="mask0_980_52641" style="mask-type:alpha" maskUnits="userSpaceOnUse" x="0" y="0" width="48" height="48">
<rect width="48" height="48" fill="#D9D9D9"/>
</mask>
<g mask="url(#mask0_980_52641)">
<path d="M22.8654 38.8499V30.1114C22.8654 29.7894 22.9748 29.5197 23.1934 29.3024C23.4124 29.0854 23.6843 28.9769 24.0089 28.9769C24.3336 28.9769 24.6025 29.0854 24.8155 29.3024C25.0281 29.5197 25.1345 29.7894 25.1345 30.1114V38.8499L29.0614 34.9229C29.2888 34.6999 29.5636 34.5884 29.8859 34.5884C30.2079 34.5884 30.487 34.7049 30.723 34.9379C30.959 35.1709 31.0769 35.4442 31.0769 35.7579C31.0769 36.0719 30.959 36.3474 30.723 36.5844L25.0065 42.3009C24.8561 42.4516 24.6976 42.5602 24.531 42.6269C24.3646 42.6936 24.1846 42.7269 23.9909 42.7269C23.7969 42.7269 23.6198 42.6936 23.4594 42.6269C23.2991 42.5602 23.1434 42.4512 22.9925 42.2999L17.2769 36.5844C17.054 36.3614 16.9391 36.0877 16.9324 35.7634C16.9261 35.4391 17.0409 35.1621 17.2769 34.9324C17.5129 34.7031 17.7875 34.5884 18.1005 34.5884C18.4138 34.5884 18.6931 34.6999 18.9384 34.9229L22.8654 38.8499ZM9.14995 25.1344L12.8844 28.8884C13.1075 29.1171 13.2223 29.3921 13.2289 29.7134C13.2353 30.0351 13.1188 30.3074 12.8794 30.5304C12.6528 30.7664 12.3791 30.8844 12.0584 30.8844C11.7374 30.8844 11.4654 30.7664 11.2424 30.5304L5.70295 25.0094C5.54962 24.8571 5.43962 24.6976 5.37295 24.5309C5.30628 24.3646 5.27295 24.1846 5.27295 23.9909C5.27295 23.7969 5.30628 23.6197 5.37295 23.4594C5.43962 23.2991 5.54928 23.1427 5.70195 22.9904L11.2729 17.4194C11.5073 17.1961 11.7838 17.0844 12.1024 17.0844C12.4214 17.0844 12.6988 17.1992 12.9344 17.4289C13.1704 17.6582 13.2884 17.9324 13.2884 18.2514C13.2884 18.5701 13.1704 18.8464 12.9344 19.0804L9.14995 22.8654H17.8884C18.2104 22.8654 18.4801 22.9747 18.6975 23.1934C18.9145 23.4124 19.0229 23.6842 19.0229 24.0089C19.0229 24.3336 18.9145 24.6024 18.6975 24.8154C18.4801 25.0281 18.2104 25.1344 17.8884 25.1344H9.14995ZM38.8499 25.1344H30.1424C29.8201 25.1344 29.5504 25.0251 29.3334 24.8064C29.1161 24.5874 29.0075 24.3156 29.0075 23.9909C29.0075 23.6662 29.1161 23.3974 29.3334 23.1844C29.5504 22.9717 29.8201 22.8654 30.1424 22.8654H38.8499L35.1154 19.1114C34.8924 18.8827 34.7776 18.6077 34.7709 18.2864C34.7646 17.9647 34.8811 17.6859 35.1204 17.4499C35.3471 17.2269 35.6198 17.1154 35.9384 17.1154C36.2571 17.1154 36.5366 17.2269 36.7769 17.4499L42.298 22.9894C42.4506 23.1424 42.5634 23.3022 42.6364 23.4689C42.7094 23.6352 42.7459 23.8152 42.7459 24.0089C42.7459 24.2029 42.7094 24.3801 42.6364 24.5404C42.5634 24.7007 42.4503 24.8574 42.2969 25.0104L36.7769 30.5304C36.5539 30.7537 36.2769 30.8686 35.9459 30.8749C35.6153 30.8812 35.3319 30.7664 35.0959 30.5304C34.8729 30.3074 34.7614 30.0369 34.7614 29.7189C34.7614 29.4012 34.8729 29.1181 35.0959 28.8694L38.8499 25.1344ZM22.8654 9.14991L19.1304 12.8844C18.9088 13.1074 18.6323 13.2222 18.3009 13.2289C17.9696 13.2352 17.6925 13.1204 17.4695 12.8844C17.2335 12.6614 17.1154 12.3909 17.1154 12.0729C17.1154 11.7549 17.2335 11.4716 17.4695 11.2229L22.9904 5.70291C23.1428 5.54957 23.3023 5.43641 23.469 5.36341C23.6353 5.29041 23.8153 5.25391 24.0089 5.25391C24.2029 5.25391 24.3801 5.29041 24.5404 5.36341C24.7008 5.43641 24.8575 5.54957 25.0105 5.70291L30.5304 11.2229C30.7538 11.4449 30.8686 11.7216 30.8749 12.0529C30.8813 12.3842 30.7664 12.6679 30.5304 12.9039C30.3074 13.1269 30.037 13.2384 29.719 13.2384C29.4013 13.2384 29.1181 13.1269 28.8695 12.9039L25.1345 9.14991V17.8574C25.1345 18.1797 25.0251 18.4494 24.8064 18.6664C24.5875 18.8837 24.3156 18.9924 23.9909 18.9924C23.6663 18.9924 23.3974 18.8837 23.1845 18.6664C22.9718 18.4494 22.8654 18.1797 22.8654 17.8574V9.14991Z" fill="url(#paint0_linear_980_52641)"/>
</g>
<defs>
<linearGradient id="paint0_linear_980_52641" x1="24.0094" y1="5.25391" x2="1.32226" y2="40.2717" gradientUnits="userSpaceOnUse">
<stop stop-color="#01E1ED"/>
<stop offset="1" stop-color="#00B6C0"/>
</linearGradient>
</defs>
</svg>
