<svg width="12" height="8" viewBox="0 0 12 8" fill="none" xmlns="http://www.w3.org/2000/svg">
<path d="M9.51089 4.54222H0.960677C0.806649 4.54222 0.677691 4.49077 0.573802 4.38785C0.469913 4.28507 0.417969 4.15743 0.417969 4.00493C0.417969 3.85243 0.469913 3.72334 0.573802 3.61764C0.677691 3.51181 0.806649 3.45889 0.960677 3.45889H9.51089L7.47568 1.42368C7.36568 1.31354 7.30797 1.18584 7.30255 1.04056C7.29728 0.89528 7.35165 0.764933 7.46568 0.649517C7.58776 0.534239 7.71873 0.477918 7.85859 0.480557C7.99859 0.483196 8.1263 0.542224 8.24172 0.657641L11.1267 3.54285C11.1863 3.60229 11.2321 3.67042 11.264 3.74722C11.2961 3.82403 11.3121 3.90709 11.3121 3.99639C11.3121 4.0857 11.2961 4.16875 11.264 4.24556C11.2321 4.32236 11.184 4.39563 11.1198 4.46535L8.24172 7.34347C8.13158 7.45347 8.00873 7.50771 7.87318 7.50618C7.73748 7.50452 7.60859 7.44604 7.48651 7.33077C7.37248 7.21535 7.31679 7.08632 7.31943 6.94368C7.32207 6.80104 7.38109 6.67202 7.49651 6.5566L9.51089 4.54222Z" fill="white"/>
</svg>
