<svg width="40" height="40" viewBox="0 0 40 40" fill="none" xmlns="http://www.w3.org/2000/svg">
<path d="M18.95 15.4L14.9 11.3C14.7333 11.1333 14.6167 10.9667 14.55 10.8C14.4833 10.6333 14.45 10.45 14.45 10.25V1.5C14.45 1.06667 14.5917 0.708333 14.875 0.425C15.1583 0.141667 15.5167 0 15.95 0H24.1C24.5333 0 24.8917 0.141667 25.175 0.425C25.4583 0.708333 25.6 1.06667 25.6 1.5V10.25C25.6 10.45 25.5667 10.6333 25.5 10.8C25.4333 10.9667 25.3167 11.1333 25.15 11.3L21.05 15.4C20.8833 15.5667 20.7167 15.675 20.55 15.725C20.3833 15.775 20.2 15.8 20 15.8C19.8 15.8 19.6167 15.775 19.45 15.725C19.2833 15.675 19.1167 15.5667 18.95 15.4ZM24.6 21.05C24.4333 20.8833 24.325 20.7167 24.275 20.55C24.225 20.3833 24.2 20.2 24.2 20C24.2 19.8 24.225 19.6167 24.275 19.45C24.325 19.2833 24.4333 19.1167 24.6 18.95L28.7 14.85C28.8667 14.6833 29.0333 14.5667 29.2 14.5C29.3667 14.4333 29.55 14.4 29.75 14.4H38.5C38.9333 14.4 39.2917 14.5417 39.575 14.825C39.8583 15.1083 40 15.4667 40 15.9V24.05C40 24.4833 39.8583 24.8417 39.575 25.125C39.2917 25.4083 38.9333 25.55 38.5 25.55H29.75C29.55 25.55 29.3667 25.5167 29.2 25.45C29.0333 25.3833 28.8667 25.2667 28.7 25.1L24.6 21.05ZM0 24.05V15.9C0 15.4667 0.141667 15.1083 0.425 14.825C0.708333 14.5417 1.06667 14.4 1.5 14.4H10.25C10.45 14.4 10.6333 14.4333 10.8 14.5C10.9667 14.5667 11.1333 14.6833 11.3 14.85L15.4 18.95C15.5667 19.1167 15.675 19.2833 15.725 19.45C15.775 19.6167 15.8 19.8 15.8 20C15.8 20.2 15.775 20.3833 15.725 20.55C15.675 20.7167 15.5667 20.8833 15.4 21.05L11.3 25.1C11.1333 25.2667 10.9667 25.3833 10.8 25.45C10.6333 25.5167 10.45 25.55 10.25 25.55H1.5C1.06667 25.55 0.708333 25.4083 0.425 25.125C0.141667 24.8417 0 24.4833 0 24.05ZM14.45 38.5V29.75C14.45 29.55 14.4833 29.3667 14.55 29.2C14.6167 29.0333 14.7333 28.8667 14.9 28.7L18.95 24.6C19.1167 24.4333 19.2833 24.325 19.45 24.275C19.6167 24.225 19.8 24.2 20 24.2C20.2 24.2 20.3833 24.225 20.55 24.275C20.7167 24.325 20.8833 24.4333 21.05 24.6L25.15 28.7C25.3167 28.8667 25.4333 29.0333 25.5 29.2C25.5667 29.3667 25.6 29.55 25.6 29.75V38.5C25.6 38.9333 25.4583 39.2917 25.175 39.575C24.8917 39.8583 24.5333 40 24.1 40H15.95C15.5167 40 15.1583 39.8583 14.875 39.575C14.5917 39.2917 14.45 38.9333 14.45 38.5Z" fill="white"/>
</svg>
