<svg width="28" height="27" viewBox="0 0 28 27" fill="none" xmlns="http://www.w3.org/2000/svg">
<path d="M3.15388 26.8633C2.52113 26.8633 1.98312 26.6417 1.53987 26.1984C1.09662 25.7549 0.875 25.2169 0.875 24.5844V8.89178C0.875 8.25928 1.09662 7.72141 1.53987 7.27816C1.98312 6.83491 2.52113 6.61328 3.15388 6.61328H6.875V2.89178C6.875 2.25928 7.09663 1.72141 7.53988 1.27816C7.98313 0.834906 8.52112 0.613281 9.15388 0.613281H18.8461C19.4789 0.613281 20.0169 0.834906 20.4601 1.27816C20.9034 1.72141 21.125 2.25928 21.125 2.89178V12.6133H24.8461C25.4789 12.6133 26.0169 12.8349 26.4601 13.2782C26.9034 13.7214 27.125 14.2593 27.125 14.8918V24.5844C27.125 25.2169 26.9034 25.7549 26.4601 26.1984C26.0169 26.6417 25.4789 26.8633 24.8461 26.8633H15.875V20.8633H12.125V26.8633H3.15388ZM3.125 24.6133H6.875V20.8633H3.125V24.6133ZM3.125 18.6133H6.875V14.8633H3.125V18.6133ZM3.125 12.6133H6.875V8.86328H3.125V12.6133ZM9.125 18.6133H12.875V14.8633H9.125V18.6133ZM9.125 12.6133H12.875V8.86328H9.125V12.6133ZM9.125 6.61328H12.875V2.86328H9.125V6.61328ZM15.125 18.6133H18.875V14.8633H15.125V18.6133ZM15.125 12.6133H18.875V8.86328H15.125V12.6133ZM15.125 6.61328H18.875V2.86328H15.125V6.61328ZM21.125 24.6133H24.875V20.8633H21.125V24.6133ZM21.125 18.6133H24.875V14.8633H21.125V18.6133Z" fill="url(#paint0_linear_1118_9176)"/>
<defs>
<linearGradient id="paint0_linear_1118_9176" x1="25.3352" y1="0.613282" x2="-0.967029" y2="21.5517" gradientUnits="userSpaceOnUse">
<stop stop-color="#002FDF"/>
<stop offset="1" stop-color="#4D62B0"/>
</linearGradient>
</defs>
</svg>
