<svg width="20" height="20" viewBox="0 0 20 20" fill="none" xmlns="http://www.w3.org/2000/svg">
<path d="M8.70419 11.3966L7.03119 9.74839C6.89269 9.61006 6.7436 9.53922 6.58394 9.53589C6.42444 9.53272 6.27219 9.60356 6.12719 9.74839C5.98235 9.89339 5.90994 10.0482 5.90994 10.2129C5.90994 10.3776 5.98235 10.5324 6.12719 10.6774L8.14644 12.6966C8.31061 12.8606 8.49652 12.9426 8.70419 12.9426C8.91185 12.9426 9.09777 12.8606 9.26194 12.6966L13.8504 8.10814C13.9888 7.96964 14.0596 7.81639 14.0629 7.64839C14.0661 7.48056 13.9953 7.32414 13.8504 7.17914C13.7054 7.03431 13.5548 6.96189 13.3984 6.96189C13.2421 6.96189 13.0914 7.03431 12.9464 7.17914L8.70419 11.3966ZM10.0002 19.1004C8.75285 19.1004 7.5761 18.8636 6.46994 18.3899C5.36377 17.9162 4.3956 17.2645 3.56544 16.4346C2.73527 15.6048 2.08319 14.6371 1.60919 13.5314C1.13535 12.4257 0.898438 11.2493 0.898438 10.0021C0.898438 8.73814 1.13527 7.55722 1.60894 6.45939C2.0826 5.36156 2.73435 4.39756 3.56419 3.56739C4.39402 2.73722 5.36177 2.08514 6.46744 1.61114C7.5731 1.13731 8.74952 0.900391 9.99669 0.900391C11.2607 0.900391 12.4416 1.13722 13.5394 1.61089C14.6373 2.08456 15.6013 2.73631 16.4314 3.56614C17.2616 4.39597 17.9137 5.35956 18.3877 6.45689C18.8615 7.55422 19.0984 8.73481 19.0984 9.99864C19.0984 11.246 18.8616 12.4227 18.3879 13.5289C17.9143 14.6351 17.2625 15.6032 16.4327 16.4334C15.6029 17.2636 14.6393 17.9156 13.5419 18.3896C12.4446 18.8635 11.264 19.1004 10.0002 19.1004Z" fill="#01E1ED"/>
</svg>
