<svg width="26" height="30" viewBox="0 0 26 30" fill="none" xmlns="http://www.w3.org/2000/svg">
<path d="M8.81725 26.25H2.96163C2.20388 26.25 1.5625 25.9875 1.0375 25.4625C0.5125 24.9375 0.25 24.2961 0.25 23.5384V3.46163C0.25 2.70388 0.5125 2.0625 1.0375 1.5375C1.5625 1.0125 2.20388 0.75 2.96163 0.75H23.0384C23.7961 0.75 24.4375 1.0125 24.9625 1.5375C25.4875 2.0625 25.75 2.70388 25.75 3.46163V23.5384C25.75 24.2961 25.4875 24.9375 24.9625 25.4625C24.4375 25.9875 23.7961 26.25 23.0384 26.25H17.1828L13.9491 29.4836C13.6779 29.7546 13.3615 29.8901 13 29.8901C12.6385 29.8901 12.3221 29.7546 12.0509 29.4836L8.81725 26.25ZM12.922 21.9086C13.351 21.9086 13.713 21.761 14.008 21.4658C14.3032 21.1705 14.4509 20.8085 14.4509 20.3797C14.4509 19.951 14.3032 19.589 14.008 19.2938C13.713 18.9985 13.351 18.8509 12.922 18.8509C12.4933 18.8509 12.1313 18.9985 11.836 19.2938C11.5408 19.589 11.3931 19.951 11.3931 20.3797C11.3931 20.8085 11.5408 21.1705 11.836 21.4658C12.1313 21.761 12.4933 21.9086 12.922 21.9086ZM15.6483 9.23063C15.6483 9.68463 15.5179 10.1505 15.2571 10.6283C14.9966 11.1063 14.5702 11.6087 13.978 12.1357C13.5722 12.501 13.2381 12.8476 12.9756 13.1756C12.7131 13.5034 12.4991 13.8326 12.3336 14.1634C12.2241 14.3731 12.1444 14.5804 12.0944 14.7851C12.0444 14.9899 11.9944 15.2172 11.9444 15.4672C11.9039 15.7557 11.9798 16.0062 12.172 16.2188C12.3645 16.4313 12.6126 16.5375 12.9164 16.5375C13.1894 16.5375 13.4321 16.4414 13.6446 16.2491C13.8571 16.0569 13.999 15.8011 14.0702 15.4819C14.1452 15.1126 14.289 14.7684 14.5015 14.4491C14.714 14.1299 15.0625 13.7279 15.547 13.2431C16.3547 12.4356 16.9279 11.7366 17.2664 11.1461C17.6049 10.5559 17.7741 9.91738 17.7741 9.23063C17.7741 7.99613 17.3539 6.99763 16.5134 6.23513C15.6731 5.47263 14.5472 5.09138 13.1357 5.09138C12.155 5.09138 11.2761 5.30962 10.4991 5.74612C9.72212 6.18262 9.09813 6.79225 8.62713 7.575C8.49038 7.80775 8.48163 8.053 8.60088 8.31075C8.72013 8.56825 8.91638 8.74513 9.18963 8.84138C9.43763 8.93763 9.6905 8.93763 9.94825 8.84138C10.2057 8.74513 10.4152 8.58837 10.5767 8.37112C10.8902 7.95387 11.259 7.63175 11.683 7.40475C12.1073 7.17775 12.5915 7.06425 13.1357 7.06425C13.8722 7.06425 14.4751 7.26 14.9444 7.6515C15.4136 8.04275 15.6483 8.56913 15.6483 9.23063Z" fill="url(#paint0_linear_1118_9182)"/>
<defs>
<linearGradient id="paint0_linear_1118_9182" x1="25.75" y1="-0.868894" x2="-3.34105" y2="26.0024" gradientUnits="userSpaceOnUse">
<stop stop-color="#F468AF"/>
<stop offset="1" stop-color="#D25F9A"/>
</linearGradient>
</defs>
</svg>
