<svg width="50" height="50" viewBox="0 0 50 50" fill="none" xmlns="http://www.w3.org/2000/svg">
<rect x="0.5" y="0.25" width="49.5" height="49.5" rx="8" fill="white"/>
<path d="M14.3586 37.75C13.8466 37.75 13.4089 37.5682 13.0453 37.2047C12.6818 36.8411 12.5 36.4032 12.5 35.8911V20.0213C12.5 19.5091 12.6818 19.0712 13.0453 18.7077C13.4089 18.3441 13.8466 18.1624 14.3586 18.1624H18.4218V14.1086C18.4218 13.5964 18.6024 13.1585 18.9635 12.795C19.3246 12.4317 19.7637 12.25 20.2808 12.25H30.2287C30.7409 12.25 31.1786 12.4317 31.5419 12.795C31.9055 13.1585 32.0873 13.5964 32.0873 14.1086V24.0845H36.1414C36.6534 24.0845 37.0911 24.2663 37.4547 24.6299C37.8182 24.9932 38 25.4309 38 25.9431V35.8911C38 36.4032 37.8182 36.8411 37.4547 37.2047C37.0911 37.5682 36.6534 37.75 36.1414 37.75H27.3031V31.8278H23.1969V37.75H14.3586ZM14.3309 35.9191H18.4218V31.8278H14.3309V35.9191ZM14.3309 29.9973H18.4218V25.9151H14.3309V29.9973ZM14.3309 24.0845H18.4218V19.9933H14.3309V24.0845ZM20.2527 29.9973H24.3345V25.9151H20.2527V29.9973ZM20.2527 24.0845H24.3345V19.9933H20.2527V24.0845ZM20.2527 18.1624H24.3345V14.0805H20.2527V18.1624ZM26.1655 29.9973H30.2567V25.9151H26.1655V29.9973ZM26.1655 24.0845H30.2567V19.9933H26.1655V24.0845ZM26.1655 18.1624H30.2567V14.0805H26.1655V18.1624ZM32.0873 35.9191H36.1691V31.8278H32.0873V35.9191ZM32.0873 29.9973H36.1691V25.9151H32.0873V29.9973Z" fill="url(#paint0_linear_1074_11433)"/>
<defs>
<linearGradient id="paint0_linear_1074_11433" x1="38" y1="12.25" x2="17.9375" y2="42.194" gradientUnits="userSpaceOnUse">
<stop stop-color="#5A46E3"/>
<stop offset="1" stop-color="#4533BE"/>
</linearGradient>
</defs>
</svg>
