<svg width="16" height="12" viewBox="0 0 16 12" fill="none" xmlns="http://www.w3.org/2000/svg">
<path d="M12.6115 6.75081H1.25C1.03717 6.75081 0.859 6.67898 0.7155 6.53531C0.571833 6.39181 0.5 6.21365 0.5 6.00081C0.5 5.78798 0.571833 5.60981 0.7155 5.46631C0.859 5.32265 1.03717 5.25081 1.25 5.25081H12.6115L9.31925 1.95856C9.17058 1.80973 9.09717 1.63565 9.099 1.43631C9.101 1.23698 9.17442 1.05973 9.31925 0.904563C9.47442 0.749563 9.65258 0.669479 9.85375 0.664312C10.0551 0.659146 10.2333 0.734146 10.3885 0.889312L14.8673 5.36806C14.9609 5.46173 15.0269 5.56048 15.0652 5.66431C15.1037 5.76815 15.123 5.88031 15.123 6.00081C15.123 6.12131 15.1037 6.23348 15.0652 6.33731C15.0269 6.44115 14.9609 6.5399 14.8673 6.63356L10.3885 11.1123C10.2397 11.261 10.0631 11.3344 9.85875 11.3326C9.65425 11.3306 9.47442 11.2521 9.31925 11.0971C9.17442 10.9419 9.09942 10.7662 9.09425 10.5701C9.08908 10.3739 9.16408 10.1982 9.31925 10.0431L12.6115 6.75081Z" fill="#002FDF"/>
</svg>
