<svg width="24" height="24" viewBox="0 0 24 24" fill="none" xmlns="http://www.w3.org/2000/svg">
<mask id="mask0_7_772" style="mask-type:alpha" maskUnits="userSpaceOnUse" x="0" y="0" width="24" height="24">
<rect width="24" height="24" fill="#D9D9D9"/>
</mask>
<g mask="url(#mask0_7_772)">
<path d="M16.1442 7.80375L6.81144 17.127C6.67294 17.2653 6.49894 17.3329 6.28944 17.3298C6.07978 17.3266 5.90569 17.2558 5.76719 17.1173C5.62886 16.9788 5.55969 16.8063 5.55969 16.6C5.55969 16.3937 5.62886 16.2213 5.76719 16.0828L15.0904 6.75H6.89419C6.68169 6.75 6.50353 6.67808 6.35969 6.53425C6.21603 6.39042 6.14419 6.21225 6.14419 5.99975C6.14419 5.78708 6.21603 5.609 6.35969 5.4655C6.50353 5.32183 6.68169 5.25 6.89419 5.25H16.7402C16.9964 5.25 17.211 5.33658 17.3842 5.50975C17.5575 5.68308 17.6442 5.89775 17.6442 6.15375V16C17.6442 16.2125 17.5723 16.3906 17.4284 16.5343C17.2846 16.6781 17.1064 16.75 16.8939 16.75C16.6813 16.75 16.5031 16.6781 16.3594 16.5343C16.2159 16.3906 16.1442 16.2125 16.1442 16V7.80375Z" fill="#002FDF"/>
</g>
</svg>
