<svg width="13" height="13" viewBox="0 0 13 13" fill="none" xmlns="http://www.w3.org/2000/svg">
<path d="M11.1441 2.80375L1.81132 12.127C1.67282 12.2653 1.49882 12.3329 1.28932 12.3298C1.07965 12.3266 0.90557 12.2558 0.76707 12.1173C0.628737 11.9788 0.55957 11.8063 0.55957 11.6C0.55957 11.3937 0.628737 11.2213 0.76707 11.0828L10.0903 1.75H1.89407C1.68157 1.75 1.5034 1.67808 1.35957 1.53425C1.2159 1.39042 1.14407 1.21225 1.14407 0.99975C1.14407 0.787083 1.2159 0.609 1.35957 0.4655C1.5034 0.321833 1.68157 0.25 1.89407 0.25H11.7401C11.9962 0.25 12.2109 0.336584 12.3841 0.50975C12.5574 0.683084 12.6441 0.897751 12.6441 1.15375V11C12.6441 11.2125 12.5722 11.3906 12.4283 11.5343C12.2845 11.6781 12.1063 11.75 11.8938 11.75C11.6812 11.75 11.503 11.6781 11.3593 11.5343C11.2158 11.3906 11.1441 11.2125 11.1441 11V2.80375Z" fill="#002FDF"/>
</svg>
