<svg width="12" height="8" viewBox="0 0 12 8" fill="none" xmlns="http://www.w3.org/2000/svg">
<path d="M9.51089 5.04222H0.960677C0.806649 5.04222 0.677691 4.99077 0.573802 4.88785C0.469913 4.78507 0.417969 4.65743 0.417969 4.50493C0.417969 4.35243 0.469913 4.22334 0.573802 4.11764C0.677691 4.01181 0.806649 3.95889 0.960677 3.95889H9.51089L7.47568 1.92368C7.36568 1.81354 7.30797 1.68584 7.30255 1.54056C7.29728 1.39528 7.35165 1.26493 7.46568 1.14952C7.58776 1.03424 7.71873 0.977918 7.85859 0.980557C7.99859 0.983196 8.1263 1.04222 8.24172 1.15764L11.1267 4.04285C11.1863 4.10229 11.2321 4.17042 11.264 4.24722C11.2961 4.32403 11.3121 4.40709 11.3121 4.49639C11.3121 4.5857 11.2961 4.66875 11.264 4.74556C11.2321 4.82236 11.184 4.89563 11.1198 4.96535L8.24172 7.84347C8.13158 7.95347 8.00873 8.00771 7.87318 8.00618C7.73748 8.00452 7.60859 7.94604 7.48651 7.83077C7.37248 7.71535 7.31679 7.58632 7.31943 7.44368C7.32207 7.30104 7.38109 7.17202 7.49651 7.0566L9.51089 5.04222Z" fill="#333333"/>
</svg>
