<svg width="12" height="8" viewBox="0 0 12 8" fill="none" xmlns="http://www.w3.org/2000/svg">
<path d="M9.50991 4.54222H0.959701C0.805673 4.54222 0.676714 4.49077 0.572825 4.38785C0.468937 4.28507 0.416992 4.15743 0.416992 4.00493C0.416992 3.85243 0.468937 3.72334 0.572825 3.61764C0.676714 3.51181 0.805673 3.45889 0.959701 3.45889H9.50991L7.4747 1.42368C7.3647 1.31354 7.30699 1.18584 7.30158 1.04056C7.2963 0.89528 7.35067 0.764933 7.4647 0.649517C7.58678 0.534239 7.71776 0.477918 7.85762 0.480557C7.99762 0.483196 8.12533 0.542224 8.24074 0.657641L11.1257 3.54285C11.1853 3.60229 11.2311 3.67042 11.263 3.74722C11.2951 3.82403 11.3112 3.90709 11.3112 3.99639C11.3112 4.0857 11.2951 4.16875 11.263 4.24556C11.2311 4.32236 11.183 4.39563 11.1189 4.46535L8.24074 7.34347C8.1306 7.45347 8.00776 7.50771 7.8722 7.50618C7.73651 7.50452 7.60762 7.44604 7.48553 7.33077C7.37151 7.21535 7.31581 7.08632 7.31845 6.94368C7.32109 6.80104 7.38012 6.67202 7.49553 6.5566L9.50991 4.54222Z" fill="white"/>
</svg>
