<svg width="50" height="50" viewBox="0 0 50 50" fill="none" xmlns="http://www.w3.org/2000/svg">
<rect x="0.25" y="0.25" width="49.5" height="49.5" rx="8" fill="white"/>
<path d="M25 37.75C23.2362 37.75 21.5787 37.4154 20.0275 36.7461C18.4762 36.0768 17.1269 35.1686 15.9794 34.0213C14.8319 32.874 13.9235 31.5249 13.2542 29.9738C12.5847 28.4228 12.25 26.7657 12.25 25.0023C12.25 23.2388 12.5846 21.5812 13.2539 20.0295C13.9232 18.4778 14.8314 17.1281 15.9787 15.9804C17.126 14.8327 18.4751 13.9239 20.0262 13.2542C21.5772 12.5847 23.2343 12.25 24.9977 12.25C26.7612 12.25 28.4188 12.5847 29.9705 13.2542C31.5222 13.9235 32.8719 14.8319 34.0196 15.9794C35.1673 17.1269 36.0761 18.4762 36.7458 20.0275C37.4153 21.5787 37.75 23.2362 37.75 25V26.5501C37.75 27.7421 37.3355 28.7505 36.5065 29.5752C35.6776 30.4 34.6594 30.8123 33.4519 30.8123C32.6484 30.8123 31.9032 30.6044 31.2163 30.1886C30.5294 29.7728 30.0139 29.2046 29.6699 28.4841C29.1176 29.2332 28.4324 29.8085 27.6144 30.2101C26.7962 30.6116 25.9247 30.8123 25 30.8123C23.3872 30.8123 22.013 30.2482 20.8774 29.1199C19.7417 27.9919 19.1739 26.617 19.1739 24.9953C19.1739 23.3738 19.7417 21.9959 20.8774 20.8616C22.013 19.7273 23.3872 19.1602 25 19.1602C26.6125 19.1602 27.9867 19.7273 29.1226 20.8616C30.2583 21.9959 30.8261 23.3757 30.8261 25.001V26.5501C30.8261 27.2666 31.0823 27.875 31.5948 28.3754C32.1072 28.8758 32.7239 29.126 33.4449 29.126C34.1658 29.126 34.7825 28.8758 35.295 28.3754C35.8074 27.875 36.0636 27.2666 36.0636 26.5501V25C36.0636 21.9114 34.992 19.2953 32.8486 17.1517C30.7051 15.0081 28.0891 13.9364 25.0007 13.9364C21.9125 13.9364 19.2964 15.008 17.1524 17.1514C15.0084 19.2949 13.9364 21.9109 13.9364 24.9993C13.9364 28.0875 15.0081 30.7036 17.1517 32.8476C19.2953 34.9916 21.9114 36.0636 25 36.0636H31.0945C31.3334 36.0636 31.5337 36.145 31.6954 36.3076C31.8569 36.47 31.9377 36.6713 31.9377 36.9115C31.9377 37.1515 31.8569 37.3513 31.6954 37.5108C31.5337 37.6703 31.3334 37.75 31.0945 37.75H25ZM25.0017 29.126C26.1523 29.126 27.1297 28.7249 27.9338 27.9228C28.7378 27.1204 29.1397 26.1462 29.1397 25C29.1397 23.8362 28.7371 22.853 27.9318 22.0504C27.1266 21.2478 26.1487 20.8465 24.9983 20.8465C23.8477 20.8465 22.8703 21.2481 22.0662 22.0514C21.2622 22.8546 20.8603 23.8385 20.8603 25.003C20.8603 26.1452 21.2629 27.1178 22.0682 27.9211C22.8734 28.7243 23.8513 29.126 25.0017 29.126Z" fill="url(#paint0_linear_1074_11427)"/>
<defs>
<linearGradient id="paint0_linear_1074_11427" x1="25" y1="12.25" x2="25" y2="37.75" gradientUnits="userSpaceOnUse">
<stop stop-color="#5C9DFF"/>
<stop offset="1" stop-color="#375E99"/>
</linearGradient>
</defs>
</svg>
