<svg width="50" height="50" viewBox="0 0 50 50" fill="none" xmlns="http://www.w3.org/2000/svg">
<rect y="0.25" width="49.5" height="49.5" rx="8" fill="white"/>
<path d="M35.8549 37.75C33.1394 37.75 30.3645 37.0835 27.5303 35.7505C24.696 34.4175 22.0631 32.5353 19.6316 30.1038C17.2099 27.6725 15.3325 25.0421 13.9995 22.2126C12.6665 19.3831 12 16.6106 12 13.8951C12 13.4349 12.1567 13.0456 12.4702 12.7274C12.7837 12.4091 13.1706 12.25 13.6309 12.25H18.1174C18.5026 12.25 18.8332 12.3761 19.1092 12.6284C19.385 12.8806 19.5726 13.202 19.6721 13.5925L20.5567 17.752C20.61 18.1347 20.5969 18.4757 20.5174 18.775C20.4379 19.0742 20.2916 19.3239 20.0786 19.5239L16.5585 22.9517C17.1908 24.0578 17.8742 25.0887 18.609 26.0447C19.344 27.0007 20.1391 27.9035 20.9944 28.753C21.8916 29.667 22.8461 30.5057 23.8579 31.2692C24.8694 32.0327 25.9549 32.7317 27.1144 33.3662L30.5059 29.9001C30.7506 29.6354 31.0306 29.4549 31.3459 29.3586C31.6609 29.2626 31.993 29.2396 32.3423 29.2896L36.1575 30.1068C36.553 30.2003 36.8756 30.3996 37.1254 30.7049C37.3751 31.0099 37.5 31.3576 37.5 31.7481V36.1191C37.5 36.5794 37.3409 36.9663 37.0226 37.2798C36.7044 37.5933 36.3151 37.75 35.8549 37.75Z" fill="url(#paint0_linear_1074_11421)"/>
<defs>
<linearGradient id="paint0_linear_1074_11421" x1="35.7614" y1="12.25" x2="10.2106" y2="32.5902" gradientUnits="userSpaceOnUse">
<stop stop-color="#002FDF"/>
<stop offset="1" stop-color="#4D62B0"/>
</linearGradient>
</defs>
</svg>
