<svg width="24" height="24" viewBox="0 0 24 24" fill="none" xmlns="http://www.w3.org/2000/svg">
<mask id="mask0_1054_8557" style="mask-type:alpha" maskUnits="userSpaceOnUse" x="0" y="0" width="24" height="24">
<rect width="24" height="24" fill="#D9D9D9"/>
</mask>
<g mask="url(#mask0_1054_8557)">
<path d="M10.7057 13.3947L9.03265 11.7464C8.89415 11.6081 8.74507 11.5373 8.5854 11.5339C8.4259 11.5308 8.27365 11.6016 8.12865 11.7464C7.98382 11.8914 7.9114 12.0463 7.9114 12.2109C7.9114 12.3756 7.98382 12.5304 8.12865 12.6754L10.1479 14.6947C10.3121 14.8587 10.498 14.9407 10.7057 14.9407C10.9133 14.9407 11.0992 14.8587 11.2634 14.6947L15.8519 10.1062C15.9902 9.96769 16.0611 9.81444 16.0644 9.64644C16.0676 9.4786 15.9967 9.32219 15.8519 9.17719C15.7069 9.03235 15.5562 8.95994 15.3999 8.95994C15.2436 8.95994 15.0929 9.03235 14.9479 9.17719L10.7057 13.3947ZM12.0017 21.0984C10.7543 21.0984 9.57757 20.8616 8.4714 20.3879C7.36524 19.9143 6.39707 19.2625 5.5669 18.4327C4.73674 17.6029 4.08465 16.6351 3.61065 15.5294C3.13682 14.4238 2.8999 13.2474 2.8999 12.0002C2.8999 10.7362 3.13674 9.55527 3.6104 8.45744C4.08407 7.3596 4.73582 6.3956 5.56565 5.56544C6.39549 4.73527 7.36324 4.08319 8.4689 3.60919C9.57457 3.13535 10.751 2.89844 11.9982 2.89844C13.2622 2.89844 14.4431 3.13527 15.5409 3.60894C16.6387 4.0826 17.6027 4.73435 18.4329 5.56419C19.2631 6.39402 19.9152 7.3576 20.3892 8.45494C20.863 9.55227 21.0999 10.7329 21.0999 11.9967C21.0999 13.244 20.8631 14.4208 20.3894 15.5269C19.9157 16.6331 19.264 17.6013 18.4342 18.4314C17.6043 19.2616 16.6407 19.9137 15.5434 20.3877C14.4461 20.8615 13.2655 21.0984 12.0017 21.0984Z" fill="#01E1ED"/>
</g>
</svg>
