<svg width="40" height="40" viewBox="0 0 40 40" fill="none" xmlns="http://www.w3.org/2000/svg">
<path d="M18.5 38.5V23.7C17.7667 23.4 17.1667 22.9167 16.7 22.25C16.2333 21.5833 16 20.8333 16 20C16 18.9 16.3917 17.9583 17.175 17.175C17.9583 16.3917 18.9 16 20 16C21.1 16 22.0417 16.3917 22.825 17.175C23.6083 17.9583 24 18.9 24 20C24 20.8333 23.7667 21.5833 23.3 22.25C22.8333 22.9167 22.2333 23.4 21.5 23.7V38.5C21.5 38.9333 21.3583 39.2917 21.075 39.575C20.7917 39.8583 20.4333 40 20 40C19.5667 40 19.2083 39.8583 18.925 39.575C18.6417 39.2917 18.5 38.9333 18.5 38.5ZM7.3 33.4C7 33.7 6.625 33.85 6.175 33.85C5.725 33.85 5.36667 33.6833 5.1 33.35C3.5 31.55 2.25 29.525 1.35 27.275C0.45 25.025 0 22.6 0 20C0 17.2333 0.525 14.6333 1.575 12.2C2.625 9.76667 4.05 7.65 5.85 5.85C7.65 4.05 9.76667 2.625 12.2 1.575C14.6333 0.525 17.2333 0 20 0C22.7667 0 25.3667 0.525 27.8 1.575C30.2333 2.625 32.35 4.05 34.15 5.85C35.95 7.65 37.375 9.76667 38.425 12.2C39.475 14.6333 40 17.2333 40 20C40 22.6 39.55 25.025 38.65 27.275C37.75 29.525 36.5 31.55 34.9 33.35C34.6333 33.6833 34.275 33.8583 33.825 33.875C33.375 33.8917 33 33.75 32.7 33.45C32.4 33.15 32.2667 32.7833 32.3 32.35C32.3333 31.9167 32.5 31.5333 32.8 31.2C34.1333 29.7 35.1667 28 35.9 26.1C36.6333 24.2 37 22.1667 37 20C37 15.2667 35.35 11.25 32.05 7.95C28.75 4.65 24.7333 3 20 3C15.2667 3 11.25 4.65 7.95 7.95C4.65 11.25 3 15.2667 3 20C3 22.1667 3.36667 24.2 4.1 26.1C4.83333 28 5.86667 29.7 7.2 31.2C7.5 31.5333 7.66667 31.9083 7.7 32.325C7.73333 32.7417 7.6 33.1 7.3 33.4ZM12.95 27.75C12.65 28.05 12.2833 28.2 11.85 28.2C11.4167 28.2 11.0667 28.0333 10.8 27.7C9.93333 26.6333 9.25 25.4583 8.75 24.175C8.25 22.8917 8 21.5 8 20C8 16.6667 9.16667 13.8333 11.5 11.5C13.8333 9.16667 16.6667 8 20 8C23.3333 8 26.1667 9.16667 28.5 11.5C30.8333 13.8333 32 16.6667 32 20C32 21.5 31.75 22.8917 31.25 24.175C30.75 25.4583 30.0667 26.6333 29.2 27.7C28.9333 28.0333 28.5917 28.2083 28.175 28.225C27.7583 28.2417 27.4 28.1 27.1 27.8C26.8 27.5 26.65 27.1333 26.65 26.7C26.65 26.2667 26.7833 25.8833 27.05 25.55C27.65 24.7833 28.125 23.9333 28.475 23C28.825 22.0667 29 21.0667 29 20C29 17.5 28.125 15.375 26.375 13.625C24.625 11.875 22.5 11 20 11C17.5 11 15.375 11.875 13.625 13.625C11.875 15.375 11 17.5 11 20C11 21.0667 11.175 22.0667 11.525 23C11.875 23.9333 12.35 24.7833 12.95 25.55C13.2167 25.8833 13.3583 26.2583 13.375 26.675C13.3917 27.0917 13.25 27.45 12.95 27.75Z" fill="white"/>
</svg>
