<svg width="48" height="48" viewBox="0 0 48 48" fill="none" xmlns="http://www.w3.org/2000/svg">
<mask id="mask0_875_6031" style="mask-type:alpha" maskUnits="userSpaceOnUse" x="0" y="0" width="48" height="48">
<rect width="48" height="48" fill="#D9D9D9"/>
</mask>
<g mask="url(#mask0_875_6031)">
<path d="M15.9925 24L20.0305 19.9425C20.2538 19.7322 20.3687 19.4667 20.375 19.146C20.3813 18.8257 20.2665 18.5475 20.0305 18.3115C19.8075 18.0885 19.539 17.977 19.225 17.977C18.911 17.977 18.636 18.095 18.4 18.331L13.7425 22.9885C13.4552 23.2755 13.3115 23.6127 13.3115 24C13.3115 24.3873 13.4552 24.7245 13.7425 25.0115L18.4 29.669C18.623 29.8923 18.8948 30.0072 19.2155 30.0135C19.5358 30.0198 19.8075 29.9115 20.0305 29.6885C20.2665 29.4525 20.3845 29.1858 20.3845 28.8885C20.3845 28.5912 20.2665 28.3245 20.0305 28.0885L15.9925 24ZM32.0575 24L27.9695 28.0885C27.7462 28.3115 27.6313 28.575 27.625 28.879C27.6187 29.1827 27.7335 29.4525 27.9695 29.6885C28.1925 29.9115 28.461 30.023 28.775 30.023C29.089 30.023 29.364 29.905 29.6 29.669L34.2885 25.0115C34.5885 24.7245 34.7385 24.3873 34.7385 24C34.7385 23.6127 34.5885 23.2755 34.2885 22.9885L29.6305 18.331C29.4075 18.1077 29.1442 17.9928 28.8405 17.9865C28.5365 17.9802 28.2667 18.0885 28.031 18.3115C27.8077 18.5475 27.696 18.8225 27.696 19.1365C27.696 19.4505 27.8077 19.7192 28.031 19.9425L32.0575 24ZM9.8845 41C9.08983 41 8.41033 40.718 7.846 40.154C7.282 39.5897 7 38.9102 7 38.1155V9.8845C7 9.08983 7.282 8.41033 7.846 7.846C8.41033 7.282 9.08983 7 9.8845 7H20.1345C20.0705 5.923 20.418 4.98717 21.177 4.1925C21.936 3.3975 22.877 3 24 3C25.136 3 26.0835 3.3975 26.8425 4.1925C27.6012 4.98717 27.9422 5.923 27.8655 7H38.1155C38.9102 7 39.5897 7.282 40.154 7.846C40.718 8.41033 41 9.08983 41 9.8845V38.1155C41 38.9102 40.718 39.5897 40.154 40.154C39.5897 40.718 38.9102 41 38.1155 41H9.8845ZM24 8.4385C24.454 8.4385 24.8495 8.27317 25.1865 7.9425C25.5238 7.6115 25.6925 7.21267 25.6925 6.746C25.6925 6.29233 25.5238 5.90017 25.1865 5.5695C24.8495 5.2385 24.454 5.073 24 5.073C23.546 5.073 23.1537 5.2385 22.823 5.5695C22.4923 5.90017 22.327 6.29233 22.327 6.746C22.327 7.21267 22.4923 7.6115 22.823 7.9425C23.1537 8.27317 23.546 8.4385 24 8.4385Z" fill="#1C1B1F"/>
</g>
</svg>
