<svg width="48" height="48" viewBox="0 0 48 48" fill="none" xmlns="http://www.w3.org/2000/svg">
<mask id="mask0_3012_802" style="mask-type:alpha" maskUnits="userSpaceOnUse" x="0" y="0" width="48" height="48">
<rect width="48" height="48" fill="#D9D9D9"/>
</mask>
<g mask="url(#mask0_3012_802)">
<path d="M21.85 23.15L18.65 19.95C18.35 19.65 18 19.5083 17.6 19.525C17.2 19.5417 16.85 19.7 16.55 20C16.25 20.3 16.1 20.65 16.1 21.05C16.1 21.45 16.25 21.8 16.55 22.1L20.8 26.35C21.1 26.65 21.45 26.8 21.85 26.8C22.25 26.8 22.6 26.65 22.9 26.35L32 17.85C32 17.4833 31.9667 17.1083 31.9 16.725C31.8333 16.3417 31.6667 16.0167 31.4 15.75C31.1 15.45 30.7417 15.3 30.325 15.3C29.9083 15.3 29.55 15.45 29.25 15.75L21.85 23.15ZM2 42V39H44.5C44.9333 39 45.2917 39.1417 45.575 39.425C45.8583 39.7083 46 40.0667 46 40.5C46 40.9333 45.8583 41.2917 45.575 41.575C45.2917 41.8583 44.9333 42 44.5 42H2ZM7 36C6.2 36 5.5 35.7 4.9 35.1C4.3 34.5 4 33.8 4 33V9C4 8.2 4.3 7.5 4.9 6.9C5.5 6.3 6.2 6 7 6H41C41.8 6 42.5 6.3 43.1 6.9C43.7 7.5 44 8.2 44 9V33C44 33.8 43.7 34.5 43.1 35.1C42.5 35.7 41.8 36 41 36H7Z" fill="url(#paint0_linear_3012_802)"/>
</g>
<defs>
<linearGradient id="paint0_linear_3012_802" x1="43" y1="6" x2="6" y2="42" gradientUnits="userSpaceOnUse">
<stop stop-color="#002FDF"/>
<stop offset="1" stop-color="#4D62B0"/>
</linearGradient>
</defs>
</svg>
