<svg width="36" height="36" viewBox="0 0 36 36" fill="none" xmlns="http://www.w3.org/2000/svg">
<path d="M10.5 18L14 14.5C14.3 14.2 14.45 13.8333 14.45 13.4C14.45 12.9667 14.3 12.6 14 12.3C13.7 12 13.3333 11.85 12.9 11.85C12.4667 11.85 12.1 12 11.8 12.3L7.15 16.95C6.98333 17.1167 6.86667 17.2833 6.8 17.45C6.73333 17.6167 6.7 17.8 6.7 18C6.7 18.2 6.73333 18.3833 6.8 18.55C6.86667 18.7167 6.98333 18.8833 7.15 19.05L11.85 23.75C12.15 24.05 12.5167 24.2 12.95 24.2C13.3833 24.2 13.75 24.05 14.05 23.75C14.35 23.45 14.5 23.0833 14.5 22.65C14.5 22.2167 14.35 21.85 14.05 21.55L10.5 18ZM25.5 18L21.95 21.55C21.65 21.85 21.5 22.2167 21.5 22.65C21.5 23.0833 21.65 23.45 21.95 23.75C22.25 24.05 22.6167 24.2 23.05 24.2C23.4833 24.2 23.85 24.05 24.15 23.75L28.85 19.05C29.0167 18.8833 29.1333 18.7167 29.2 18.55C29.2667 18.3833 29.3 18.2 29.3 18C29.3 17.8 29.2667 17.6167 29.2 17.45C29.1333 17.2833 29.0167 17.1167 28.85 16.95L24.15 12.25C24.0167 12.0833 23.85 11.9667 23.65 11.9C23.45 11.8333 23.25 11.8 23.05 11.8C22.85 11.8 22.6583 11.8333 22.475 11.9C22.2917 11.9667 22.1167 12.0833 21.95 12.25C21.65 12.55 21.5 12.9167 21.5 13.35C21.5 13.7833 21.65 14.15 21.95 14.45L25.5 18ZM3 36C2.2 36 1.5 35.7 0.9 35.1C0.3 34.5 0 33.8 0 33V3C0 2.2 0.3 1.5 0.9 0.9C1.5 0.3 2.2 0 3 0H33C33.8 0 34.5 0.3 35.1 0.9C35.7 1.5 36 2.2 36 3V33C36 33.8 35.7 34.5 35.1 35.1C34.5 35.7 33.8 36 33 36H3Z" fill="white"/>
</svg>
