<svg width="16" height="12" viewBox="0 0 16 12" fill="none" xmlns="http://www.w3.org/2000/svg">
<path d="M0.750098 11.0338C0.565931 11.0338 0.411598 10.9721 0.287098 10.8486C0.162431 10.7249 0.100098 10.5717 0.100098 10.3888C0.100098 10.2062 0.162431 10.0513 0.287098 9.92434C0.411598 9.79751 0.565931 9.73409 0.750098 9.73409H15.2501C15.4343 9.73409 15.5886 9.79584 15.7131 9.91934C15.8378 10.043 15.9001 10.1963 15.9001 10.3791C15.9001 10.5618 15.8378 10.7166 15.7131 10.8436C15.5886 10.9704 15.4343 11.0338 15.2501 11.0338H0.750098ZM0.750098 6.64934C0.565931 6.64934 0.411598 6.58751 0.287098 6.46384C0.162431 6.34018 0.100098 6.18701 0.100098 6.00434C0.100098 5.82151 0.162431 5.66668 0.287098 5.53984C0.411598 5.41284 0.565931 5.34934 0.750098 5.34934H15.2501C15.4343 5.34934 15.5886 5.41118 15.7131 5.53484C15.8378 5.65851 15.9001 5.81168 15.9001 5.99434C15.9001 6.17718 15.8378 6.33201 15.7131 6.45884C15.5886 6.58584 15.4343 6.64934 15.2501 6.64934H0.750098ZM0.750098 2.26459C0.565931 2.26459 0.411598 2.20284 0.287098 2.07934C0.162431 1.95568 0.100098 1.80243 0.100098 1.61959C0.100098 1.43693 0.162431 1.28209 0.287098 1.15509C0.411598 1.02826 0.565931 0.964844 0.750098 0.964844H15.2501C15.4343 0.964844 15.5886 1.02659 15.7131 1.15009C15.8378 1.27376 15.9001 1.42701 15.9001 1.60984C15.9001 1.79251 15.8378 1.94734 15.7131 2.07434C15.5886 2.20118 15.4343 2.26459 15.2501 2.26459H0.750098Z" fill="#002FDF"/>
</svg>
