<svg width="39" height="40" viewBox="0 0 39 40" fill="none" xmlns="http://www.w3.org/2000/svg">
<path d="M18.55 26.55C20.75 26.55 22.6167 25.85 24.15 24.45C25.6833 23.05 26.45 21.35 26.45 19.35C26.45 17.6167 25.8917 16.1333 24.775 14.9C23.6583 13.6667 22.3 13.05 20.7 13.05C19.3 13.05 18.1 13.5083 17.1 14.425C16.1 15.3417 15.6 16.45 15.6 17.75C15.6 18.3167 15.7 18.8833 15.9 19.45C16.1 20.0167 16.4333 20.5 16.9 20.9C17.2667 21.2667 17.6583 21.4167 18.075 21.35C18.4917 21.2833 18.8333 21.1167 19.1 20.85C19.3667 20.5833 19.5167 20.2583 19.55 19.875C19.5833 19.4917 19.4333 19.1333 19.1 18.8C18.9333 18.6333 18.8083 18.475 18.725 18.325C18.6417 18.175 18.6 18 18.6 17.8C18.6 17.3333 18.7833 16.9333 19.15 16.6C19.5167 16.2667 20.0333 16.1 20.7 16.1C21.4667 16.1 22.125 16.4083 22.675 17.025C23.225 17.6417 23.5 18.4333 23.5 19.4C23.5 20.5667 23.0333 21.5583 22.1 22.375C21.1667 23.1917 20 23.6 18.6 23.6C16.9 23.6 15.4583 22.925 14.275 21.575C13.0917 20.225 12.5 18.55 12.5 16.55C12.5 15.7833 12.6083 15.0333 12.825 14.3C13.0417 13.5667 13.3667 12.8833 13.8 12.25C14.0333 11.8833 14.1417 11.5 14.125 11.1C14.1083 10.7 13.95 10.35 13.65 10.05C13.35 9.75 13 9.6 12.6 9.6C12.2 9.6 11.8667 9.76667 11.6 10.1C10.9 11 10.3667 12 10 13.1C9.63333 14.2 9.45 15.3333 9.45 16.5C9.45 19.3 10.3333 21.675 12.1 23.625C13.8667 25.575 16.0167 26.55 18.55 26.55ZM7.5 40C7.06667 40 6.70833 39.8583 6.425 39.575C6.14167 39.2917 6 38.9333 6 38.5V31.4C4.1 29.6667 2.625 27.6417 1.575 25.325C0.525 23.0083 0 20.5667 0 18C0 13 1.75 8.75 5.25 5.25C8.75 1.75 13 0 18 0C22.1667 0 25.8583 1.225 29.075 3.675C32.2917 6.125 34.3833 9.31667 35.35 13.25L38.1 24.15C38.2333 24.6167 38.15 25.0417 37.85 25.425C37.55 25.8083 37.15 26 36.65 26H32V33C32 33.8333 31.7083 34.5417 31.125 35.125C30.5417 35.7083 29.8333 36 29 36H24V38.5C24 38.9333 23.8583 39.2917 23.575 39.575C23.2917 39.8583 22.9333 40 22.5 40H7.5Z" fill="white"/>
</svg>
