<svg width="48" height="48" viewBox="0 0 48 48" fill="none" xmlns="http://www.w3.org/2000/svg">
<mask id="mask0_980_52563" style="mask-type:alpha" maskUnits="userSpaceOnUse" x="0" y="0" width="48" height="48">
<rect width="48" height="48" fill="#D9D9D9"/>
</mask>
<g mask="url(#mask0_980_52563)">
<path d="M4.5 9.4425V5.3845C4.5 4.60117 4.785 3.92467 5.355 3.355C5.92467 2.785 6.60117 2.5 7.3845 2.5H11.4615C11.7705 2.5 12.0368 2.60967 12.2605 2.829C12.4842 3.04833 12.596 3.32017 12.596 3.6445C12.596 3.96883 12.4842 4.23733 12.2605 4.45C12.0368 4.66267 11.7705 4.769 11.4615 4.769H7.3845C7.20517 4.769 7.05783 4.82683 6.9425 4.9425C6.82683 5.05783 6.769 5.20517 6.769 5.3845V9.4425C6.769 9.76383 6.65933 10.0332 6.44 10.2505C6.22067 10.4682 5.949 10.577 5.625 10.577C5.30067 10.577 5.03217 10.4682 4.8195 10.2505C4.6065 10.0332 4.5 9.76383 4.5 9.4425ZM41.231 9.4425V5.3845C41.231 5.20517 41.1732 5.05783 41.0575 4.9425C40.9422 4.82683 40.7948 4.769 40.6155 4.769H36.5575C36.2362 4.769 35.9668 4.65933 35.7495 4.44C35.5318 4.22067 35.423 3.949 35.423 3.625C35.423 3.30067 35.5318 3.03217 35.7495 2.8195C35.9668 2.6065 36.2362 2.5 36.5575 2.5H40.6155C41.3988 2.5 42.0753 2.785 42.645 3.355C43.215 3.92467 43.5 4.60117 43.5 5.3845V9.4425C43.5 9.76383 43.3903 10.0332 43.171 10.2505C42.9517 10.4682 42.6798 10.577 42.3555 10.577C42.0312 10.577 41.7627 10.4682 41.55 10.2505C41.3373 10.0332 41.231 9.76383 41.231 9.4425ZM4.5 42.6155V38.5385C4.5 38.2295 4.60967 37.9632 4.829 37.7395C5.04833 37.5158 5.32017 37.404 5.6445 37.404C5.96883 37.404 6.23733 37.5158 6.45 37.7395C6.66267 37.9632 6.769 38.2295 6.769 38.5385V42.6155C6.769 42.7948 6.82683 42.9422 6.9425 43.0575C7.05783 43.1732 7.20517 43.231 7.3845 43.231H11.4615C11.7705 43.231 12.0368 43.3407 12.2605 43.56C12.4842 43.7793 12.596 44.051 12.596 44.375C12.596 44.6993 12.4842 44.9678 12.2605 45.1805C12.0368 45.3935 11.7705 45.5 11.4615 45.5H7.3845C6.60117 45.5 5.92467 45.215 5.355 44.645C4.785 44.0753 4.5 43.3988 4.5 42.6155ZM40.6155 45.5H36.5575C36.2362 45.5 35.9668 45.3903 35.7495 45.171C35.5318 44.9517 35.423 44.6798 35.423 44.3555C35.423 44.0312 35.5318 43.7627 35.7495 43.55C35.9668 43.3373 36.2362 43.231 36.5575 43.231H40.6155C40.7948 43.231 40.9422 43.1732 41.0575 43.0575C41.1732 42.9422 41.231 42.7948 41.231 42.6155V38.5385C41.231 38.2295 41.3407 37.9632 41.56 37.7395C41.7793 37.5158 42.051 37.404 42.375 37.404C42.6993 37.404 42.9678 37.5158 43.1805 37.7395C43.3935 37.9632 43.5 38.2295 43.5 38.5385V42.6155C43.5 43.3988 43.215 44.0753 42.645 44.645C42.0753 45.215 41.3988 45.5 40.6155 45.5ZM13.3845 39.5C12.6002 39.5 11.9233 39.2153 11.354 38.646C10.7847 38.0767 10.5 37.3998 10.5 36.6155V11.3845C10.5 10.6002 10.7847 9.92333 11.354 9.354C11.9233 8.78467 12.6002 8.5 13.3845 8.5H34.6155C35.3998 8.5 36.0767 8.78467 36.646 9.354C37.2153 9.92333 37.5 10.6002 37.5 11.3845V36.6155C37.5 37.3998 37.2153 38.0767 36.646 38.646C36.0767 39.2153 35.3998 39.5 34.6155 39.5H13.3845ZM20 19.1345H28C28.3213 19.1345 28.5908 19.0248 28.8085 18.8055C29.0258 18.5862 29.1345 18.3143 29.1345 17.99C29.1345 17.666 29.0258 17.3975 28.8085 17.1845C28.5908 16.9718 28.3213 16.8655 28 16.8655H20C19.6787 16.8655 19.4092 16.9752 19.1915 17.1945C18.9742 17.4138 18.8655 17.6857 18.8655 18.01C18.8655 18.334 18.9742 18.6025 19.1915 18.8155C19.4092 19.0282 19.6787 19.1345 20 19.1345ZM20 25.1345H28C28.3213 25.1345 28.5908 25.0248 28.8085 24.8055C29.0258 24.5862 29.1345 24.3143 29.1345 23.99C29.1345 23.666 29.0258 23.3975 28.8085 23.1845C28.5908 22.9718 28.3213 22.8655 28 22.8655H20C19.6787 22.8655 19.4092 22.9752 19.1915 23.1945C18.9742 23.4138 18.8655 23.6857 18.8655 24.01C18.8655 24.334 18.9742 24.6025 19.1915 24.8155C19.4092 25.0282 19.6787 25.1345 20 25.1345ZM20 31.1345H28C28.3213 31.1345 28.5908 31.0248 28.8085 30.8055C29.0258 30.5862 29.1345 30.3143 29.1345 29.99C29.1345 29.666 29.0258 29.3975 28.8085 29.1845C28.5908 28.9718 28.3213 28.8655 28 28.8655H20C19.6787 28.8655 19.4092 28.9752 19.1915 29.1945C18.9742 29.4138 18.8655 29.6857 18.8655 30.01C18.8655 30.334 18.9742 30.6025 19.1915 30.8155C19.4092 31.0282 19.6787 31.1345 20 31.1345Z" fill="url(#paint0_linear_980_52563)"/>
</g>
<defs>
<linearGradient id="paint0_linear_980_52563" x1="43.5" y1="2.5" x2="8.53539" y2="49.8315" gradientUnits="userSpaceOnUse">
<stop stop-color="#5A46E3"/>
<stop offset="1" stop-color="#4533BE"/>
</linearGradient>
</defs>
</svg>
