<svg width="48" height="48" viewBox="0 0 48 48" fill="none" xmlns="http://www.w3.org/2000/svg">
<mask id="mask0_980_52549" style="mask-type:alpha" maskUnits="userSpaceOnUse" x="0" y="0" width="48" height="48">
<rect width="48" height="48" fill="#D9D9D9"/>
</mask>
<g mask="url(#mask0_980_52549)">
<path d="M23.8923 41.7118C23.364 41.7118 22.9061 41.5278 22.5188 41.1598C22.1318 40.7918 21.9383 40.3281 21.9383 39.7688C21.9383 39.5205 21.9915 39.254 22.0978 38.9693C22.2041 38.685 22.3638 38.4428 22.5768 38.2428L30.4053 30.3953C30.558 30.2423 30.6343 30.0805 30.6343 29.9098C30.6343 29.7395 30.5575 29.5773 30.4038 29.4233C30.2498 29.2696 30.0843 29.1928 29.9073 29.1928C29.7303 29.1928 29.565 29.2696 29.4113 29.4233L21.5763 37.2553C21.365 37.4663 21.1308 37.6246 20.8738 37.7303C20.6168 37.836 20.3485 37.8888 20.0688 37.8888C19.5278 37.8888 19.0721 37.7035 18.7018 37.3328C18.3311 36.9625 18.1458 36.5068 18.1458 35.9658C18.1458 35.6451 18.2023 35.3573 18.3153 35.1023C18.428 34.847 18.5741 34.6296 18.7538 34.4503L26.5823 26.6213C26.735 26.469 26.8113 26.3043 26.8113 26.1273C26.8113 25.9503 26.7343 25.785 26.5803 25.6313C26.4266 25.4773 26.2581 25.4035 26.0748 25.4098C25.8915 25.4165 25.7298 25.4896 25.5898 25.6293L17.7533 33.4308C17.5543 33.6298 17.3228 33.7853 17.0588 33.8973C16.7948 34.0096 16.5136 34.0658 16.2153 34.0658C15.6946 34.0658 15.244 33.8753 14.8633 33.4943C14.4826 33.1136 14.2923 32.6631 14.2923 32.1428C14.2923 31.8631 14.3455 31.5938 14.4518 31.3348C14.5581 31.0758 14.7178 30.84 14.9308 30.6273L22.5293 23.0283C22.6813 22.8763 22.7573 22.7118 22.7573 22.5348C22.7573 22.3581 22.6805 22.1928 22.5268 22.0388C22.3728 21.8851 22.2073 21.8115 22.0303 21.8178C21.8536 21.8241 21.6951 21.8971 21.5548 22.0368L13.9613 29.6383C13.7823 29.8166 13.5605 29.962 13.2958 30.0743C13.0311 30.1866 12.7391 30.2428 12.4198 30.2428C11.8681 30.2428 11.4101 30.0658 11.0458 29.7118C10.6818 29.3581 10.4998 28.9086 10.4998 28.3633C10.4998 28.088 10.5561 27.8176 10.6688 27.5523C10.7818 27.287 10.9383 27.0543 11.1383 26.8543L20.6843 17.3078C20.964 17.0285 21.2955 16.894 21.6788 16.9043C22.0621 16.9146 22.3935 17.0595 22.6728 17.3388L26.7148 21.3808C27.0815 21.7475 27.4866 22.0366 27.9303 22.2483C28.374 22.46 28.8933 22.5658 29.4883 22.5658C30.5036 22.5658 31.3491 22.2433 32.0248 21.5983C32.7005 20.9533 33.0383 20.0925 33.0383 19.0158C33.0383 18.5428 32.9433 18.0843 32.7533 17.6403C32.5636 17.1963 32.265 16.7676 31.8573 16.3543L26.9228 11.4198C26.3278 10.8248 25.997 10.1273 25.9303 9.32731C25.8636 8.52731 26.1278 7.85931 26.7228 7.32331C27.1408 6.95165 27.5953 6.68114 28.0863 6.51181C28.5773 6.34248 29.0818 6.25781 29.5998 6.25781C30.3151 6.25781 31.0256 6.41548 31.7313 6.73081C32.437 7.04581 33.0751 7.48815 33.6458 8.05781L42.1538 16.5963C42.6638 17.1066 43.051 17.6965 43.3153 18.3658C43.5793 19.0348 43.7113 19.795 43.7113 20.6463C43.7113 21.313 43.5741 21.9656 43.2998 22.6043C43.0255 23.2426 42.6435 23.8066 42.1538 24.2963L25.4073 41.0733C25.1663 41.3143 24.9235 41.481 24.6788 41.5733C24.4338 41.6656 24.1716 41.7118 23.8923 41.7118ZM6.3883 25.7078C5.62264 25.0118 5.04147 24.225 4.6448 23.3473C4.24814 22.4696 4.0498 21.5578 4.0498 20.6118C4.0498 19.7965 4.19847 19.0196 4.4958 18.2813C4.79347 17.5426 5.24997 16.8656 5.8653 16.2503L14.0268 8.05781C14.5291 7.55548 15.0836 7.16714 15.6903 6.89281C16.2966 6.61848 16.9446 6.48131 17.6343 6.48131C18.365 6.48131 19.074 6.61848 19.7613 6.89281C20.4483 7.16714 21.0431 7.55548 21.5458 8.05781L30.8343 17.3463C31.0676 17.5796 31.2561 17.8361 31.3998 18.1158C31.5431 18.3951 31.6148 18.6951 31.6148 19.0158C31.6148 19.6105 31.406 20.12 30.9883 20.5443C30.5703 20.9686 30.0638 21.1808 29.4688 21.1808C29.1151 21.1808 28.785 21.104 28.4783 20.9503C28.172 20.7963 27.892 20.586 27.6383 20.3193L23.6458 16.3273C23.0921 15.7863 22.4173 15.5158 21.6213 15.5158C20.8253 15.5158 20.1578 15.7863 19.6188 16.3273L10.0768 25.8693C9.59714 26.349 9.00097 26.5618 8.2883 26.5078C7.57564 26.4541 6.9423 26.1875 6.3883 25.7078Z" fill="url(#paint0_linear_980_52549)"/>
</g>
<defs>
<linearGradient id="paint0_linear_980_52549" x1="41.0071" y1="6.25781" x2="4.79817" y2="38.5034" gradientUnits="userSpaceOnUse">
<stop stop-color="#002FDF"/>
<stop offset="1" stop-color="#4D62B0"/>
</linearGradient>
</defs>
</svg>
