<svg width="48" height="48" viewBox="0 0 48 48" fill="none" xmlns="http://www.w3.org/2000/svg">
<mask id="mask0_980_52571" style="mask-type:alpha" maskUnits="userSpaceOnUse" x="0" y="0" width="48" height="48">
<rect width="48" height="48" fill="#D9D9D9"/>
</mask>
<g mask="url(#mask0_980_52571)">
<path d="M16.2613 38.7701C15.6536 38.7701 15.1235 38.544 14.6708 38.0916C14.2185 37.639 13.9923 37.1088 13.9923 36.5011V33.6741C13.9923 33.2538 14.1308 32.9083 14.4078 32.6376C14.6845 32.3673 15.0266 32.2321 15.4343 32.2321H19.9228V25.3816C18.7228 25.5716 17.5126 25.5051 16.2923 25.1821C15.0716 24.8588 13.9818 24.3138 13.0228 23.5471C12.8561 23.3935 12.726 23.225 12.6323 23.0416C12.539 22.8583 12.4923 22.6563 12.4923 22.4356V20.1011H10.3423C10.1423 20.1011 9.96214 20.0678 9.80181 20.0011C9.64147 19.9345 9.48447 19.8178 9.33081 19.6511L4.87281 15.1936C4.55247 14.873 4.40697 14.4941 4.43631 14.0571C4.46597 13.6198 4.65764 13.2743 5.01131 13.0206C6.06531 12.2693 7.25697 11.6788 8.58631 11.2491C9.91597 10.8198 11.2256 10.6051 12.5153 10.6051C13.682 10.6051 14.9358 10.7955 16.2768 11.1761C17.6178 11.5568 18.8331 12.1613 19.9228 12.9896V12.0971C19.9228 11.2638 20.2145 10.5523 20.7978 9.96263C21.3811 9.37296 22.096 9.07812 22.9423 9.07812H38.1153C38.91 9.07812 39.5895 9.36013 40.1538 9.92413C40.7178 10.4885 40.9998 11.168 40.9998 11.9626V34.3086C40.9998 35.5573 40.5683 36.6131 39.7053 37.4761C38.8426 38.3388 37.7933 38.7701 36.5573 38.7701H16.2613ZM22.1923 32.2321H32.9613C33.3563 32.2321 33.689 32.3673 33.9593 32.6376C34.23 32.9083 34.3653 33.241 34.3653 33.6356V34.3086C34.3653 34.9496 34.5705 35.4753 34.9808 35.8856C35.3908 36.296 35.9163 36.5011 36.5573 36.5011C37.1856 36.5011 37.705 36.296 38.1153 35.8856C38.5253 35.4753 38.7303 34.9496 38.7303 34.3086V11.9626C38.7303 11.7833 38.6726 11.636 38.5573 11.5206C38.442 11.405 38.2946 11.3471 38.1153 11.3471H22.8073C22.628 11.3471 22.4806 11.405 22.3653 11.5206C22.25 11.636 22.1923 11.7833 22.1923 11.9626V14.7551L33.3688 25.9511C33.5715 26.1408 33.6863 26.3453 33.7133 26.5646C33.7403 26.784 33.7166 26.9948 33.6423 27.1971C33.5676 27.3998 33.4393 27.5703 33.2573 27.7086C33.0753 27.8473 32.8523 27.9166 32.5883 27.9166C32.4266 27.9166 32.2798 27.8928 32.1478 27.8451C32.0158 27.7978 31.8856 27.7101 31.7573 27.5821L25.7538 21.5971L24.6538 22.7896C24.2588 23.2383 23.8671 23.5863 23.4788 23.8336C23.0901 24.0813 22.6613 24.3153 22.1923 24.5356V32.2321ZM10.7843 17.8321H13.3188C13.7265 17.8321 14.0688 17.9673 14.3458 18.2376C14.6228 18.5083 14.7613 18.8538 14.7613 19.2741V22.0321C15.405 22.4498 16.0275 22.7536 16.6288 22.9436C17.2301 23.1333 17.8205 23.2281 18.3998 23.2281C19.2845 23.2281 20.1601 23.0095 21.0268 22.5721C21.8935 22.1351 22.5653 21.6576 23.0423 21.1396L24.1228 19.9666L20.4998 16.3436C19.4075 15.2383 18.1818 14.3838 16.8228 13.7801C15.4638 13.1761 14.028 12.8741 12.5153 12.8741C11.5256 12.8741 10.6 13.0081 9.73831 13.2761C8.87664 13.5441 8.05614 13.8871 7.27681 14.3051L10.7843 17.8321Z" fill="url(#paint0_linear_980_52571)"/>
</g>
<defs>
<linearGradient id="paint0_linear_980_52571" x1="40.9998" y1="7.42857" x2="12.2591" y2="44.7906" gradientUnits="userSpaceOnUse">
<stop stop-color="#F468AF"/>
<stop offset="1" stop-color="#D25F9A"/>
</linearGradient>
</defs>
</svg>
