<svg width="48" height="48" viewBox="0 0 48 48" fill="none" xmlns="http://www.w3.org/2000/svg">
<mask id="mask0_980_52585" style="mask-type:alpha" maskUnits="userSpaceOnUse" x="0" y="0" width="48" height="48">
<rect width="48" height="48" fill="#D9D9D9"/>
</mask>
<g mask="url(#mask0_980_52585)">
<path d="M13.8846 37.0753L12.4926 35.6828C10.6593 33.8238 9.32659 31.9238 8.49459 29.9828C7.66226 28.0418 7.24609 26.12 7.24609 24.2173C7.24609 21.1997 8.02059 18.4305 9.56959 15.9098C11.1183 13.3895 13.1976 11.4422 15.8076 10.0678C16.0976 9.91884 16.3926 9.88734 16.6926 9.97334C16.9926 10.0593 17.2066 10.2472 17.3346 10.5368C17.4629 10.8138 17.4681 11.094 17.3501 11.3773C17.2321 11.6607 17.0346 11.8767 16.7576 12.0253C14.5269 13.2047 12.7623 14.8853 11.4636 17.0673C10.1649 19.2497 9.51559 21.633 9.51559 24.2173C9.51559 25.9507 9.82009 27.602 10.4291 29.1713C11.0381 30.7407 12.0426 32.1778 13.4426 33.4828L15.4426 35.3713V30.3293C15.4426 29.9983 15.5489 29.7265 15.7616 29.5138C15.9746 29.3008 16.2464 29.1943 16.5771 29.1943C16.8951 29.1943 17.1636 29.3008 17.3826 29.5138C17.6019 29.7265 17.7116 29.9983 17.7116 30.3293V37.9023C17.7116 38.3227 17.5731 38.6682 17.2961 38.9388C17.0194 39.2092 16.6771 39.3443 16.2691 39.3443H8.69609C8.36543 39.3443 8.09376 39.238 7.88109 39.0253C7.66809 38.8123 7.56159 38.5405 7.56159 38.2098C7.56159 37.8792 7.66809 37.6073 7.88109 37.3943C8.09376 37.1817 8.36543 37.0753 8.69609 37.0753H13.8846ZM32.5771 12.6253V17.6673C32.5771 17.9983 32.4674 18.2702 32.2481 18.4828C32.0288 18.6958 31.7603 18.8023 31.4426 18.8023C31.1116 18.8023 30.8398 18.6958 30.6271 18.4828C30.4141 18.2702 30.3076 17.9983 30.3076 17.6673V10.0943C30.3076 9.67401 30.4429 9.32851 30.7136 9.05784C30.9839 8.78751 31.3294 8.65234 31.7501 8.65234H39.3041C39.6348 8.65234 39.9064 8.75868 40.1191 8.97134C40.3321 9.18434 40.4386 9.45618 40.4386 9.78684C40.4386 10.1175 40.3321 10.3893 40.1191 10.6023C39.9064 10.815 39.6348 10.9213 39.3041 10.9213H34.0846L35.5076 12.3138C37.1846 13.9292 38.4244 15.6215 39.2271 17.3908C40.0294 19.1598 40.4896 20.9047 40.6076 22.6253H38.3576C38.2269 21.0663 37.8584 19.6067 37.2521 18.2463C36.6458 16.886 35.7541 15.6418 34.5771 14.5138L32.5771 12.6253ZM35.2691 43.8058C35.0821 43.8058 34.9219 43.7475 34.7886 43.6308C34.6553 43.5142 34.5719 43.3558 34.5386 43.1558L34.4346 41.8868C33.6653 41.6995 32.9403 41.411 32.2596 41.0213C31.5789 40.6317 31.0154 40.1842 30.5691 39.6788L29.4731 40.2443C29.3064 40.3237 29.1314 40.3467 28.9481 40.3133C28.7648 40.28 28.6296 40.1865 28.5426 40.0328L27.8961 39.0673C27.7834 38.9007 27.7438 38.7308 27.7771 38.5578C27.8104 38.3848 27.9039 38.238 28.0576 38.1173L29.0811 37.3058C28.8374 36.4878 28.7156 35.7353 28.7156 35.0483C28.7156 34.361 28.8374 33.6083 29.0811 32.7903L28.0576 31.9788C27.9039 31.8585 27.8104 31.7118 27.7771 31.5388C27.7438 31.3655 27.7834 31.1955 27.8961 31.0288L28.5426 30.0138C28.6296 29.8598 28.7648 29.7693 28.9481 29.7423C29.1314 29.7157 29.3064 29.742 29.4731 29.8213L30.5691 30.3868C31.0154 29.9228 31.5789 29.4908 32.2596 29.0908C32.9403 28.6908 33.6653 28.3972 34.4346 28.2098L34.5386 26.9098C34.5719 26.7098 34.6553 26.5515 34.7886 26.4348C34.9219 26.3182 35.0821 26.2598 35.2691 26.2598H36.2076C36.3949 26.2598 36.5553 26.3182 36.6886 26.4348C36.8219 26.5515 36.9053 26.7098 36.9386 26.9098L37.0421 28.2098C37.8114 28.3972 38.5364 28.6908 39.2171 29.0908C39.8981 29.4908 40.4616 29.9163 40.9076 30.3673L42.0231 29.8213C42.1898 29.742 42.3583 29.7157 42.5286 29.7423C42.6993 29.7693 42.8346 29.8598 42.9346 30.0138L43.5806 31.0288C43.6936 31.1955 43.7334 31.3622 43.7001 31.5288C43.6668 31.6955 43.5668 31.8455 43.4001 31.9788L42.3961 32.7903C42.6398 33.6083 42.7616 34.3578 42.7616 35.0388C42.7616 35.7195 42.6398 36.4752 42.3961 37.3058L43.4191 38.1173C43.5731 38.238 43.6668 38.3848 43.7001 38.5578C43.7334 38.7308 43.6936 38.9007 43.5806 39.0673L42.9346 40.0328C42.8346 40.1865 42.6961 40.28 42.5191 40.3133C42.3421 40.3467 42.1703 40.3237 42.0036 40.2443L40.9076 39.6788C40.4616 40.1842 39.8981 40.6317 39.2171 41.0213C38.5364 41.411 37.8114 41.6995 37.0421 41.8868L36.9386 43.1558C36.9053 43.3558 36.8219 43.5142 36.6886 43.6308C36.5553 43.7475 36.3949 43.8058 36.2076 43.8058H35.2691ZM35.7231 39.9788C37.1258 39.9788 38.3008 39.5052 39.2481 38.5578C40.1954 37.6105 40.6691 36.4355 40.6691 35.0328C40.6691 33.6302 40.1954 32.452 39.2481 31.4983C38.3008 30.5443 37.1258 30.0673 35.7231 30.0673C34.3078 30.0673 33.1264 30.5443 32.1791 31.4983C31.2314 32.452 30.7576 33.6302 30.7576 35.0328C30.7576 36.4355 31.2314 37.6105 32.1791 38.5578C33.1264 39.5052 34.3078 39.9788 35.7231 39.9788Z" fill="url(#paint0_linear_980_52585)"/>
</g>
<defs>
<linearGradient id="paint0_linear_980_52585" x1="25.4788" y1="8.65234" x2="4.52382" y2="42.2035" gradientUnits="userSpaceOnUse">
<stop stop-color="#01E1ED"/>
<stop offset="1" stop-color="#00B6C0"/>
</linearGradient>
</defs>
</svg>
