<svg width="48" height="48" viewBox="0 0 48 48" fill="none" xmlns="http://www.w3.org/2000/svg">
<mask id="mask0_980_52556" style="mask-type:alpha" maskUnits="userSpaceOnUse" x="0" y="0" width="48" height="48">
<rect width="48" height="48" fill="#D9D9D9"/>
</mask>
<g mask="url(#mask0_980_52556)">
<path d="M41.6534 31.1392V19.3277L25.3614 28.1352C24.9248 28.3892 24.4618 28.5078 23.9724 28.4912C23.4831 28.4745 23.0114 28.3392 22.5574 28.0852L6.39993 19.2432C6.15893 19.0892 5.97693 18.9065 5.85393 18.6952C5.73093 18.4838 5.66943 18.2518 5.66943 17.9992C5.66943 17.7462 5.73093 17.5147 5.85393 17.3047C5.97693 17.0943 6.15893 16.9122 6.39993 16.7582L22.5569 7.90716C22.7829 7.78949 23.0144 7.69816 23.2514 7.63316C23.4884 7.56782 23.7276 7.53516 23.9689 7.53516C24.2106 7.53516 24.4499 7.56849 24.6869 7.63516C24.9236 7.70182 25.1484 7.79549 25.3614 7.91616L43.1614 17.5697C43.3848 17.6837 43.5674 17.8585 43.7094 18.0942C43.8518 18.3298 43.9229 18.5858 43.9229 18.8622V31.1392C43.9229 31.4608 43.8134 31.7303 43.5944 31.9477C43.3751 32.165 43.1033 32.2737 42.7789 32.2737C42.4543 32.2737 42.1856 32.165 41.9729 31.9477C41.7599 31.7303 41.6534 31.4608 41.6534 31.1392ZM22.5574 38.9122L12.0769 33.1892C11.6359 32.9225 11.2801 32.5628 11.0094 32.1102C10.7391 31.6575 10.6039 31.1658 10.6039 30.6352V22.9352L22.5574 29.4697C22.9954 29.7237 23.4621 29.8507 23.9574 29.8507C24.4524 29.8507 24.9204 29.7237 25.3614 29.4697L37.3344 22.9352V30.6387C37.3344 31.1737 37.1993 31.6658 36.9289 32.1152C36.6583 32.5645 36.2959 32.9225 35.8419 33.1892L25.3614 38.9122C25.1471 39.0455 24.9206 39.1455 24.6819 39.2122C24.4436 39.2788 24.2059 39.3122 23.9689 39.3122C23.7323 39.3122 23.4948 39.2788 23.2564 39.2122C23.0178 39.1455 22.7848 39.0455 22.5574 38.9122Z" fill="url(#paint0_linear_980_52556)"/>
</g>
<defs>
<linearGradient id="paint0_linear_980_52556" x1="24.7962" y1="7.53516" x2="7.20253" y2="40.2258" gradientUnits="userSpaceOnUse">
<stop stop-color="#01E1ED"/>
<stop offset="1" stop-color="#00B6C0"/>
</linearGradient>
</defs>
</svg>
