<svg width="48" height="48" viewBox="0 0 48 48" fill="none" xmlns="http://www.w3.org/2000/svg">
<mask id="mask0_980_52578" style="mask-type:alpha" maskUnits="userSpaceOnUse" x="0" y="0" width="48" height="48">
<rect width="48" height="48" fill="#D9D9D9"/>
</mask>
<g mask="url(#mask0_980_52578)">
<path d="M7.8845 39C7.08983 39 6.41033 38.718 5.846 38.154C5.282 37.5897 5 36.9102 5 36.1155V11.8845C5 11.0898 5.282 10.4103 5.846 9.846C6.41033 9.282 7.08983 9 7.8845 9H40.1155C40.9102 9 41.5897 9.282 42.154 9.846C42.718 10.4103 43 11.0898 43 11.8845V36.1155C43 36.9102 42.718 37.5897 42.154 38.154C41.5897 38.718 40.9102 39 40.1155 39H7.8845ZM18.9075 28.4845C19.4408 29.0025 20.0237 29.448 20.656 29.821C21.288 30.194 21.963 30.4678 22.681 30.6425L22.773 31.427C22.814 31.7167 22.939 31.9577 23.148 32.15C23.357 32.3423 23.6 32.4385 23.877 32.4385H24.123C24.4 32.4385 24.6482 32.3423 24.8675 32.15C25.0865 31.9577 25.2165 31.7167 25.2575 31.427L25.319 30.6425C26.037 30.4678 26.7203 30.194 27.369 29.821C28.018 29.448 28.5925 29.0025 29.0925 28.4845L29.877 28.9155C30.1333 29.0435 30.3928 29.0787 30.6555 29.021C30.9185 28.9633 31.1307 28.8165 31.292 28.5805L31.3845 28.396C31.5462 28.1603 31.6083 27.9092 31.571 27.6425C31.534 27.3758 31.4142 27.1513 31.2115 26.969L30.346 26.2345C30.5383 25.4832 30.6345 24.7383 30.6345 24C30.6345 23.2617 30.5383 22.5168 30.346 21.7655L31.2115 21.031C31.4142 20.8487 31.5392 20.6242 31.5865 20.3575C31.6338 20.0908 31.5768 19.8397 31.4155 19.604L31.292 19.4195C31.1307 19.1835 30.9185 19.0367 30.6555 18.979C30.3928 18.9213 30.1333 18.9565 29.877 19.0845L29.0925 19.5155C28.5925 18.9975 28.018 18.552 27.369 18.179C26.7203 17.806 26.037 17.5322 25.319 17.3575L25.227 16.573C25.186 16.2833 25.061 16.0423 24.852 15.85C24.643 15.6577 24.4 15.5615 24.123 15.5615H23.877C23.6 15.5615 23.3518 15.6577 23.1325 15.85C22.9135 16.0423 22.7835 16.2833 22.7425 16.573L22.681 17.3575C21.963 17.5322 21.288 17.806 20.656 18.179C20.0237 18.552 19.4408 18.9975 18.9075 19.5155L18.123 19.0845C17.8667 18.9565 17.6072 18.9213 17.3445 18.979C17.0815 19.0367 16.8693 19.1835 16.708 19.4195L16.6155 19.604C16.4538 19.8397 16.3917 20.0908 16.429 20.3575C16.466 20.6242 16.5858 20.8487 16.7885 21.031L17.654 21.7655C17.4617 22.5168 17.3655 23.2617 17.3655 24C17.3655 24.7383 17.4617 25.4832 17.654 26.2345L16.7885 26.969C16.5858 27.1513 16.4608 27.3758 16.4135 27.6425C16.3662 27.9092 16.4232 28.1603 16.5845 28.396L16.708 28.5805C16.8693 28.8165 17.0815 28.9633 17.3445 29.021C17.6072 29.0787 17.8667 29.0435 18.123 28.9155L18.9075 28.4845ZM24 28.4385C22.754 28.4385 21.7027 28.0103 20.846 27.154C19.9897 26.2973 19.5615 25.246 19.5615 24C19.5615 22.754 19.9897 21.7027 20.846 20.846C21.7027 19.9897 22.754 19.5615 24 19.5615C25.246 19.5615 26.2973 19.9897 27.154 20.846C28.0103 21.7027 28.4385 22.754 28.4385 24C28.4385 25.246 28.0103 26.2973 27.154 27.154C26.2973 28.0103 25.246 28.4385 24 28.4385Z" fill="url(#paint0_linear_980_52578)"/>
</g>
<defs>
<linearGradient id="paint0_linear_980_52578" x1="40.4091" y1="9" x2="9.56525" y2="40.1015" gradientUnits="userSpaceOnUse">
<stop stop-color="#002FDF"/>
<stop offset="1" stop-color="#4D62B0"/>
</linearGradient>
</defs>
</svg>
