<svg width="38" height="36" viewBox="0 0 38 36" fill="none" xmlns="http://www.w3.org/2000/svg">
<path d="M11.6925 22.1155H26.3075V21.5115C26.3075 20.3038 25.6473 19.3487 24.327 18.646C23.0063 17.9437 21.2307 17.5925 19 17.5925C16.7693 17.5925 14.9937 17.9437 13.673 18.646C12.3527 19.3487 11.6925 20.3038 11.6925 21.5115V22.1155ZM19 14.023C19.918 14.023 20.6937 13.7063 21.327 13.073C21.9603 12.4397 22.277 11.664 22.277 10.746C22.277 9.82833 21.9603 9.05283 21.327 8.4195C20.6937 7.78617 19.918 7.4695 19 7.4695C18.082 7.4695 17.3063 7.78617 16.673 8.4195C16.0397 9.05283 15.723 9.82833 15.723 10.746C15.723 11.664 16.0397 12.4397 16.673 13.073C17.3063 13.7063 18.082 14.023 19 14.023ZM7.077 30L2.454 34.623C2 35.0767 1.4775 35.185 0.8865 34.948C0.2955 34.7107 0 34.2652 0 33.6115V2.8845C0 2.0975 0.284 1.42 0.852 0.851999C1.42 0.283999 2.0975 0 2.8845 0H35.1155C35.9025 0 36.58 0.283999 37.148 0.851999C37.716 1.42 38 2.0975 38 2.8845V27.1155C38 27.9025 37.716 28.58 37.148 29.148C36.58 29.716 35.9025 30 35.1155 30H7.077Z" fill="url(#paint0_linear_938_7878)"/>
<defs>
<linearGradient id="paint0_linear_938_7878" x1="35.4091" y1="7.915e-07" x2="-0.258159" y2="30.7658" gradientUnits="userSpaceOnUse">
<stop stop-color="#002FDF"/>
<stop offset="1" stop-color="#4D62B0"/>
</linearGradient>
</defs>
</svg>
