<svg width="39" height="38" viewBox="0 0 39 38" fill="none" xmlns="http://www.w3.org/2000/svg">
<path d="M22.8046 19.0385L28.5006 15.2115C28.9416 14.9115 29.1621 14.5077 29.1621 14C29.1621 13.4923 28.9416 13.0885 28.5006 12.7885L22.8046 8.9615C22.3173 8.62817 21.8166 8.6 21.3026 8.877C20.7886 9.154 20.5316 9.57967 20.5316 10.154V17.846C20.5316 18.4203 20.7886 18.846 21.3026 19.123C21.8166 19.4 22.3173 19.3718 22.8046 19.0385ZM7.00861 37.8345C6.20094 37.9345 5.48494 37.7493 4.86061 37.279C4.23628 36.8083 3.87411 36.1755 3.77411 35.3805L0.824109 12.5C0.724109 11.7053 0.920775 10.981 1.41411 10.327C1.90778 9.673 2.55211 9.30883 3.34711 9.2345L6.12361 8.9615V26.3885C6.12361 28.0935 6.71794 29.5453 7.90661 30.744C9.09494 31.943 10.5418 32.5425 12.2471 32.5425H35.0046C35.0559 33.0808 34.9233 33.5468 34.6066 33.9405C34.2899 34.3338 33.8623 34.5575 33.3236 34.6115L7.00861 37.8345ZM12.2776 29.273C11.4906 29.273 10.8131 28.989 10.2451 28.421C9.67711 27.853 9.39311 27.1755 9.39311 26.3885V2.8845C9.39311 2.0975 9.67711 1.42 10.2451 0.851999C10.8131 0.283999 11.4906 0 12.2776 0H35.7816C36.5686 0 37.2461 0.283999 37.8141 0.851999C38.3821 1.42 38.6661 2.0975 38.6661 2.8845V26.3885C38.6661 27.1755 38.3821 27.853 37.8141 28.421C37.2461 28.989 36.5686 29.273 35.7816 29.273H12.2776Z" fill="url(#paint0_linear_938_7931)"/>
<defs>
<linearGradient id="paint0_linear_938_7931" x1="36.0843" y1="8.54486e-07" x2="-1.85338" y2="30.2061" gradientUnits="userSpaceOnUse">
<stop stop-color="#DEA300"/>
<stop offset="1" stop-color="#FFD968"/>
</linearGradient>
</defs>
</svg>
