<svg width="26" height="38" viewBox="0 0 26 38" fill="none" xmlns="http://www.w3.org/2000/svg">
<path d="M8.488 24.0008H1.7035C1.19317 24.0008 0.8155 23.7726 0.5705 23.3163C0.325833 22.8596 0.361167 22.4134 0.676501 21.9778L15.211 0.943268C15.4263 0.653602 15.6955 0.454936 16.0185 0.347269C16.3415 0.239603 16.6647 0.256269 16.988 0.397269C17.311 0.525269 17.5667 0.740602 17.755 1.04327C17.9433 1.34594 18.0107 1.66894 17.957 2.01227L16.1995 16.0008H24.4225C24.9788 16.0008 25.371 16.2456 25.599 16.7353C25.8273 17.2253 25.7672 17.6881 25.4185 18.1238L9.407 37.3353C9.19167 37.6046 8.91417 37.7796 8.5745 37.8603C8.23483 37.9409 7.92 37.9108 7.63 37.7698C7.32767 37.6414 7.09383 37.4324 6.9285 37.1428C6.76317 36.8531 6.701 36.5301 6.742 36.1738L8.488 24.0008Z" fill="url(#paint0_linear_938_7938)"/>
<defs>
<linearGradient id="paint0_linear_938_7938" x1="13.0723" y1="0.277344" x2="13.0723" y2="37.9043" gradientUnits="userSpaceOnUse">
<stop stop-color="#5C9DFF"/>
<stop offset="1" stop-color="#375E99"/>
</linearGradient>
</defs>
</svg>
