<svg width="20" height="20" viewBox="0 0 20 20" fill="none" xmlns="http://www.w3.org/2000/svg">
<path d="M8.70614 11.3947L7.03314 9.74644C6.89464 9.60811 6.74556 9.53727 6.58589 9.53394C6.42639 9.53077 6.27414 9.60161 6.12914 9.74644C5.98431 9.89144 5.91189 10.0463 5.91189 10.2109C5.91189 10.3756 5.98431 10.5304 6.12914 10.6754L8.14839 12.6947C8.31256 12.8587 8.49848 12.9407 8.70614 12.9407C8.91381 12.9407 9.09972 12.8587 9.26389 12.6947L13.8524 8.10619C13.9907 7.96769 14.0616 7.81444 14.0649 7.64644C14.0681 7.4786 13.9972 7.32219 13.8524 7.17719C13.7074 7.03235 13.5567 6.95994 13.4004 6.95994C13.2441 6.95994 13.0934 7.03235 12.9484 7.17719L8.70614 11.3947ZM10.0021 19.0984C8.75481 19.0984 7.57806 18.8616 6.47189 18.3879C5.36572 17.9143 4.39756 17.2625 3.56739 16.4327C2.73722 15.6029 2.08514 14.6351 1.61114 13.5294C1.13731 12.4238 0.900391 11.2474 0.900391 10.0002C0.900391 8.73619 1.13722 7.55527 1.61089 6.45744C2.08456 5.3596 2.73631 4.3956 3.56614 3.56544C4.39597 2.73527 5.36372 2.08319 6.46939 1.60919C7.57506 1.13535 8.75147 0.898438 9.99864 0.898438C11.2626 0.898438 12.4436 1.13527 13.5414 1.60894C14.6392 2.0826 15.6032 2.73435 16.4334 3.56419C17.2636 4.39402 17.9156 5.3576 18.3896 6.45494C18.8635 7.55227 19.1004 8.73285 19.1004 9.99669C19.1004 11.244 18.8636 12.4208 18.3899 13.5269C17.9162 14.6331 17.2645 15.6013 16.4346 16.4314C15.6048 17.2616 14.6412 17.9137 13.5439 18.3877C12.4466 18.8615 11.266 19.0984 10.0021 19.0984Z" fill="#01E1ED"/>
</svg>
