<svg width="34" height="38" viewBox="0 0 34 38" fill="none" xmlns="http://www.w3.org/2000/svg">
<path d="M4.4615 38C3.22117 38 2.1675 37.5665 1.3005 36.6995C0.4335 35.8325 0 34.7788 0 33.5385V30.1155C0 29.3322 0.285 28.6555 0.855 28.0855C1.42467 27.5158 2.10117 27.231 2.8845 27.231H6V2.8845C6 2.10117 6.285 1.42467 6.855 0.854999C7.42467 0.284999 8.10117 0 8.8845 0H31.1155C31.8988 0 32.5753 0.284999 33.145 0.854999C33.715 1.42467 34 2.10117 34 2.8845V33.5385C34 34.7788 33.5665 35.8325 32.6995 36.6995C31.8325 37.5665 30.7852 38 29.5575 38H4.4615ZM29.5535 35.7305C30.1678 35.7305 30.6843 35.5205 31.103 35.1005C31.5213 34.6802 31.7305 34.1595 31.7305 33.5385V2.8845C31.7305 2.70517 31.6728 2.55783 31.5575 2.4425C31.4422 2.32717 31.2948 2.2695 31.1155 2.2695H8.8845C8.70517 2.2695 8.55783 2.32717 8.4425 2.4425C8.32717 2.55783 8.2695 2.70517 8.2695 2.8845V27.231H24.481C25.2643 27.231 25.9408 27.5158 26.5105 28.0855C27.0805 28.6555 27.3655 29.3322 27.3655 30.1155V33.5385C27.3655 34.1595 27.5752 34.6802 27.9945 35.1005C28.4138 35.5205 28.9335 35.7305 29.5535 35.7305ZM12.519 10.923C12.1977 10.923 11.9283 10.8133 11.711 10.594C11.4933 10.3747 11.3845 10.1028 11.3845 9.7785C11.3845 9.4545 11.4933 9.186 11.711 8.973C11.9283 8.76033 12.1977 8.654 12.519 8.654H27.481C27.8023 8.654 28.0717 8.76367 28.289 8.983C28.5067 9.20233 28.6155 9.47417 28.6155 9.7985C28.6155 10.1225 28.5067 10.391 28.289 10.604C28.0717 10.8167 27.8023 10.923 27.481 10.923H12.519ZM12.519 16.6925C12.1977 16.6925 11.9283 16.5828 11.711 16.3635C11.4933 16.1442 11.3845 15.8723 11.3845 15.548C11.3845 15.2237 11.4933 14.9552 11.711 14.7425C11.9283 14.5295 12.1977 14.423 12.519 14.423H27.481C27.8023 14.423 28.0717 14.5327 28.289 14.752C28.5067 14.9713 28.6155 15.2432 28.6155 15.5675C28.6155 15.8918 28.5067 16.1603 28.289 16.373C28.0717 16.586 27.8023 16.6925 27.481 16.6925H12.519Z" fill="url(#paint0_linear_938_7947)"/>
<defs>
<linearGradient id="paint0_linear_938_7947" x1="34" y1="0" x2="2.98002" y2="41.4249" gradientUnits="userSpaceOnUse">
<stop stop-color="#5A46E3"/>
<stop offset="1" stop-color="#4533BE"/>
</linearGradient>
</defs>
</svg>
