<svg width="30" height="38" viewBox="0 0 30 38" fill="none" xmlns="http://www.w3.org/2000/svg">
<path d="M13.677 24.4996H16.323C16.532 24.4996 16.7195 24.4082 16.8855 24.2256C17.0515 24.0429 17.1077 23.8471 17.054 23.6381L15.9925 17.5956C16.6362 17.3419 17.1508 16.9499 17.5365 16.4196C17.9225 15.8892 18.1155 15.2941 18.1155 14.6341C18.1155 13.7761 17.8102 13.0424 17.1995 12.4331C16.5888 11.8237 15.8535 11.5191 14.9935 11.5191C14.1338 11.5191 13.4008 11.8237 12.7945 12.4331C12.1878 13.0424 11.8845 13.7761 11.8845 14.6341C11.8845 15.2941 12.0775 15.8892 12.4635 16.4196C12.8492 16.9499 13.3638 17.3419 14.0075 17.5956L12.946 23.6381C12.8923 23.8471 12.9485 24.0429 13.1145 24.2256C13.2805 24.4082 13.468 24.4996 13.677 24.4996ZM15 37.7416C14.8227 37.7416 14.6548 37.7249 14.4965 37.6916C14.3382 37.6582 14.1828 37.6082 14.0305 37.5416C9.70517 36.0006 6.28533 33.3174 3.771 29.4921C1.257 25.6664 0 21.4826 0 16.9406V7.68406C0 7.06473 0.174 6.50523 0.522 6.00556C0.870333 5.50623 1.32067 5.1479 1.873 4.93056L13.9885 0.426563C14.3422 0.293229 14.6793 0.226562 15 0.226562C15.3207 0.226562 15.6578 0.293229 16.0115 0.426563L28.127 4.93056C28.6793 5.1479 29.1297 5.50623 29.478 6.00556C29.826 6.50523 30 7.06473 30 7.68406V16.9406C30 21.4826 28.743 25.6664 26.229 29.4921C23.7147 33.3174 20.2948 36.0006 15.9695 37.5416C15.8172 37.6082 15.6618 37.6582 15.5035 37.6916C15.3452 37.7249 15.1773 37.7416 15 37.7416Z" fill="url(#paint0_linear_938_7924)"/>
<defs>
<linearGradient id="paint0_linear_938_7924" x1="15" y1="0.226562" x2="-9.34459" y2="30.2754" gradientUnits="userSpaceOnUse">
<stop stop-color="#01E1ED"/>
<stop offset="1" stop-color="#00B6C0"/>
</linearGradient>
</defs>
</svg>
