<svg width="42" height="26" viewBox="0 0 42 26" fill="none" xmlns="http://www.w3.org/2000/svg">
<path d="M20.596 20.904H21.854V19.323C22.7873 19.1923 23.579 18.8168 24.229 18.1965C24.879 17.5758 25.204 16.7757 25.204 15.796C25.204 14.947 24.8707 14.2367 24.204 13.665C23.5373 13.0933 22.7707 12.6242 21.904 12.2575V8.3845C22.263 8.47183 22.5668 8.63533 22.8155 8.875C23.0642 9.11467 23.2448 9.39483 23.3575 9.7155L24.9655 9.0425C24.7192 8.3935 24.3187 7.869 23.764 7.469C23.2093 7.069 22.5893 6.805 21.904 6.677V5.096H20.596V6.646C19.6627 6.74333 18.871 7.07534 18.221 7.642C17.571 8.20833 17.246 8.961 17.246 9.9C17.246 10.7743 17.5877 11.509 18.271 12.104C18.9543 12.6993 19.7293 13.1788 20.596 13.5425V17.627C20.0113 17.486 19.5262 17.2187 19.1405 16.825C18.7545 16.4313 18.4885 15.9678 18.3425 15.4345L16.7655 16.1075C17.0322 16.9962 17.4988 17.726 18.1655 18.297C18.8322 18.8683 19.6423 19.2207 20.596 19.354V20.904ZM21.904 17.596V14.046C22.321 14.2363 22.6907 14.4647 23.013 14.731C23.335 14.9977 23.496 15.3732 23.496 15.8575C23.496 16.4115 23.3467 16.8097 23.048 17.052C22.7493 17.2943 22.368 17.4757 21.904 17.596ZM20.596 11.704C20.191 11.5117 19.816 11.2828 19.471 11.0175C19.1263 10.7518 18.954 10.3793 18.954 9.9C18.954 9.4 19.1232 9.034 19.4615 8.802C19.7998 8.57 20.178 8.42067 20.596 8.354V11.704ZM13 26C9.37867 26 6.30667 24.739 3.784 22.217C1.26133 19.6953 0 16.6242 0 13.0035C0 9.38317 1.26133 6.31083 3.784 3.7865C6.30667 1.26217 9.37867 0 13 0H29C32.6213 0 35.6933 1.261 38.216 3.783C40.7387 6.30467 42 9.37583 42 12.9965C42 16.6168 40.7387 19.6892 38.216 22.2135C35.6933 24.7378 32.6213 26 29 26H13Z" fill="url(#paint0_linear_938_7892)"/>
<defs>
<linearGradient id="paint0_linear_938_7892" x1="42" y1="0" x2="26.3454" y2="37.7436" gradientUnits="userSpaceOnUse">
<stop stop-color="#5A46E3"/>
<stop offset="1" stop-color="#4533BE"/>
</linearGradient>
</defs>
</svg>
