<svg width="30" height="36" viewBox="0 0 30 36" fill="none" xmlns="http://www.w3.org/2000/svg">
<path d="M2.2695 18.0925V34.8655C2.2695 35.1868 2.15967 35.4562 1.94 35.6735C1.72067 35.8912 1.449 36 1.125 36C0.800667 36 0.532167 35.8912 0.3195 35.6735C0.1065 35.4562 0 35.1868 0 34.8655V1.4425C0 1.03383 0.138166 0.691166 0.4145 0.414499C0.691166 0.138166 1.03383 0 1.4425 0H27.669C27.933 0 28.1718 0.0606674 28.3855 0.182001C28.5988 0.303334 28.7627 0.468667 28.877 0.678C29.004 0.874333 29.08 1.099 29.105 1.352C29.1297 1.60467 29.0778 1.85067 28.9495 2.09L25.5075 9.046L28.9565 15.9975C29.0802 16.2578 29.1297 16.51 29.105 16.754C29.08 16.9977 29.004 17.2242 28.877 17.4335C28.7627 17.6302 28.5988 17.7892 28.3855 17.9105C28.1718 18.0318 27.933 18.0925 27.669 18.0925H2.2695Z" fill="url(#paint0_linear_938_7885)"/>
<defs>
<linearGradient id="paint0_linear_938_7885" x1="27.1263" y1="8.1249e-07" x2="-6.56605" y2="21.689" gradientUnits="userSpaceOnUse">
<stop stop-color="#DEA300"/>
<stop offset="1" stop-color="#FFD968"/>
</linearGradient>
</defs>
</svg>
