<svg width="35" height="40" viewBox="0 0 35 40" fill="none" xmlns="http://www.w3.org/2000/svg">
<path d="M0.666016 31.8112V16.5652C0.666016 15.8779 0.932016 15.3016 1.46402 14.8362C1.99602 14.3709 2.60568 14.1716 3.29302 14.2382C6.07002 14.5432 8.64435 15.3926 11.016 16.7862C13.3877 18.1799 15.6043 19.8319 17.666 21.7422C19.7277 19.8319 21.9443 18.1799 24.316 16.7862C26.6877 15.3926 29.262 14.5432 32.039 14.2382C32.7263 14.1716 33.336 14.3709 33.868 14.8362C34.4 15.3016 34.666 15.8779 34.666 16.5652V31.8112C34.666 32.3986 34.4667 32.9114 34.068 33.3497C33.6693 33.7881 33.1763 34.0342 32.589 34.0882C30.13 34.3266 27.789 34.9002 25.566 35.8092C23.343 36.7182 21.2493 37.9036 19.285 39.3652C19.044 39.5599 18.7845 39.7009 18.5065 39.7882C18.2282 39.8752 17.948 39.9187 17.666 39.9187C17.384 39.9187 17.1038 39.8752 16.8255 39.7882C16.5475 39.7009 16.288 39.5599 16.047 39.3652C14.0827 37.9036 11.9922 36.7182 9.77552 35.8092C7.55885 34.9002 5.21468 34.3266 2.74302 34.0882C2.15568 34.0342 1.66268 33.7881 1.26402 33.3497C0.865349 32.9114 0.666016 32.3986 0.666016 31.8112ZM17.7775 14.1302C15.8162 14.1302 14.1578 13.4559 12.8025 12.1072C11.4475 10.7586 10.77 9.09707 10.77 7.12274C10.77 5.1614 11.4475 3.50307 12.8025 2.14774C14.1578 0.792736 15.8162 0.115234 17.7775 0.115234C19.7392 0.115234 21.3975 0.792736 22.7525 2.14774C24.1075 3.50307 24.785 5.1614 24.785 7.12274C24.785 9.09707 24.1075 10.7586 22.7525 12.1072C21.3975 13.4559 19.7392 14.1302 17.7775 14.1302Z" fill="url(#paint0_linear_938_7954)"/>
<defs>
<linearGradient id="paint0_linear_938_7954" x1="32.3478" y1="0.115235" x2="-5.71104" y2="25.9952" gradientUnits="userSpaceOnUse">
<stop stop-color="#002FDF"/>
<stop offset="1" stop-color="#4D62B0"/>
</linearGradient>
</defs>
</svg>
