<svg width="38" height="36" viewBox="0 0 38 36" fill="none" xmlns="http://www.w3.org/2000/svg">
<path d="M7.154 36C6.47967 36 5.85183 35.7763 5.2705 35.329C4.68917 34.8817 4.30167 34.3373 4.108 33.696C3.27467 30.778 2.59183 28.307 2.0595 26.283C1.52717 24.2587 1.11017 22.5138 0.8085 21.0485C0.506833 19.5835 0.296667 18.3025 0.178 17.2055C0.0593332 16.1088 0 15.0403 0 14C0 11.212 0.969666 8.84833 2.909 6.909C4.84833 4.96967 7.212 4 10 4H20.5C21.4 2.8 22.5 1.83333 23.8 1.1C25.1 0.366667 26.5 0 28 0C28.5557 0 29.0278 0.194833 29.4165 0.5845C29.8055 0.973833 30 1.44683 30 2.0035C30 2.13717 29.9813 2.26867 29.944 2.398C29.907 2.52767 29.868 2.6565 29.827 2.7845C29.6807 3.17683 29.5397 3.60117 29.404 4.0575C29.268 4.51417 29.141 5.09367 29.023 5.796L34.227 11H36.5575C36.9665 11 37.3092 11.1382 37.5855 11.4145C37.8618 11.6908 38 12.0335 38 12.4425V22.1575C38 22.4892 37.9115 22.7823 37.7345 23.037C37.5575 23.2917 37.3088 23.4627 36.9885 23.55L32.546 25.0265L29.8805 33.927C29.6795 34.55 29.3293 35.0513 28.83 35.431C28.3307 35.8103 27.7527 36 27.096 36H22.8845C22.1012 36 21.4247 35.715 20.855 35.145C20.285 34.5753 20 33.8988 20 33.1155V32H14V33.1155C14 33.8988 13.715 34.5753 13.145 35.145C12.5753 35.715 11.8988 36 11.1155 36H7.154ZM27 16.769C27.4897 16.769 27.907 16.5967 28.252 16.252C28.5967 15.907 28.769 15.4897 28.769 15C28.769 14.5103 28.5967 14.093 28.252 13.748C27.907 13.4033 27.4897 13.231 27 13.231C26.5103 13.231 26.093 13.4033 25.748 13.748C25.4033 14.093 25.231 14.5103 25.231 15C25.231 15.4897 25.4033 15.907 25.748 16.252C26.093 16.5967 26.5103 16.769 27 16.769ZM19.8655 11.769C20.1872 11.769 20.4567 11.6595 20.674 11.4405C20.8913 11.2215 21 10.9497 21 10.625C21 10.3007 20.8913 10.0322 20.674 9.8195C20.4567 9.6065 20.1872 9.5 19.8655 9.5H12.1345C11.8128 9.5 11.5433 9.6095 11.326 9.8285C11.1087 10.0478 11 10.3197 11 10.644C11 10.9687 11.1087 11.2373 11.326 11.45C11.5433 11.6627 11.8128 11.769 12.1345 11.769H19.8655Z" fill="url(#paint0_linear_938_7901)"/>
<defs>
<linearGradient id="paint0_linear_938_7901" x1="19" y1="0" x2="-2.2935" y2="34.6926" gradientUnits="userSpaceOnUse">
<stop stop-color="#01E1ED"/>
<stop offset="1" stop-color="#00B6C0"/>
</linearGradient>
</defs>
</svg>
