<svg width="38" height="38" viewBox="0 0 38 38" fill="none" xmlns="http://www.w3.org/2000/svg">
<path d="M19.0035 38C16.3755 38 13.9053 37.5013 11.593 36.504C9.28067 35.5067 7.26933 34.1532 5.559 32.4435C3.84867 30.7338 2.4945 28.7233 1.4965 26.412C0.498833 24.1007 0 21.6312 0 19.0035C0 16.3755 0.498667 13.9053 1.496 11.593C2.49333 9.28067 3.84683 7.26933 5.5565 5.559C7.26617 3.84867 9.27667 2.4945 11.588 1.4965C13.8993 0.498833 16.3688 0 18.9965 0C21.6245 0 24.0947 0.498666 26.407 1.496C28.7193 2.49333 30.7307 3.84683 32.441 5.5565C34.1513 7.26617 35.5055 9.27667 36.5035 11.588C37.5012 13.8993 38 16.3688 38 18.9965C38 21.6245 37.5013 24.0947 36.504 26.407C35.5067 28.7193 34.1532 30.7307 32.4435 32.441C30.7338 34.1513 28.7233 35.5055 26.412 36.5035C24.1007 37.5012 21.6312 38 19.0035 38ZM18.998 35.7305C23.6683 35.7305 27.6247 34.11 30.867 30.869C34.1093 27.6277 35.7305 23.672 35.7305 19.002C35.7305 14.3317 34.11 10.3753 30.869 7.133C27.6277 3.89067 23.672 2.2695 19.002 2.2695C14.3317 2.2695 10.3753 3.89 7.133 7.131C3.89067 10.3723 2.2695 14.328 2.2695 18.998C2.2695 23.6683 3.89 27.6247 7.131 30.867C10.3723 34.1093 14.328 35.7305 18.998 35.7305ZM19.0045 30C15.9502 30 13.3525 28.931 11.2115 26.793C9.0705 24.655 8 22.0588 8 19.0045C8 15.9502 9.069 13.3525 11.207 11.2115C13.345 9.0705 15.9412 8 18.9955 8C22.0498 8 24.6475 9.069 26.7885 11.207C28.9295 13.345 30 15.9412 30 18.9955C30 22.0498 28.931 24.6475 26.793 26.7885C24.655 28.9295 22.0588 30 19.0045 30ZM18.997 27.7305C21.422 27.7305 23.4838 26.8822 25.1825 25.1855C26.8812 23.4888 27.7305 21.428 27.7305 19.003C27.7305 16.578 26.8822 14.5162 25.1855 12.8175C23.4888 11.1188 21.428 10.2695 19.003 10.2695C16.578 10.2695 14.5162 11.1178 12.8175 12.8145C11.1188 14.5112 10.2695 16.572 10.2695 18.997C10.2695 21.422 11.1178 23.4838 12.8145 25.1825C14.5112 26.8812 16.572 27.7305 18.997 27.7305ZM19 22C18.182 22 17.4775 21.7045 16.8865 21.1135C16.2955 20.5225 16 19.818 16 19C16 18.182 16.2955 17.4775 16.8865 16.8865C17.4775 16.2955 18.182 16 19 16C19.818 16 20.5225 16.2955 21.1135 16.8865C21.7045 17.4775 22 18.182 22 19C22 19.818 21.7045 20.5225 21.1135 21.1135C20.5225 21.7045 19.818 22 19 22Z" fill="url(#paint0_linear_938_7908)"/>
<defs>
<linearGradient id="paint0_linear_938_7908" x1="38" y1="-2.11111" x2="-1.13249e-06" y2="38" gradientUnits="userSpaceOnUse">
<stop stop-color="#F468AF"/>
<stop offset="1" stop-color="#D25F9A"/>
</linearGradient>
</defs>
</svg>
