<svg width="41" height="36" viewBox="0 0 41 36" fill="none" xmlns="http://www.w3.org/2000/svg">
<path d="M37.4495 12.2847C38.1905 12.2847 38.8565 12.5802 39.4475 13.1712C40.0385 13.7626 40.334 14.4287 40.334 15.1697V18.4812C40.334 18.7966 40.2987 19.1542 40.228 19.5542C40.1577 19.9542 40.0583 20.2991 39.93 20.5887L34.3415 33.6042C34.0545 34.2656 33.5788 34.8302 32.9145 35.2982C32.2505 35.7662 31.5545 36.0002 30.8265 36.0002H11.457C10.6623 36.0002 9.98282 35.7182 9.41848 35.1542C8.85448 34.5899 8.57248 33.9104 8.57248 33.1157V13.4657C8.57248 13.0991 8.64748 12.7387 8.79748 12.3847C8.94748 12.0311 9.14949 11.7209 9.40349 11.4542L19.6185 0.881225C19.9828 0.504225 20.4162 0.272059 20.9185 0.184726C21.4212 0.0977257 21.8917 0.17606 22.33 0.419726C22.7557 0.66306 23.075 1.02072 23.288 1.49272C23.5007 1.96439 23.5532 2.46556 23.4455 2.99622L21.5455 12.2847H37.4495ZM3.10698 36.0002C2.35332 36.0002 1.70265 35.7266 1.15498 35.1792C0.607651 34.6316 0.333984 33.9809 0.333984 33.2272V15.0582C0.333984 14.3169 0.607651 13.6694 1.15498 13.1157C1.70265 12.5617 2.35332 12.2847 3.10698 12.2847H3.53048C4.28415 12.2847 4.93465 12.5617 5.48198 13.1157C6.02965 13.6694 6.30348 14.3169 6.30348 15.0582V33.2462C6.30348 34.0002 6.02965 34.6477 5.48198 35.1887C4.93465 35.7297 4.28415 36.0002 3.53048 36.0002H3.10698Z" fill="url(#paint0_linear_938_7961)"/>
<defs>
<linearGradient id="paint0_linear_938_7961" x1="40.334" y1="-1.84126" x2="4.90694" y2="39.883" gradientUnits="userSpaceOnUse">
<stop stop-color="#F468AF"/>
<stop offset="1" stop-color="#D25F9A"/>
</linearGradient>
</defs>
</svg>
