<svg width="48" height="48" viewBox="0 0 48 48" fill="none" xmlns="http://www.w3.org/2000/svg">
<mask id="mask0_1061_9550" style="mask-type:alpha" maskUnits="userSpaceOnUse" x="0" y="0" width="48" height="48">
<rect width="48" height="48" fill="#D9D9D9"/>
</mask>
<g mask="url(#mask0_1061_9550)">
<path d="M13.8846 37.0792L12.4926 35.6868C10.6593 33.8278 9.32659 31.9277 8.49459 29.9867C7.66226 28.0457 7.24609 26.1239 7.24609 24.2212C7.24609 21.2036 8.02059 18.4344 9.56959 15.9137C11.1183 13.3934 13.1976 11.4461 15.8076 10.0717C16.0976 9.92275 16.3926 9.89125 16.6926 9.97725C16.9926 10.0632 17.2066 10.2511 17.3346 10.5408C17.4629 10.8178 17.4681 11.0979 17.3501 11.3813C17.2321 11.6646 17.0346 11.8806 16.7576 12.0292C14.5269 13.2086 12.7623 14.8892 11.4636 17.0712C10.1649 19.2536 9.51559 21.6369 9.51559 24.2212C9.51559 25.9546 9.82009 27.6059 10.4291 29.1752C11.0381 30.7446 12.0426 32.1817 13.4426 33.4867L15.4426 35.3752V30.3333C15.4426 30.0023 15.5489 29.7304 15.7616 29.5177C15.9746 29.3048 16.2464 29.1982 16.5771 29.1982C16.8951 29.1982 17.1636 29.3048 17.3826 29.5177C17.6019 29.7304 17.7116 30.0023 17.7116 30.3333V37.9062C17.7116 38.3266 17.5731 38.6721 17.2961 38.9427C17.0194 39.2131 16.6771 39.3482 16.2691 39.3482H8.69609C8.36543 39.3482 8.09376 39.2419 7.88109 39.0292C7.66809 38.8162 7.56159 38.5444 7.56159 38.2137C7.56159 37.8831 7.66809 37.6112 7.88109 37.3982C8.09376 37.1856 8.36543 37.0792 8.69609 37.0792H13.8846ZM32.5771 12.6292V17.6712C32.5771 18.0022 32.4674 18.2741 32.2481 18.4867C32.0288 18.6997 31.7603 18.8063 31.4426 18.8063C31.1116 18.8063 30.8398 18.6997 30.6271 18.4867C30.4141 18.2741 30.3076 18.0022 30.3076 17.6712V10.0982C30.3076 9.67791 30.4429 9.33242 30.7136 9.06175C30.9839 8.79142 31.3294 8.65625 31.7501 8.65625H39.3041C39.6348 8.65625 39.9064 8.76258 40.1191 8.97525C40.3321 9.18825 40.4386 9.46008 40.4386 9.79075C40.4386 10.1214 40.3321 10.3932 40.1191 10.6063C39.9064 10.8189 39.6348 10.9253 39.3041 10.9253H34.0846L35.5076 12.3177C37.1846 13.9331 38.4244 15.6254 39.2271 17.3947C40.0294 19.1637 40.4896 20.9086 40.6076 22.6292H38.3576C38.2269 21.0702 37.8584 19.6106 37.2521 18.2503C36.6458 16.8899 35.7541 15.6457 34.5771 14.5177L32.5771 12.6292ZM35.2691 43.8097C35.0821 43.8097 34.9219 43.7514 34.7886 43.6348C34.6553 43.5181 34.5719 43.3598 34.5386 43.1598L34.4346 41.8908C33.6653 41.7034 32.9403 41.4149 32.2596 41.0252C31.5789 40.6356 31.0154 40.1881 30.5691 39.6827L29.4731 40.2482C29.3064 40.3276 29.1314 40.3506 28.9481 40.3172C28.7648 40.2839 28.6296 40.1904 28.5426 40.0367L27.8961 39.0712C27.7834 38.9046 27.7438 38.7348 27.7771 38.5618C27.8104 38.3888 27.9039 38.2419 28.0576 38.1213L29.0811 37.3097C28.8374 36.4917 28.7156 35.7393 28.7156 35.0522C28.7156 34.3649 28.8374 33.6122 29.0811 32.7942L28.0576 31.9827C27.9039 31.8624 27.8104 31.7157 27.7771 31.5427C27.7438 31.3694 27.7834 31.1994 27.8961 31.0327L28.5426 30.0177C28.6296 29.8638 28.7648 29.7733 28.9481 29.7463C29.1314 29.7196 29.3064 29.7459 29.4731 29.8252L30.5691 30.3907C31.0154 29.9267 31.5789 29.4947 32.2596 29.0947C32.9403 28.6947 33.6653 28.4011 34.4346 28.2138L34.5386 26.9137C34.5719 26.7137 34.6553 26.5554 34.7886 26.4387C34.9219 26.3221 35.0821 26.2638 35.2691 26.2638H36.2076C36.3949 26.2638 36.5553 26.3221 36.6886 26.4387C36.8219 26.5554 36.9053 26.7137 36.9386 26.9137L37.0421 28.2138C37.8114 28.4011 38.5364 28.6947 39.2171 29.0947C39.8981 29.4947 40.4616 29.9202 40.9076 30.3713L42.0231 29.8252C42.1898 29.7459 42.3583 29.7196 42.5286 29.7463C42.6993 29.7733 42.8346 29.8638 42.9346 30.0177L43.5806 31.0327C43.6936 31.1994 43.7334 31.3661 43.7001 31.5327C43.6668 31.6994 43.5668 31.8494 43.4001 31.9827L42.3961 32.7942C42.6398 33.6122 42.7616 34.3617 42.7616 35.0427C42.7616 35.7234 42.6398 36.4791 42.3961 37.3097L43.4191 38.1213C43.5731 38.2419 43.6668 38.3888 43.7001 38.5618C43.7334 38.7348 43.6936 38.9046 43.5806 39.0712L42.9346 40.0367C42.8346 40.1904 42.6961 40.2839 42.5191 40.3172C42.3421 40.3506 42.1703 40.3276 42.0036 40.2482L40.9076 39.6827C40.4616 40.1881 39.8981 40.6356 39.2171 41.0252C38.5364 41.4149 37.8114 41.7034 37.0421 41.8908L36.9386 43.1598C36.9053 43.3598 36.8219 43.5181 36.6886 43.6348C36.5553 43.7514 36.3949 43.8097 36.2076 43.8097H35.2691ZM35.7231 39.9827C37.1258 39.9827 38.3008 39.5091 39.2481 38.5618C40.1954 37.6144 40.6691 36.4394 40.6691 35.0367C40.6691 33.6341 40.1954 32.4559 39.2481 31.5022C38.3008 30.5482 37.1258 30.0712 35.7231 30.0712C34.3078 30.0712 33.1264 30.5482 32.1791 31.5022C31.2314 32.4559 30.7576 33.6341 30.7576 35.0367C30.7576 36.4394 31.2314 37.6144 32.1791 38.5618C33.1264 39.5091 34.3078 39.9827 35.7231 39.9827Z" fill="white"/>
</g>
</svg>
