<svg width="48" height="48" viewBox="0 0 48 48" fill="none" xmlns="http://www.w3.org/2000/svg">
<mask id="mask0_934_8650" style="mask-type:alpha" maskUnits="userSpaceOnUse" x="0" y="0" width="48" height="48">
<rect width="48" height="48" fill="#D9D9D9"/>
</mask>
<g mask="url(#mask0_934_8650)">
<path d="M23.9995 28.5275L27.965 30.9465C28.2187 31.1132 28.4757 31.0965 28.736 30.8965C28.9964 30.6965 29.0932 30.4363 29.0265 30.116L27.9725 25.658L31.4725 22.6405C31.7289 22.4035 31.7987 22.1415 31.682 21.8545C31.5654 21.5672 31.3532 21.4069 31.0455 21.3735L26.457 20.993L24.6805 16.766C24.5485 16.4787 24.3219 16.335 24.0005 16.335C23.6792 16.335 23.4519 16.4787 23.3185 16.766L21.542 20.993L16.9535 21.3735C16.6459 21.4069 16.4337 21.5672 16.317 21.8545C16.2004 22.1415 16.2702 22.4035 16.5265 22.6405L20.0265 25.658L18.9725 30.116C18.9059 30.4363 19.0027 30.6965 19.263 30.8965C19.5234 31.0965 19.7804 31.1132 20.034 30.9465L23.9995 28.5275ZM17.7155 39.0005H11.884C11.0924 39.0005 10.4137 38.7177 9.84804 38.152C9.28237 37.5863 8.99954 36.9077 8.99954 36.116V30.2845L4.74604 26.0235C4.44604 25.7365 4.23254 25.4172 4.10554 25.0655C3.97854 24.7142 3.91504 24.3603 3.91504 24.004C3.91504 23.6477 3.97854 23.2927 4.10554 22.939C4.23254 22.585 4.44604 22.2645 4.74604 21.9775L8.99954 17.7165V11.885C8.99954 11.0933 9.28237 10.4147 9.84804 9.84901C10.4137 9.28335 11.0924 9.00052 11.884 9.00052H17.7155L21.9765 4.72751C22.2635 4.44051 22.588 4.23352 22.95 4.10652C23.3117 3.97952 23.6705 3.91602 24.0265 3.91602C24.3829 3.91602 24.738 3.98468 25.092 4.12202C25.4457 4.25902 25.7662 4.47751 26.0535 4.77751L30.2835 9.00052H36.115C36.9067 9.00052 37.5854 9.28335 38.151 9.84901C38.7167 10.4147 38.9995 11.0933 38.9995 11.885V17.7165L43.2725 21.9775C43.5595 22.2645 43.7665 22.5838 43.8935 22.9355C44.0205 23.2868 44.084 23.6407 44.084 23.997C44.084 24.3533 44.0205 24.7084 43.8935 25.062C43.7665 25.416 43.5595 25.7365 43.2725 26.0235L38.9995 30.2845V36.116C38.9995 36.9077 38.7167 37.5863 38.151 38.152C37.5854 38.7177 36.9067 39.0005 36.115 39.0005H30.2835L26.0535 43.1925C25.7662 43.4592 25.4469 43.6612 25.0955 43.7985C24.7439 43.9355 24.39 44.004 24.034 44.004C23.6777 44.004 23.3259 43.9355 22.9785 43.7985C22.6309 43.6612 22.3135 43.4592 22.0265 43.1925L17.7155 39.0005Z" fill="url(#paint0_linear_934_8650)"/>
</g>
<defs>
<linearGradient id="paint0_linear_934_8650" x1="44.084" y1="1.68891" x2="4.00049" y2="44.0848" gradientUnits="userSpaceOnUse">
<stop stop-color="#F468AF"/>
<stop offset="1" stop-color="#D25F9A"/>
</linearGradient>
</defs>
</svg>
