<svg width="48" height="48" viewBox="0 0 48 48" fill="none" xmlns="http://www.w3.org/2000/svg">
<mask id="mask0_934_8646" style="mask-type:alpha" maskUnits="userSpaceOnUse" x="0" y="0" width="48" height="48">
<rect width="48" height="48" fill="#D9D9D9"/>
</mask>
<g mask="url(#mask0_934_8646)">
<path d="M2.96582 39.7492V37.4762C2.96582 36.4712 3.20999 35.6353 3.69832 34.9687C4.18699 34.302 4.88249 33.748 5.78482 33.3067C7.52082 32.4657 9.38815 31.7812 11.3868 31.2532C13.3855 30.7248 15.531 30.4607 17.8233 30.4607C20.1157 30.4607 22.258 30.7248 24.2503 31.2532C26.2427 31.7812 28.1132 32.4657 29.8618 33.3067C30.7515 33.748 31.4438 34.302 31.9388 34.9687C32.4335 35.6353 32.6808 36.4712 32.6808 37.4762V39.7492C32.6808 40.1695 32.5425 40.515 32.2658 40.7857C31.9888 41.056 31.6465 41.1912 31.2388 41.1912H4.40832C3.98765 41.1912 3.64199 41.056 3.37132 40.7857C3.10099 40.515 2.96582 40.1695 2.96582 39.7492ZM17.8233 26.4992C15.867 26.4992 14.2722 25.8722 13.0388 24.6182C11.8055 23.3645 11.1888 21.7415 11.1888 19.7492H10.7273C10.4863 19.7492 10.2787 19.662 10.1043 19.4877C9.92999 19.3133 9.84282 19.1057 9.84282 18.8647C9.84282 18.6363 9.92999 18.4318 10.1043 18.2512C10.2787 18.0705 10.4863 17.9802 10.7273 17.9802H11.1888C11.2018 16.8518 11.4647 15.828 11.9773 14.9087C12.49 13.9897 13.2028 13.184 14.1158 12.4917V14.4222C14.1158 14.6095 14.1877 14.7717 14.3313 14.9087C14.4747 15.046 14.64 15.1147 14.8273 15.1147C15.035 15.1147 15.2023 15.046 15.3293 14.9087C15.456 14.7717 15.5193 14.6095 15.5193 14.4222V11.8417C15.786 11.762 16.14 11.6908 16.5813 11.6282C17.0223 11.5652 17.4467 11.5337 17.8543 11.5337C18.262 11.5337 18.6863 11.5652 19.1273 11.6282C19.5683 11.6908 19.9222 11.762 20.1888 11.8417V14.4222C20.1888 14.6095 20.2523 14.7717 20.3793 14.9087C20.506 15.046 20.6732 15.1147 20.8808 15.1147C21.0682 15.1147 21.2337 15.046 21.3773 14.9087C21.521 14.7717 21.5928 14.6095 21.5928 14.4222V12.4917C22.5182 13.184 23.2207 13.9897 23.7003 14.9087C24.1797 15.828 24.4322 16.8518 24.4578 17.9802H24.9193C25.1603 17.9802 25.368 18.0705 25.5423 18.2512C25.717 18.4318 25.8043 18.6363 25.8043 18.8647C25.8043 19.1057 25.717 19.3133 25.5423 19.4877C25.368 19.662 25.1603 19.7492 24.9193 19.7492H24.4578C24.4578 21.7415 23.838 23.3645 22.5983 24.6182C21.3587 25.8722 19.767 26.4992 17.8233 26.4992ZM17.8233 24.2302C19.1593 24.2302 20.2208 23.8263 21.0078 23.0187C21.7952 22.2107 22.1888 21.1593 22.1888 19.8647H13.4578C13.4578 21.1593 13.8515 22.2107 14.6388 23.0187C15.4258 23.8263 16.4873 24.2302 17.8233 24.2302ZM32.8928 28.9607L32.8618 28.3837C32.6158 28.276 32.3517 28.1325 32.0693 27.9532C31.7873 27.7735 31.5463 27.594 31.3463 27.4147L30.7193 27.7337C30.5247 27.8543 30.3287 27.8845 30.1313 27.8242C29.9337 27.7638 29.7643 27.6402 29.6233 27.4532L29.5928 27.3917C29.4388 27.184 29.3868 26.9678 29.4368 26.7432C29.4868 26.5188 29.6055 26.3362 29.7928 26.1952L30.3813 25.7952C30.3147 25.6492 30.278 25.5082 30.2713 25.3722C30.265 25.2362 30.2618 25.1015 30.2618 24.9682C30.2618 24.8222 30.265 24.6877 30.2713 24.5647C30.278 24.4417 30.3147 24.3007 30.3813 24.1417L29.7928 23.7222C29.6055 23.5812 29.4868 23.4068 29.4368 23.1992C29.3868 22.9915 29.4388 22.7838 29.5928 22.5762L29.6233 22.4647C29.7643 22.2903 29.9337 22.1698 30.1313 22.1032C30.3287 22.0365 30.5247 22.0633 30.7193 22.1837L31.3463 22.5032C31.5797 22.3235 31.829 22.1472 32.0943 21.9742C32.36 21.8012 32.6158 21.6543 32.8618 21.5337L32.8928 20.9262C32.9262 20.6978 33.0248 20.5068 33.1888 20.3532C33.3528 20.1992 33.549 20.1222 33.7773 20.1222H33.8578C34.0862 20.1222 34.2823 20.2042 34.4463 20.3682C34.6107 20.5325 34.7095 20.7352 34.7428 20.9762L34.7733 21.5337C35.0197 21.6543 35.2755 21.8012 35.5408 21.9742C35.8062 22.1472 36.0555 22.3235 36.2888 22.5032L36.9158 22.1837C37.1105 22.0633 37.3067 22.0365 37.5043 22.1032C37.7017 22.1698 37.8708 22.2903 38.0118 22.4647L38.0428 22.5262C38.1838 22.7338 38.2325 22.9498 38.1888 23.1742C38.1452 23.3985 38.0298 23.5812 37.8428 23.7222L37.2543 24.1417C37.321 24.3007 37.3543 24.4417 37.3543 24.5647V25.3722C37.3543 25.5082 37.321 25.6492 37.2543 25.7952L37.8428 26.1952C38.0298 26.3362 38.1452 26.5138 38.1888 26.7282C38.2325 26.9422 38.1838 27.153 38.0428 27.3607L38.0118 27.4532C37.8708 27.6402 37.7017 27.7638 37.5043 27.8242C37.3067 27.8845 37.1105 27.8543 36.9158 27.7337L36.2888 27.4147C36.0888 27.594 35.8478 27.7735 35.5658 27.9532C35.2838 28.1325 35.0197 28.276 34.7733 28.3837L34.7428 28.9917C34.7095 29.2327 34.6107 29.43 34.4463 29.5837C34.2823 29.7377 34.0862 29.8147 33.8578 29.8147H33.7773C33.549 29.8147 33.3528 29.7293 33.1888 29.5587C33.0248 29.3883 32.9262 29.189 32.8928 28.9607ZM33.8078 26.9067C34.3542 26.9067 34.817 26.7202 35.1963 26.3472C35.576 25.9742 35.7658 25.5145 35.7658 24.9682C35.7658 24.4222 35.576 23.9595 35.1963 23.5802C34.817 23.2005 34.3542 23.0107 33.8078 23.0107C33.2618 23.0107 32.8023 23.2005 32.4293 23.5802C32.056 23.9595 31.8693 24.4222 31.8693 24.9682C31.8693 25.5145 32.056 25.9742 32.4293 26.3472C32.8023 26.7202 33.2618 26.9067 33.8078 26.9067ZM38.0848 18.1297L37.9118 17.1952C37.5528 17.0875 37.1663 16.9042 36.7523 16.6452C36.338 16.3862 36.0142 16.1042 35.7808 15.7992L34.5733 16.2607C34.3913 16.3273 34.208 16.3305 34.0233 16.2702C33.8387 16.2098 33.6862 16.0925 33.5658 15.9182L33.4233 15.7337C33.3157 15.539 33.2837 15.3378 33.3273 15.1302C33.371 14.9222 33.48 14.7542 33.6543 14.6262L34.6193 13.9107C34.5527 13.7313 34.4943 13.532 34.4443 13.3127C34.3943 13.0933 34.3693 12.8773 34.3693 12.6647C34.3693 12.4647 34.3943 12.2518 34.4443 12.0262C34.4943 11.8005 34.5527 11.5978 34.6193 11.4182L33.6543 10.7222C33.48 10.5812 33.371 10.405 33.3273 10.1937C33.2837 9.98201 33.3157 9.78901 33.4233 9.61467L33.5658 9.44167C33.6862 9.28001 33.8387 9.16067 34.0233 9.08367C34.208 9.00701 34.3913 9.00201 34.5733 9.06867L35.7808 9.53017C36.0142 9.22484 36.338 8.93767 36.7523 8.66867C37.1663 8.39934 37.5528 8.22751 37.9118 8.15317L38.0848 7.21867C38.1388 7.03134 38.2363 6.87734 38.3773 6.75667C38.5183 6.63634 38.6823 6.57617 38.8693 6.57617H39.2158C39.3902 6.57617 39.5478 6.63634 39.6888 6.75667C39.8298 6.87734 39.9272 7.03134 39.9808 7.21867L40.1543 8.15317C40.5133 8.22751 40.8998 8.39934 41.3138 8.66867C41.7278 8.93767 42.058 9.22484 42.3043 9.53017L43.4928 9.06867C43.6748 9.00201 43.8582 8.99867 44.0428 9.05867C44.2272 9.11901 44.3797 9.23634 44.5003 9.41067L44.6423 9.61467C44.7503 9.80934 44.7825 10.0073 44.7388 10.2087C44.6952 10.41 44.5862 10.5812 44.4118 10.7222L43.4463 11.4182C43.513 11.5978 43.5713 11.8005 43.6213 12.0262C43.6713 12.2518 43.6963 12.4647 43.6963 12.6647C43.6963 12.8773 43.6713 13.0933 43.6213 13.3127C43.5713 13.532 43.513 13.7313 43.4463 13.9107L44.4118 14.6262C44.5862 14.7542 44.6952 14.9272 44.7388 15.1452C44.7825 15.3632 44.7503 15.5593 44.6423 15.7337L44.5003 15.8877C44.3797 16.062 44.2272 16.1843 44.0428 16.2547C43.8582 16.3253 43.6748 16.3273 43.4928 16.2607L42.3043 15.7992C42.058 16.1042 41.7278 16.3862 41.3138 16.6452C40.8998 16.9042 40.5133 17.0875 40.1543 17.1952L39.9808 18.1297C39.9272 18.3043 39.8298 18.455 39.6888 18.5817C39.5478 18.7087 39.3902 18.7722 39.2158 18.7722H38.8693C38.6823 18.7722 38.5183 18.7087 38.3773 18.5817C38.2363 18.455 38.1388 18.3043 38.0848 18.1297ZM39.0428 15.5837C39.8762 15.5837 40.5678 15.3087 41.1178 14.7587C41.6678 14.2087 41.9428 13.5107 41.9428 12.6647C41.9428 11.8313 41.6678 11.1397 41.1178 10.5897C40.5678 10.0397 39.8762 9.76467 39.0428 9.76467C38.1965 9.76467 37.4983 10.0397 36.9483 10.5897C36.3983 11.1397 36.1233 11.8313 36.1233 12.6647C36.1233 13.5107 36.3983 14.2087 36.9483 14.7587C37.4983 15.3087 38.1965 15.5837 39.0428 15.5837Z" fill="url(#paint0_linear_934_8646)"/>
</g>
<defs>
<linearGradient id="paint0_linear_934_8646" x1="44.7577" y1="6.57617" x2="19.77" y2="51.6037" gradientUnits="userSpaceOnUse">
<stop stop-color="#5A46E3"/>
<stop offset="1" stop-color="#4533BE"/>
</linearGradient>
</defs>
</svg>
