<svg width="48" height="48" viewBox="0 0 48 48" fill="none" xmlns="http://www.w3.org/2000/svg">
<mask id="mask0_934_8634" style="mask-type:alpha" maskUnits="userSpaceOnUse" x="0" y="0" width="48" height="48">
<rect width="48" height="48" fill="#D9D9D9"/>
</mask>
<g mask="url(#mask0_934_8634)">
<path d="M24 22.1885C26.4127 22.1885 28.4557 21.3417 30.129 19.648C31.802 17.954 32.6385 15.9022 32.6385 13.4925V7.2695H15.3615V13.4925C15.3615 15.9052 16.198 17.9577 17.871 19.65C19.5443 21.3423 21.5873 22.1885 24 22.1885ZM10.1345 43C9.81317 43 9.54383 42.8903 9.3265 42.671C9.10883 42.4517 9 42.1798 9 41.8555C9 41.5312 9.10883 41.2627 9.3265 41.05C9.54383 40.837 9.81317 40.7305 10.1345 40.7305H13.0925V34.477C13.0925 31.9693 13.8488 29.7392 15.3615 27.7865C16.8745 25.8338 18.8335 24.5717 21.2385 24C18.8335 23.395 16.8745 22.113 15.3615 20.154C13.8488 18.195 13.0925 15.9745 13.0925 13.4925V7.2695H10.1345C9.81317 7.2695 9.54383 7.15967 9.3265 6.94C9.10883 6.72067 9 6.449 9 6.125C9 5.80067 9.10883 5.53217 9.3265 5.3195C9.54383 5.1065 9.81317 5 10.1345 5H37.8655C38.1868 5 38.4562 5.10967 38.6735 5.329C38.8912 5.54833 39 5.82017 39 6.1445C39 6.46883 38.8912 6.73733 38.6735 6.95C38.4562 7.163 38.1868 7.2695 37.8655 7.2695H34.9075V13.4925C34.9075 15.9745 34.1512 18.195 32.6385 20.154C31.1255 22.113 29.1665 23.395 26.7615 24C29.1665 24.5717 31.1255 25.8338 32.6385 27.7865C34.1512 29.7392 34.9075 31.9693 34.9075 34.477V40.7305H37.8655C38.1868 40.7305 38.4562 40.8403 38.6735 41.06C38.8912 41.2793 39 41.551 39 41.875C39 42.1993 38.8912 42.4678 38.6735 42.6805C38.4562 42.8935 38.1868 43 37.8655 43H10.1345Z" fill="url(#paint0_linear_934_8634)"/>
</g>
<defs>
<linearGradient id="paint0_linear_934_8634" x1="36.9545" y1="5" x2="1.75025" y2="27.125" gradientUnits="userSpaceOnUse">
<stop stop-color="#002FDF"/>
<stop offset="1" stop-color="#4D62B0"/>
</linearGradient>
</defs>
</svg>
