<svg width="48" height="48" viewBox="0 0 48 48" fill="none" xmlns="http://www.w3.org/2000/svg">
<mask id="mask0_934_8766" style="mask-type:alpha" maskUnits="userSpaceOnUse" x="0" y="0" width="48" height="48">
<rect width="48" height="48" fill="#D9D9D9"/>
</mask>
<g mask="url(#mask0_934_8766)">
<path d="M20.908 39.3263V34.4453C20.908 34.2453 20.938 34.0653 20.998 33.9053C21.0584 33.745 21.1655 33.5878 21.3195 33.4338L35.508 19.2263C35.731 19.0033 35.9892 18.8412 36.2825 18.7398C36.5762 18.6385 36.8615 18.5878 37.1385 18.5878C37.4155 18.5878 37.6957 18.6437 37.979 18.7553C38.2624 18.8667 38.5155 19.0275 38.7385 19.2378L42.304 22.7838C42.5397 23.0068 42.7114 23.2683 42.819 23.5683C42.9267 23.8683 42.987 24.1633 43 24.4533C43.0127 24.743 42.9684 25.0263 42.867 25.3033C42.766 25.58 42.591 25.8427 42.342 26.0913L28.127 40.3378C27.973 40.4915 27.8127 40.6017 27.646 40.6683C27.4794 40.735 27.3025 40.7683 27.1155 40.7683H22.35C21.9297 40.7683 21.5842 40.6332 21.3135 40.3628C21.0432 40.0922 20.908 39.7467 20.908 39.3263ZM37.523 27.7493L40.7305 24.4418L37.1655 20.8188L33.8695 24.0953L37.523 27.7493ZM10.7695 42.2298C9.38486 42.2298 8.20536 41.7427 7.23103 40.7683C6.2567 39.794 5.76953 38.6145 5.76953 37.2298C5.76953 36.0352 6.13353 34.9878 6.86153 34.0878C7.58986 33.1878 8.5142 32.6097 9.63453 32.3533V15.6453C8.5142 15.389 7.58986 14.8108 6.86153 13.9108C6.13353 13.0108 5.76953 11.9635 5.76953 10.7688C5.76953 9.38418 6.2567 8.20468 7.23103 7.23034C8.20536 6.25601 9.38486 5.76884 10.7695 5.76884C11.9642 5.76884 13.0115 6.13284 13.9115 6.86084C14.8115 7.58918 15.3897 8.51351 15.646 9.63384H24.4345L20.7 5.91884C20.464 5.69551 20.346 5.43201 20.346 5.12834C20.346 4.82434 20.464 4.55451 20.7 4.31884C20.936 4.08284 21.2027 3.96484 21.5 3.96484C21.7974 3.96484 22.064 4.08284 22.3 4.31884L27.769 9.75734C28.0564 10.0443 28.2 10.3815 28.2 10.7688C28.2 11.1558 28.0564 11.493 27.769 11.7803L22.3 17.2188C22.077 17.4085 21.8135 17.5117 21.5095 17.5283C21.2059 17.545 20.936 17.4418 20.7 17.2188C20.464 16.9828 20.346 16.7162 20.346 16.4188C20.346 16.1212 20.464 15.8545 20.7 15.6188L24.4345 11.9033H15.646C15.4307 12.829 14.9845 13.6302 14.3075 14.3068C13.6309 14.9838 12.8297 15.43 11.904 15.6453V32.3533C13.0244 32.6097 13.9487 33.1878 14.677 34.0878C15.405 34.9878 15.769 36.0352 15.769 37.2298C15.769 38.6145 15.2819 39.794 14.3075 40.7683C13.3332 41.7427 12.1539 42.2298 10.7695 42.2298ZM37.2305 5.76884C38.6152 5.76884 39.7947 6.25601 40.769 7.23034C41.7434 8.20468 42.2305 9.38418 42.2305 10.7688C42.2305 12.1532 41.7434 13.3325 40.769 14.3068C39.7947 15.2812 38.6152 15.7683 37.2305 15.7683C35.8462 15.7683 34.6669 15.2812 33.6925 14.3068C32.7182 13.3325 32.231 12.1532 32.231 10.7688C32.231 9.38418 32.7182 8.20468 33.6925 7.23034C34.6669 6.25601 35.8462 5.76884 37.2305 5.76884Z" fill="url(#paint0_linear_934_8766)"/>
</g>
<defs>
<linearGradient id="paint0_linear_934_8766" x1="43.0021" y1="1.83901" x2="4.69487" y2="41.1835" gradientUnits="userSpaceOnUse">
<stop stop-color="#F468AF"/>
<stop offset="1" stop-color="#D25F9A"/>
</linearGradient>
</defs>
</svg>
