<svg width="48" height="48" viewBox="0 0 48 48" fill="none" xmlns="http://www.w3.org/2000/svg">
<mask id="mask0_934_8780" style="mask-type:alpha" maskUnits="userSpaceOnUse" x="0" y="0" width="48" height="48">
<rect width="48" height="48" fill="#D9D9D9"/>
</mask>
<g mask="url(#mask0_934_8780)">
<path d="M13.7268 25.1537C14.5934 23.0331 15.6268 21.0311 16.8268 19.1477C18.0268 17.2644 19.3729 15.4639 20.8653 13.7462L17.2268 13.0342C16.6241 12.9139 16.0299 12.9409 15.4443 13.1152C14.8583 13.2896 14.3576 13.5909 13.9423 14.0192L7.64226 20.3497C7.28826 20.7037 7.15809 21.1326 7.25176 21.6362C7.34542 22.1402 7.62559 22.4857 8.09226 22.6727L13.7268 25.1537ZM40.6688 6.25373C37.3048 6.12806 34.1196 6.76906 31.1133 8.17673C28.1069 9.58439 25.3999 11.4921 22.9923 13.8997C21.4409 15.4511 20.0684 17.1076 18.8748 18.8692C17.6811 20.6306 16.6741 22.5216 15.8538 24.5422C15.7204 24.8626 15.6538 25.1894 15.6538 25.5227C15.6538 25.8561 15.7806 26.1432 16.0343 26.3842L22.0923 32.4227C22.3333 32.6767 22.6171 32.8069 22.9438 32.8132C23.2708 32.8196 23.5946 32.7561 23.9153 32.6227C25.9356 31.8357 27.8266 30.8339 29.5883 29.6172C31.3496 28.4006 33.0059 27.0166 34.5573 25.4652C36.9649 23.0576 38.8778 20.3506 40.2958 17.3442C41.7138 14.3376 42.3599 11.1522 42.2343 7.78823C42.2136 7.60123 42.1649 7.41923 42.0883 7.24223C42.0113 7.06523 41.8958 6.8999 41.7418 6.74623C41.5881 6.59223 41.4259 6.4799 41.2553 6.40923C41.0849 6.3389 40.8894 6.28706 40.6688 6.25373ZM28.7228 19.7342C28.1201 19.1319 27.8188 18.3902 27.8188 17.5092C27.8188 16.6286 28.1201 15.8869 28.7228 15.2842C29.3254 14.6819 30.0671 14.3807 30.9478 14.3807C31.8284 14.3807 32.5701 14.6819 33.1728 15.2842C33.7754 15.8869 34.0768 16.6286 34.0768 17.5092C34.0768 18.3902 33.7754 19.1319 33.1728 19.7342C32.5701 20.3369 31.8284 20.6382 30.9478 20.6382C30.0671 20.6382 29.3254 20.3369 28.7228 19.7342ZM23.3343 34.7302L25.7653 40.3652C25.9523 40.8522 26.3028 41.1374 26.8168 41.2207C27.3311 41.3041 27.7651 41.1689 28.1188 40.8152L34.4188 34.5152C34.8471 34.0869 35.1484 33.5797 35.3228 32.9937C35.4971 32.4081 35.5239 31.8139 35.4033 31.2112L34.7228 27.5922C33.0178 29.0842 31.2203 30.4302 29.3303 31.6302C27.4406 32.8302 25.4419 33.8636 23.3343 34.7302ZM9.19576 32.1957C10.1704 31.2214 11.3533 30.7324 12.7443 30.7287C14.1353 30.7247 15.3179 31.2099 16.2923 32.1842C17.2666 33.1586 17.7538 34.3412 17.7538 35.7322C17.7538 37.1232 17.2666 38.3059 16.2923 39.2802C14.9356 40.6369 13.3356 41.4619 11.4923 41.7552C9.64859 42.0489 7.79342 42.3072 5.92676 42.5302C6.14976 40.6509 6.41642 38.7926 6.72676 36.9552C7.03709 35.1182 7.86009 33.5317 9.19576 32.1957Z" fill="url(#paint0_linear_934_8780)"/>
</g>
<defs>
<linearGradient id="paint0_linear_934_8780" x1="24.0882" y1="6.23828" x2="24.0882" y2="42.5302" gradientUnits="userSpaceOnUse">
<stop stop-color="#5C9DFF"/>
<stop offset="1" stop-color="#375E99"/>
</linearGradient>
</defs>
</svg>
