<svg width="48" height="48" viewBox="0 0 48 48" fill="none" xmlns="http://www.w3.org/2000/svg">
<mask id="mask0_934_8642" style="mask-type:alpha" maskUnits="userSpaceOnUse" x="0" y="0" width="48" height="48">
<rect width="48" height="48" fill="#D9D9D9"/>
</mask>
<g mask="url(#mask0_934_8642)">
<path d="M12.154 41C11.4797 41 10.8518 40.7763 10.2705 40.329C9.68917 39.8817 9.30167 39.3373 9.108 38.696C8.27467 35.778 7.59183 33.307 7.0595 31.283C6.52717 29.2587 6.11017 27.5138 5.8085 26.0485C5.50683 24.5835 5.29667 23.3025 5.178 22.2055C5.05933 21.1088 5 20.0403 5 19C5 16.212 5.96967 13.8483 7.909 11.909C9.84833 9.96967 12.212 9 15 9H25.5C26.4 7.8 27.5 6.83333 28.8 6.1C30.1 5.36667 31.5 5 33 5C33.5557 5 34.0278 5.19483 34.4165 5.5845C34.8055 5.97383 35 6.44683 35 7.0035C35 7.13717 34.9813 7.26867 34.944 7.398C34.907 7.52767 34.868 7.6565 34.827 7.7845C34.6807 8.17683 34.5397 8.60117 34.404 9.0575C34.268 9.51417 34.141 10.0937 34.023 10.796L39.227 16H41.5575C41.9665 16 42.3092 16.1382 42.5855 16.4145C42.8618 16.6908 43 17.0335 43 17.4425V27.1575C43 27.4892 42.9115 27.7823 42.7345 28.037C42.5575 28.2917 42.3088 28.4627 41.9885 28.55L37.546 30.0265L34.8805 38.927C34.6795 39.55 34.3293 40.0513 33.83 40.431C33.3307 40.8103 32.7527 41 32.096 41H27.8845C27.1012 41 26.4247 40.715 25.855 40.145C25.285 39.5753 25 38.8988 25 38.1155V37H19V38.1155C19 38.8988 18.715 39.5753 18.145 40.145C17.5753 40.715 16.8988 41 16.1155 41H12.154ZM32 21.769C32.4897 21.769 32.907 21.5967 33.252 21.252C33.5967 20.907 33.769 20.4897 33.769 20C33.769 19.5103 33.5967 19.093 33.252 18.748C32.907 18.4033 32.4897 18.231 32 18.231C31.5103 18.231 31.093 18.4033 30.748 18.748C30.4033 19.093 30.231 19.5103 30.231 20C30.231 20.4897 30.4033 20.907 30.748 21.252C31.093 21.5967 31.5103 21.769 32 21.769ZM24.8655 16.769C25.1872 16.769 25.4567 16.6595 25.674 16.4405C25.8913 16.2215 26 15.9497 26 15.625C26 15.3007 25.8913 15.0322 25.674 14.8195C25.4567 14.6065 25.1872 14.5 24.8655 14.5H17.1345C16.8128 14.5 16.5433 14.6095 16.326 14.8285C16.1087 15.0478 16 15.3197 16 15.644C16 15.9687 16.1087 16.2373 16.326 16.45C16.5433 16.6627 16.8128 16.769 17.1345 16.769H24.8655Z" fill="url(#paint0_linear_934_8642)"/>
</g>
<defs>
<linearGradient id="paint0_linear_934_8642" x1="24" y1="5" x2="2.7065" y2="39.6926" gradientUnits="userSpaceOnUse">
<stop stop-color="#01E1ED"/>
<stop offset="1" stop-color="#00B6C0"/>
</linearGradient>
</defs>
</svg>
