<svg width="48" height="48" viewBox="0 0 48 48" fill="none" xmlns="http://www.w3.org/2000/svg">
<mask id="mask0_875_6013" style="mask-type:alpha" maskUnits="userSpaceOnUse" x="0" y="0" width="48" height="48">
<rect width="48" height="48" fill="#D9D9D9"/>
</mask>
<g mask="url(#mask0_875_6013)">
<path d="M24 15.2695C21.577 15.2695 19.5162 16.1188 17.8175 17.8175C16.1188 19.5162 15.2695 21.577 15.2695 24C15.2695 25.8873 15.8175 27.5898 16.9135 29.1075C18.0095 30.6255 19.4512 31.682 21.2385 32.277C21.5692 32.3923 21.8223 32.5885 21.998 32.8655C22.1737 33.1422 22.2205 33.446 22.1385 33.777C22.0642 34.0537 21.9103 34.2748 21.677 34.4405C21.4437 34.6058 21.1822 34.6577 20.8925 34.596C18.5385 33.9063 16.6347 32.5813 15.181 30.621C13.727 28.6607 13 26.4537 13 24C13 20.9487 14.0705 18.3525 16.2115 16.2115C18.3525 14.0705 20.9487 13 24 13C26.441 13 28.6365 13.7237 30.5865 15.171C32.5365 16.6187 33.8563 18.5193 34.546 20.873C34.6203 21.15 34.5768 21.4115 34.4155 21.6575C34.2538 21.9038 34.0282 22.0577 33.7385 22.119C33.4078 22.214 33.1072 22.1705 32.8365 21.9885C32.5658 21.8065 32.3728 21.5502 32.2575 21.2195C31.6628 19.4322 30.6065 17.9937 29.0885 16.904C27.5705 15.8143 25.8743 15.2695 24 15.2695ZM24 7.2695C19.3437 7.2695 15.3912 8.89383 12.1425 12.1425C8.89383 15.3912 7.2695 19.3437 7.2695 24C7.2695 28.6873 8.85083 32.6078 12.0135 35.7615C15.1762 38.9155 19.0678 40.5617 23.6885 40.7C24.0192 40.7203 24.291 40.8422 24.504 41.0655C24.7167 41.2885 24.823 41.559 24.823 41.877C24.823 42.187 24.7115 42.4465 24.4885 42.6555C24.2655 42.8645 23.9988 42.969 23.6885 42.969C21.0655 42.941 18.6207 42.4193 16.354 41.404C14.0873 40.3883 12.1142 39.019 10.4345 37.296C8.75517 35.573 7.42967 33.566 6.458 31.275C5.486 28.984 5 26.559 5 24C5 21.3743 5.49933 18.9058 6.498 16.5945C7.49667 14.2828 8.85117 12.2718 10.5615 10.5615C12.2718 8.85117 14.2828 7.49667 16.5945 6.498C18.9058 5.49933 21.3743 5 24 5C29.1383 5 33.562 6.79483 37.271 10.3845C40.98 13.9745 42.8793 18.4028 42.969 23.6695C42.969 23.9795 42.8678 24.239 42.6655 24.448C42.4628 24.657 42.2063 24.7718 41.896 24.7925C41.578 24.8128 41.3043 24.7133 41.075 24.494C40.8453 24.275 40.7267 24.0002 40.719 23.6695C40.527 19.0925 38.8648 15.2148 35.7325 12.0365C32.6005 8.8585 28.6897 7.2695 24 7.2695ZM38.7925 41.769L31.2115 34.2L29.769 38.596C29.6357 38.9497 29.3922 39.1215 29.0385 39.1115C28.6845 39.1012 28.4575 38.919 28.3575 38.565L24.381 25.2925C24.3143 25.0052 24.3777 24.7647 24.571 24.571C24.7647 24.3777 25.0052 24.3143 25.2925 24.381L38.5845 28.3575C38.9255 28.4575 39.1012 28.6845 39.1115 29.0385C39.1215 29.3922 38.956 29.6293 38.615 29.75L34.2 31.2115L41.8 38.7925C42.2257 39.2178 42.4385 39.7138 42.4385 40.2805C42.4385 40.8472 42.2257 41.3433 41.8 41.769C41.3743 42.1947 40.873 42.4075 40.296 42.4075C39.719 42.4075 39.2178 42.1947 38.7925 41.769Z" fill="#002FDF"/>
</g>
</svg>
