<svg width="48" height="48" viewBox="0 0 48 48" fill="none" xmlns="http://www.w3.org/2000/svg">
<mask id="mask0_878_6113" style="mask-type:alpha" maskUnits="userSpaceOnUse" x="0" y="0" width="48" height="48">
<rect width="48" height="48" fill="#D9D9D9"/>
</mask>
<g mask="url(#mask0_878_6113)">
<path d="M16.2613 38.7682C15.6536 38.7682 15.1235 38.542 14.6708 38.0897C14.2185 37.637 13.9923 37.1068 13.9923 36.4992V33.6722C13.9923 33.2518 14.1308 32.9063 14.4078 32.6357C14.6845 32.3653 15.0266 32.2302 15.4343 32.2302H19.9228V25.3797C18.7228 25.5697 17.5126 25.5032 16.2923 25.1802C15.0716 24.8568 13.9818 24.3118 13.0228 23.5452C12.8561 23.3915 12.726 23.223 12.6323 23.0397C12.539 22.8563 12.4923 22.6543 12.4923 22.4337V20.0992H10.3423C10.1423 20.0992 9.96214 20.0658 9.80181 19.9992C9.64147 19.9325 9.48447 19.8158 9.33081 19.6492L4.87281 15.1917C4.55247 14.871 4.40697 14.4922 4.43631 14.0552C4.46597 13.6178 4.65764 13.2723 5.01131 13.0187C6.06531 12.2673 7.25697 11.6768 8.58631 11.2472C9.91597 10.8178 11.2256 10.6032 12.5153 10.6032C13.682 10.6032 14.9358 10.7935 16.2768 11.1742C17.6178 11.5548 18.8331 12.1593 19.9228 12.9877V12.0952C19.9228 11.2618 20.2145 10.5503 20.7978 9.96067C21.3811 9.37101 22.096 9.07617 22.9423 9.07617H38.1153C38.91 9.07617 39.5895 9.35817 40.1538 9.92217C40.7178 10.4865 40.9998 11.166 40.9998 11.9607V34.3067C40.9998 35.5553 40.5683 36.6112 39.7053 37.4742C38.8426 38.3368 37.7933 38.7682 36.5573 38.7682H16.2613ZM22.1923 32.2302H32.9613C33.3563 32.2302 33.689 32.3653 33.9593 32.6357C34.23 32.9063 34.3653 33.239 34.3653 33.6337V34.3067C34.3653 34.9477 34.5705 35.4733 34.9808 35.8837C35.3908 36.294 35.9163 36.4992 36.5573 36.4992C37.1856 36.4992 37.705 36.294 38.1153 35.8837C38.5253 35.4733 38.7303 34.9477 38.7303 34.3067V11.9607C38.7303 11.7813 38.6726 11.634 38.5573 11.5187C38.442 11.403 38.2946 11.3452 38.1153 11.3452H22.8073C22.628 11.3452 22.4806 11.403 22.3653 11.5187C22.25 11.634 22.1923 11.7813 22.1923 11.9607V14.7532L33.3688 25.9492C33.5715 26.1388 33.6863 26.3433 33.7133 26.5627C33.7403 26.782 33.7166 26.9928 33.6423 27.1952C33.5676 27.3978 33.4393 27.5683 33.2573 27.7067C33.0753 27.8453 32.8523 27.9147 32.5883 27.9147C32.4266 27.9147 32.2798 27.8908 32.1478 27.8432C32.0158 27.7958 31.8856 27.7082 31.7573 27.5802L25.7538 21.5952L24.6538 22.7877C24.2588 23.2363 23.8671 23.5843 23.4788 23.8317C23.0901 24.0793 22.6613 24.3133 22.1923 24.5337V32.2302ZM10.7843 17.8302H13.3188C13.7265 17.8302 14.0688 17.9653 14.3458 18.2357C14.6228 18.5063 14.7613 18.8518 14.7613 19.2722V22.0302C15.405 22.4478 16.0275 22.7517 16.6288 22.9417C17.2301 23.1313 17.8205 23.2262 18.3998 23.2262C19.2845 23.2262 20.1601 23.0075 21.0268 22.5702C21.8935 22.1332 22.5653 21.6557 23.0423 21.1377L24.1228 19.9647L20.4998 16.3417C19.4075 15.2363 18.1818 14.3818 16.8228 13.7782C15.4638 13.1742 14.028 12.8722 12.5153 12.8722C11.5256 12.8722 10.6 13.0062 9.73831 13.2742C8.87664 13.5422 8.05614 13.8852 7.27681 14.3032L10.7843 17.8302Z" fill="url(#paint0_linear_878_6113)"/>
</g>
<defs>
<linearGradient id="paint0_linear_878_6113" x1="40.9998" y1="7.42662" x2="12.2591" y2="44.7887" gradientUnits="userSpaceOnUse">
<stop stop-color="#F468AF"/>
<stop offset="1" stop-color="#D25F9A"/>
</linearGradient>
</defs>
</svg>
