<svg width="48" height="48" viewBox="0 0 48 48" fill="none" xmlns="http://www.w3.org/2000/svg">
<mask id="mask0_865_6595" style="mask-type:alpha" maskUnits="userSpaceOnUse" x="0" y="0" width="48" height="48">
<rect width="48" height="48" fill="#D9D9D9"/>
</mask>
<g mask="url(#mask0_865_6595)">
<path d="M7.8845 35C7.10017 35 6.42333 34.7153 5.854 34.146C5.28467 33.5767 5 32.8977 5 32.109V15.891C5 15.1023 5.28467 14.4233 5.854 13.854C6.42333 13.2847 7.10017 13 7.8845 13H40.1155C40.8998 13 41.5767 13.2847 42.146 13.854C42.7153 14.4233 43 15.1023 43 15.891V32.109C43 32.8977 42.7153 33.5767 42.146 34.146C41.5767 34.7153 40.8998 35 40.1155 35H7.8845ZM14.8655 25.1345V28.873C14.8655 29.1947 14.9752 29.4642 15.1945 29.6815C15.4138 29.8988 15.6857 30.0075 16.01 30.0075C16.334 30.0075 16.6025 29.8988 16.8155 29.6815C17.0282 29.4642 17.1345 29.1947 17.1345 28.873V25.1345H20.873C21.1947 25.1345 21.4642 25.0248 21.6815 24.8055C21.8988 24.5862 22.0075 24.3143 22.0075 23.99C22.0075 23.666 21.8988 23.3975 21.6815 23.1845C21.4642 22.9718 21.1947 22.8655 20.873 22.8655H17.1345V19.127C17.1345 18.8053 17.0248 18.5358 16.8055 18.3185C16.5862 18.1012 16.3143 17.9925 15.99 17.9925C15.666 17.9925 15.3975 18.1012 15.1845 18.3185C14.9718 18.5358 14.8655 18.8053 14.8655 19.127V22.8655H11.127C10.8053 22.8655 10.5358 22.9752 10.3185 23.1945C10.1012 23.4138 9.9925 23.6857 9.9925 24.01C9.9925 24.334 10.1012 24.6025 10.3185 24.8155C10.5358 25.0282 10.8053 25.1345 11.127 25.1345H14.8655ZM29.4745 29.3575C29.9992 29.3575 30.4545 29.1653 30.8405 28.781C31.2262 28.3967 31.419 27.939 31.419 27.408C31.419 26.877 31.2268 26.4185 30.8425 26.0325C30.4582 25.6468 30.0037 25.454 29.479 25.454C28.9547 25.454 28.4963 25.6462 28.104 26.0305C27.7117 26.4148 27.5155 26.8725 27.5155 27.4035C27.5155 27.9345 27.7122 28.393 28.1055 28.779C28.4992 29.1647 28.9555 29.3575 29.4745 29.3575ZM34.3785 22.5155C34.9032 22.5155 35.3583 22.3233 35.744 21.939C36.13 21.5543 36.323 21.0965 36.323 20.5655C36.323 20.0348 36.1308 19.5765 35.7465 19.1905C35.3622 18.8045 34.9077 18.6115 34.383 18.6115C33.8583 18.6115 33.3998 18.8037 33.0075 19.188C32.6155 19.5723 32.4195 20.03 32.4195 20.561C32.4195 21.092 32.6162 21.5505 33.0095 21.9365C33.4028 22.3225 33.8592 22.5155 34.3785 22.5155Z" fill="white"/>
</g>
</svg>
