<svg width="48" height="48" viewBox="0 0 48 48" fill="none" xmlns="http://www.w3.org/2000/svg">
<mask id="mask0_865_6580" style="mask-type:alpha" maskUnits="userSpaceOnUse" x="0" y="0" width="48" height="48">
<rect width="48" height="48" fill="#D9D9D9"/>
</mask>
<g mask="url(#mask0_865_6580)">
<path d="M33.2927 20L39.0077 16.731C39.2617 16.5937 39.3887 16.3875 39.3887 16.1125C39.3887 15.8375 39.2617 15.6232 39.0077 15.4695L33.2927 12.2C33.0827 12.0797 32.8449 12.0195 32.5792 12.0195C32.3136 12.0195 32.0706 12.0797 31.8502 12.2L26.1542 15.4695C25.9002 15.6065 25.7732 15.8125 25.7732 16.0875C25.7732 16.3625 25.9002 16.577 26.1542 16.731L31.8502 20C32.0599 20.1207 32.2976 20.181 32.5632 20.181C32.8289 20.181 33.0721 20.1207 33.2927 20ZM33.2927 25.927L37.1962 23.6845C37.4086 23.5735 37.5834 23.4037 37.7207 23.175C37.8584 22.946 37.9272 22.7018 37.9272 22.4425V19.4L33.2927 22.0925C33.0827 22.2258 32.8449 22.2925 32.5792 22.2925C32.3136 22.2925 32.0706 22.2258 31.8502 22.0925L27.2347 19.4V22.4425C27.2347 22.7018 27.3002 22.946 27.4312 23.175C27.5626 23.4037 27.7342 23.5735 27.9462 23.6845L31.8502 25.927C32.0599 26.0473 32.2976 26.1075 32.5632 26.1075C32.8289 26.1075 33.0721 26.0473 33.2927 25.927ZM30.7042 39C30.3599 39 30.0699 38.8713 29.8342 38.614C29.5986 38.357 29.4681 38.0548 29.4427 37.7075C29.3094 34.7255 28.6612 31.9077 27.4982 29.254C26.3356 26.6 24.7857 24.2413 22.8487 22.178C20.9114 20.1147 18.6639 18.4185 16.1062 17.0895C13.5486 15.7605 10.7952 14.9293 7.84623 14.596C7.03856 14.496 6.36756 14.1868 5.83323 13.6685C5.29856 13.1502 5.03123 12.4918 5.03123 11.6935C5.03123 10.9082 5.30873 10.263 5.86373 9.758C6.41906 9.25267 7.09656 9 7.89623 9H40.1462C40.9456 9 41.6262 9.28417 42.1882 9.8525C42.7499 10.4208 43.0307 11.0982 43.0307 11.8845V36.1155C43.0307 36.9018 42.7499 37.5792 42.1882 38.1475C41.6262 38.7158 40.9456 39 40.1462 39H30.7042ZM15.4497 39C15.1484 39 14.8896 38.9003 14.6732 38.701C14.4569 38.5013 14.3249 38.2407 14.2772 37.919C14.0286 35.7347 13.1382 33.8693 11.6062 32.323C10.0739 30.777 8.22573 29.8732 6.06173 29.6115C5.77206 29.5705 5.52789 29.4377 5.32923 29.213C5.13056 28.988 5.03123 28.7273 5.03123 28.431C5.03123 28.1103 5.13373 27.8385 5.33873 27.6155C5.54373 27.3925 5.79123 27.2912 6.08123 27.3115C8.88623 27.5732 11.2727 28.7033 13.2407 30.702C15.2087 32.7007 16.3209 35.1025 16.5772 37.9075C16.6182 38.2108 16.5221 38.4687 16.2887 38.681C16.0554 38.8937 15.7757 39 15.4497 39ZM23.2427 39C22.9324 39 22.6657 38.8827 22.4427 38.648C22.2194 38.4133 22.0976 38.1345 22.0772 37.8115C21.7619 33.5115 20.1106 29.8423 17.1232 26.804C14.1362 23.7653 10.5029 22.0948 6.22323 21.7925C5.89256 21.7848 5.61123 21.6685 5.37923 21.4435C5.14723 21.2188 5.03123 20.9502 5.03123 20.6375C5.03123 20.3125 5.17406 20.0437 5.45973 19.831C5.74573 19.618 6.07073 19.5218 6.43473 19.5425C11.2731 19.8805 15.3904 21.7772 18.7867 25.2325C22.1827 28.6878 24.0424 32.8488 24.3657 37.7155C24.3734 38.0795 24.2687 38.3845 24.0517 38.6305C23.8347 38.8768 23.5651 39 23.2427 39ZM6.63573 39C6.16339 39 5.76756 38.8348 5.44823 38.5045C5.12923 38.1742 4.96973 37.7793 4.96973 37.32C4.96973 36.8603 5.13156 36.4678 5.45523 36.1425C5.77923 35.8168 6.17739 35.654 6.64973 35.654C7.10906 35.654 7.50156 35.8192 7.82723 36.1495C8.15289 36.4798 8.31573 36.8747 8.31573 37.334C8.31573 37.7933 8.15056 38.1858 7.82023 38.5115C7.48989 38.8372 7.09506 39 6.63573 39Z" fill="white"/>
</g>
</svg>
