<svg width="48" height="48" viewBox="0 0 48 48" fill="none" xmlns="http://www.w3.org/2000/svg">
<mask id="mask0_865_6620" style="mask-type:alpha" maskUnits="userSpaceOnUse" x="0" y="0" width="48" height="48">
<rect width="48" height="48" fill="#D9D9D9"/>
</mask>
<g mask="url(#mask0_865_6620)">
<path d="M18.1001 23.0423L22.6771 18.4653L18.5231 14.3113L16.9231 15.9308C16.7001 16.1538 16.4366 16.2653 16.1326 16.2653C15.829 16.2653 15.5591 16.1538 15.3231 15.9308C15.0875 15.6948 14.9696 15.4282 14.9696 15.1308C14.9696 14.8332 15.0875 14.5665 15.3231 14.3308L16.9426 12.7308L12.7691 8.58833L8.19263 13.1653L18.1001 23.0423ZM34.7846 39.7883L39.3616 35.1808L35.1886 31.0073L33.5886 32.6268C33.3656 32.8498 33.099 32.9613 32.7886 32.9613C32.4783 32.9613 32.2116 32.8498 31.9886 32.6268C31.7526 32.3908 31.6346 32.1242 31.6346 31.8268C31.6346 31.5295 31.7526 31.2628 31.9886 31.0268L33.5886 29.4268L29.5041 25.3228L24.9271 29.8998L34.7846 39.7883ZM30.5501 13.8268L34.1846 17.4808L38.7306 12.9343L35.0961 9.29983L30.5501 13.8268ZM8.44263 40.9998C8.02196 40.9998 7.67646 40.8645 7.40613 40.5938C7.13546 40.3235 7.00013 39.978 7.00013 39.5573V34.6843C7.00013 34.4843 7.03346 34.3042 7.10013 34.1438C7.1668 33.9838 7.27713 33.8268 7.43113 33.6728L16.4696 24.6343L6.33113 14.4958C5.94113 14.1062 5.7513 13.6627 5.76163 13.1653C5.77196 12.668 5.9618 12.2243 6.33113 11.8343L11.3886 6.69583C11.7783 6.30616 12.2218 6.11133 12.7191 6.11133C13.2168 6.11133 13.6605 6.30616 14.0501 6.69583L24.2886 16.8843L33.5156 7.65783C33.7513 7.42183 34.0076 7.25316 34.2846 7.15183C34.5616 7.05049 34.845 6.99983 35.1346 6.99983C35.4116 6.99983 35.6886 7.05049 35.9656 7.15183C36.2423 7.25316 36.4986 7.42183 36.7346 7.65783L40.3421 11.3228C40.5781 11.5588 40.7436 11.8153 40.8386 12.0923C40.9333 12.369 40.9806 12.6458 40.9806 12.9228C40.9806 13.2125 40.9333 13.4927 40.8386 13.7633C40.7436 14.0337 40.5781 14.2868 40.3421 14.5228L31.1541 23.7113L41.3041 33.8998C41.6938 34.2895 41.8886 34.7363 41.8886 35.2403C41.8886 35.744 41.6938 36.1843 41.3041 36.5613L36.2156 41.6383C35.8256 42.028 35.3788 42.2228 34.8751 42.2228C34.3711 42.2228 33.9308 42.028 33.5541 41.6383L23.3961 31.4998L14.3271 40.5688C14.1731 40.7228 14.0161 40.8332 13.8561 40.8998C13.6958 40.9665 13.5156 40.9998 13.3156 40.9998H8.44263Z" fill="white"/>
</g>
</svg>
