<svg width="48" height="48" viewBox="0 0 48 48" fill="none" xmlns="http://www.w3.org/2000/svg">
<mask id="mask0_865_6610" style="mask-type:alpha" maskUnits="userSpaceOnUse" x="0" y="0" width="48" height="48">
<rect width="48" height="48" fill="#D9D9D9"/>
</mask>
<g mask="url(#mask0_865_6610)">
<path d="M41 34.3079L26.05 22.5964C25.396 22.0887 24.6665 21.89 23.8615 22.0004C23.0565 22.1107 22.4103 22.503 21.923 23.1774L16.5575 30.5814C16.3038 30.9224 15.975 31.121 15.571 31.1774C15.1673 31.2337 14.8117 31.1285 14.504 30.8619L7 24.8544V18.8854C7 18.2774 7.26217 17.8434 7.7865 17.5834C8.31083 17.323 8.81667 17.3697 9.304 17.7234L14.231 21.4234L22.4195 9.94685C22.8938 9.27219 23.5432 8.87469 24.3675 8.75436C25.1918 8.63369 25.9245 8.83752 26.5655 9.36586L33.654 15.0004H38.1155C38.9102 15.0004 39.5897 15.2824 40.154 15.8464C40.718 16.4107 41 17.0902 41 17.8849V34.3079ZM7 39.0004V27.7429L13.7885 33.1929C14.4295 33.7005 15.159 33.8992 15.977 33.7889C16.795 33.6785 17.4475 33.2862 17.9345 32.6119L23.281 25.2274C23.5347 24.8734 23.8602 24.6745 24.2575 24.6309C24.6552 24.5875 25.0142 24.6927 25.3345 24.9464L41 37.1659V39.0004H7Z" fill="white"/>
</g>
</svg>
