<svg width="48" height="48" viewBox="0 0 48 48" fill="none" xmlns="http://www.w3.org/2000/svg">
<mask id="mask0_865_6600" style="mask-type:alpha" maskUnits="userSpaceOnUse" x="0" y="0" width="48" height="48">
<rect width="48" height="48" fill="#D9D9D9"/>
</mask>
<g mask="url(#mask0_865_6600)">
<path d="M13.8846 37.0773L12.4926 35.6848C10.6593 33.8258 9.32659 31.9258 8.49459 29.9848C7.66226 28.0438 7.24609 26.122 7.24609 24.2193C7.24609 21.2016 8.02059 18.4325 9.56959 15.9118C11.1183 13.3915 13.1976 11.4441 15.8076 10.0698C16.0976 9.9208 16.3926 9.8893 16.6926 9.9753C16.9926 10.0613 17.2066 10.2491 17.3346 10.5388C17.4629 10.8158 17.4681 11.096 17.3501 11.3793C17.2321 11.6626 17.0346 11.8786 16.7576 12.0273C14.5269 13.2066 12.7623 14.8873 11.4636 17.0693C10.1649 19.2516 9.51559 21.635 9.51559 24.2193C9.51559 25.9526 9.82009 27.604 10.4291 29.1733C11.0381 30.7426 12.0426 32.1798 13.4426 33.4848L15.4426 35.3733V30.3313C15.4426 30.0003 15.5489 29.7285 15.7616 29.5158C15.9746 29.3028 16.2464 29.1963 16.5771 29.1963C16.8951 29.1963 17.1636 29.3028 17.3826 29.5158C17.6019 29.7285 17.7116 30.0003 17.7116 30.3313V37.9043C17.7116 38.3246 17.5731 38.6701 17.2961 38.9408C17.0194 39.2111 16.6771 39.3463 16.2691 39.3463H8.69609C8.36543 39.3463 8.09376 39.24 7.88109 39.0273C7.66809 38.8143 7.56159 38.5425 7.56159 38.2118C7.56159 37.8811 7.66809 37.6093 7.88109 37.3963C8.09376 37.1836 8.36543 37.0773 8.69609 37.0773H13.8846ZM32.5771 12.6273V17.6693C32.5771 18.0003 32.4674 18.2721 32.2481 18.4848C32.0288 18.6978 31.7603 18.8043 31.4426 18.8043C31.1116 18.8043 30.8398 18.6978 30.6271 18.4848C30.4141 18.2721 30.3076 18.0003 30.3076 17.6693V10.0963C30.3076 9.67596 30.4429 9.33046 30.7136 9.0598C30.9839 8.78946 31.3294 8.6543 31.7501 8.6543H39.3041C39.6348 8.6543 39.9064 8.76063 40.1191 8.9733C40.3321 9.1863 40.4386 9.45813 40.4386 9.7888C40.4386 10.1195 40.3321 10.3913 40.1191 10.6043C39.9064 10.817 39.6348 10.9233 39.3041 10.9233H34.0846L35.5076 12.3158C37.1846 13.9311 38.4244 15.6235 39.2271 17.3928C40.0294 19.1618 40.4896 20.9066 40.6076 22.6273H38.3576C38.2269 21.0683 37.8584 19.6086 37.2521 18.2483C36.6458 16.888 35.7541 15.6438 34.5771 14.5158L32.5771 12.6273ZM35.2691 43.8078C35.0821 43.8078 34.9219 43.7495 34.7886 43.6328C34.6553 43.5161 34.5719 43.3578 34.5386 43.1578L34.4346 41.8888C33.6653 41.7015 32.9403 41.413 32.2596 41.0233C31.5789 40.6336 31.0154 40.1861 30.5691 39.6808L29.4731 40.2463C29.3064 40.3256 29.1314 40.3486 28.9481 40.3153C28.7648 40.282 28.6296 40.1885 28.5426 40.0348L27.8961 39.0693C27.7834 38.9026 27.7438 38.7328 27.7771 38.5598C27.8104 38.3868 27.9039 38.24 28.0576 38.1193L29.0811 37.3078C28.8374 36.4898 28.7156 35.7373 28.7156 35.0503C28.7156 34.363 28.8374 33.6103 29.0811 32.7923L28.0576 31.9808C27.9039 31.8605 27.8104 31.7138 27.7771 31.5408C27.7438 31.3675 27.7834 31.1975 27.8961 31.0308L28.5426 30.0158C28.6296 29.8618 28.7648 29.7713 28.9481 29.7443C29.1314 29.7176 29.3064 29.744 29.4731 29.8233L30.5691 30.3888C31.0154 29.9248 31.5789 29.4928 32.2596 29.0928C32.9403 28.6928 33.6653 28.3991 34.4346 28.2118L34.5386 26.9118C34.5719 26.7118 34.6553 26.5535 34.7886 26.4368C34.9219 26.3201 35.0821 26.2618 35.2691 26.2618H36.2076C36.3949 26.2618 36.5553 26.3201 36.6886 26.4368C36.8219 26.5535 36.9053 26.7118 36.9386 26.9118L37.0421 28.2118C37.8114 28.3991 38.5364 28.6928 39.2171 29.0928C39.8981 29.4928 40.4616 29.9183 40.9076 30.3693L42.0231 29.8233C42.1898 29.744 42.3583 29.7176 42.5286 29.7443C42.6993 29.7713 42.8346 29.8618 42.9346 30.0158L43.5806 31.0308C43.6936 31.1975 43.7334 31.3641 43.7001 31.5308C43.6668 31.6975 43.5668 31.8475 43.4001 31.9808L42.3961 32.7923C42.6398 33.6103 42.7616 34.3598 42.7616 35.0408C42.7616 35.7215 42.6398 36.4771 42.3961 37.3078L43.4191 38.1193C43.5731 38.24 43.6668 38.3868 43.7001 38.5598C43.7334 38.7328 43.6936 38.9026 43.5806 39.0693L42.9346 40.0348C42.8346 40.1885 42.6961 40.282 42.5191 40.3153C42.3421 40.3486 42.1703 40.3256 42.0036 40.2463L40.9076 39.6808C40.4616 40.1861 39.8981 40.6336 39.2171 41.0233C38.5364 41.413 37.8114 41.7015 37.0421 41.8888L36.9386 43.1578C36.9053 43.3578 36.8219 43.5161 36.6886 43.6328C36.5553 43.7495 36.3949 43.8078 36.2076 43.8078H35.2691ZM35.7231 39.9808C37.1258 39.9808 38.3008 39.5071 39.2481 38.5598C40.1954 37.6125 40.6691 36.4375 40.6691 35.0348C40.6691 33.6321 40.1954 32.454 39.2481 31.5003C38.3008 30.5463 37.1258 30.0693 35.7231 30.0693C34.3078 30.0693 33.1264 30.5463 32.1791 31.5003C31.2314 32.454 30.7576 33.6321 30.7576 35.0348C30.7576 36.4375 31.2314 37.6125 32.1791 38.5598C33.1264 39.5071 34.3078 39.9808 35.7231 39.9808Z" fill="white"/>
</g>
</svg>
