<svg width="48" height="48" viewBox="0 0 48 48" fill="none" xmlns="http://www.w3.org/2000/svg">
<mask id="mask0_865_6558" style="mask-type:alpha" maskUnits="userSpaceOnUse" x="0" y="0" width="48" height="48">
<rect width="48" height="48" fill="#D9D9D9"/>
</mask>
<g mask="url(#mask0_865_6558)">
<path d="M21.8999 26.1319L18.6539 22.9164C18.3769 22.6394 18.0339 22.4977 17.6249 22.4914C17.2159 22.4851 16.8563 22.6369 16.5459 22.9469C16.2563 23.2369 16.1114 23.5882 16.1114 24.0009C16.1114 24.4136 16.2563 24.7649 16.5459 25.0549L20.6344 29.1434C20.9961 29.5047 21.4179 29.6854 21.8999 29.6854C22.3819 29.6854 22.8038 29.5047 23.1654 29.1434L31.4539 20.8549C31.7513 20.5572 31.8979 20.2091 31.8939 19.8104C31.8903 19.4117 31.7436 19.0572 31.4539 18.7469C31.1436 18.4369 30.7871 18.2767 30.3844 18.2664C29.9821 18.2561 29.6258 18.4061 29.3154 18.7164L21.8999 26.1319ZM16.8194 42.3664L14.0539 37.7164L8.82293 36.5929C8.37427 36.5059 8.01593 36.2701 7.74793 35.8854C7.47993 35.5007 7.37293 35.0841 7.42693 34.6354L7.93843 29.2549L4.38093 25.1854C4.07327 24.8574 3.91943 24.4626 3.91943 24.0009C3.91943 23.5392 4.07327 23.1444 4.38093 22.8164L7.93843 18.7469L7.42693 13.3664C7.37293 12.9177 7.47993 12.5011 7.74793 12.1164C8.01593 11.7317 8.37427 11.4959 8.82293 11.4089L14.0539 10.2854L16.8194 5.63541C17.0604 5.24074 17.3886 4.97158 17.8039 4.82791C18.2193 4.68424 18.6411 4.70608 19.0694 4.89341L23.9999 6.97791L28.9304 4.89341C29.3588 4.70608 29.7806 4.68424 30.1959 4.82791C30.6113 4.97158 30.9394 5.24074 31.1804 5.63541L33.9459 10.2854L39.1769 11.4089C39.6256 11.4959 39.9839 11.7317 40.2519 12.1164C40.5199 12.5011 40.6269 12.9177 40.5729 13.3664L40.0614 18.7469L43.6189 22.8164C43.9266 23.1444 44.0804 23.5392 44.0804 24.0009C44.0804 24.4626 43.9266 24.8574 43.6189 25.1854L40.0614 29.2549L40.5729 34.6354C40.6269 35.0841 40.5199 35.5007 40.2519 35.8854C39.9839 36.2701 39.6256 36.5059 39.1769 36.5929L33.9459 37.7164L31.1804 42.3664C30.9394 42.7611 30.6113 43.0302 30.1959 43.1739C29.7806 43.3176 29.3588 43.2957 28.9304 43.1084L23.9999 41.0239L19.0694 43.1084C18.6411 43.2957 18.2193 43.3176 17.8039 43.1739C17.3886 43.0302 17.0604 42.7611 16.8194 42.3664Z" fill="url(#paint0_linear_865_6558)"/>
</g>
<defs>
<linearGradient id="paint0_linear_865_6558" x1="44.0804" y1="4.73438" x2="14.259" y2="51.1243" gradientUnits="userSpaceOnUse">
<stop stop-color="#5A46E3"/>
<stop offset="1" stop-color="#4533BE"/>
</linearGradient>
</defs>
</svg>
