<svg width="48" height="48" viewBox="0 0 48 48" fill="none" xmlns="http://www.w3.org/2000/svg">
<mask id="mask0_878_6159" style="mask-type:alpha" maskUnits="userSpaceOnUse" x="0" y="0" width="48" height="48">
<rect width="48" height="48" fill="#D9D9D9"/>
</mask>
<g mask="url(#mask0_878_6159)">
<path d="M9.74976 8.75391H38.3308C38.6521 8.75391 38.9214 8.86357 39.1388 9.0829C39.3564 9.30224 39.4653 9.57391 39.4653 9.89791C39.4653 10.2222 39.3564 10.4909 39.1388 10.7039C38.9214 10.9166 38.6521 11.0229 38.3308 11.0229H9.74976C9.42843 11.0229 9.15893 10.9132 8.94126 10.6939C8.72393 10.4746 8.61526 10.2027 8.61526 9.87841C8.61526 9.55441 8.72393 9.28591 8.94126 9.07291C9.15893 8.86024 9.42843 8.75391 9.74976 8.75391ZM10.3073 39.2769C9.89859 39.2769 9.55609 39.1386 9.27976 38.8619C9.00343 38.5856 8.86526 38.2431 8.86526 37.8344V27.1039H7.59576C7.14343 27.1039 6.77009 26.9237 6.47576 26.5634C6.18143 26.2031 6.09076 25.7961 6.20376 25.3424L8.34576 15.8959C8.41643 15.5542 8.58476 15.2784 8.85076 15.0684C9.11676 14.8587 9.41893 14.7539 9.75726 14.7539H38.2923C38.6136 14.7539 38.9083 14.8587 39.1763 15.0684C39.4443 15.2784 39.6201 15.5542 39.7038 15.8959L41.8458 25.3424C41.9458 25.7904 41.8534 26.1959 41.5688 26.5589C41.2838 26.9222 40.9121 27.1039 40.4538 27.1039H39.1653V38.1424C39.1653 38.4637 39.0556 38.7331 38.8363 38.9504C38.6169 39.1681 38.3451 39.2769 38.0208 39.2769C37.6964 39.2769 37.4279 39.1681 37.2153 38.9504C37.0023 38.7331 36.8958 38.4637 36.8958 38.1424V27.1039H27.2153V37.8344C27.2153 38.2431 27.0739 38.5856 26.7913 38.8619C26.5086 39.1386 26.1691 39.2769 25.7728 39.2769H10.3073ZM11.1343 37.0074H24.9458V27.1039H11.1343V37.0074Z" fill="url(#paint0_linear_878_6159)"/>
</g>
<defs>
<linearGradient id="paint0_linear_878_6159" x1="41.8848" y1="8.75391" x2="19.4949" y2="47.8702" gradientUnits="userSpaceOnUse">
<stop stop-color="#5A46E3"/>
<stop offset="1" stop-color="#4533BE"/>
</linearGradient>
</defs>
</svg>
