<svg width="24" height="24" viewBox="0 0 24 24" fill="none" xmlns="http://www.w3.org/2000/svg">
<mask id="mask0_1064_9785" style="mask-type:alpha" maskUnits="userSpaceOnUse" x="0" y="0" width="24" height="24">
<rect width="24" height="24" fill="#D9D9D9"/>
</mask>
<g mask="url(#mask0_1064_9785)">
<path d="M10.9502 13.066L9.32721 11.4582C9.18871 11.3197 9.01721 11.2489 8.81271 11.2457C8.60821 11.2425 8.42838 11.3185 8.27321 11.4735C8.12838 11.6185 8.05596 11.7941 8.05596 12.0005C8.05596 12.2068 8.12838 12.3825 8.27321 12.5275L10.3175 14.5717C10.4983 14.7524 10.7092 14.8427 10.9502 14.8427C11.1912 14.8427 11.4021 14.7524 11.583 14.5717L15.7272 10.4275C15.8759 10.2786 15.9492 10.1045 15.9472 9.90521C15.9454 9.70587 15.872 9.52862 15.7272 9.37346C15.572 9.21845 15.3938 9.13837 15.1925 9.13321C14.9913 9.12804 14.8131 9.20304 14.658 9.35821L10.9502 13.066ZM8.40996 21.1832L7.02721 18.8582L4.41171 18.2965C4.18738 18.253 4.00821 18.135 3.87421 17.9427C3.74021 17.7504 3.68671 17.542 3.71371 17.3177L3.96946 14.6275L2.19071 12.5927C2.03688 12.4287 1.95996 12.2313 1.95996 12.0005C1.95996 11.7696 2.03688 11.5722 2.19071 11.4082L3.96946 9.37346L3.71371 6.68321C3.68671 6.45887 3.74021 6.25054 3.87421 6.05821C4.00821 5.86587 4.18738 5.74796 4.41171 5.70446L7.02721 5.14271L8.40996 2.81771C8.53046 2.62037 8.69454 2.48579 8.90221 2.41396C9.10988 2.34212 9.32079 2.35304 9.53496 2.44671L12.0002 3.48896L14.4655 2.44671C14.6796 2.35304 14.8905 2.34212 15.0982 2.41396C15.3059 2.48579 15.47 2.62037 15.5905 2.81771L16.9732 5.14271L19.5887 5.70446C19.813 5.74796 19.9922 5.86587 20.1262 6.05821C20.2602 6.25054 20.3137 6.45887 20.2867 6.68321L20.031 9.37346L21.8097 11.4082C21.9635 11.5722 22.0405 11.7696 22.0405 12.0005C22.0405 12.2313 21.9635 12.4287 21.8097 12.5927L20.031 14.6275L20.2867 17.3177C20.3137 17.542 20.2602 17.7504 20.1262 17.9427C19.9922 18.135 19.813 18.253 19.5887 18.2965L16.9732 18.8582L15.5905 21.1832C15.47 21.3805 15.3059 21.5151 15.0982 21.587C14.8905 21.6588 14.6796 21.6479 14.4655 21.5542L12.0002 20.512L9.53496 21.5542C9.32079 21.6479 9.10988 21.6588 8.90221 21.587C8.69454 21.5151 8.53046 21.3805 8.40996 21.1832Z" fill="url(#paint0_linear_1064_9785)"/>
</g>
<defs>
<linearGradient id="paint0_linear_1064_9785" x1="20.6713" y1="2.36719" x2="1.20245" y2="18.5205" gradientUnits="userSpaceOnUse">
<stop stop-color="#002FDF"/>
<stop offset="1" stop-color="#4D62B0"/>
</linearGradient>
</defs>
</svg>
