<svg width="48" height="48" viewBox="0 0 48 48" fill="none" xmlns="http://www.w3.org/2000/svg">
<mask id="mask0_875_5923" style="mask-type:alpha" maskUnits="userSpaceOnUse" x="0" y="0" width="48" height="48">
<rect width="48" height="48" fill="#D9D9D9"/>
</mask>
<g mask="url(#mask0_875_5923)">
<path d="M19.2695 13H28.7305V8.885C28.7305 8.70533 28.6728 8.55783 28.5575 8.4425C28.4422 8.32717 28.2948 8.2695 28.1155 8.2695H19.8845C19.7052 8.2695 19.5578 8.32717 19.4425 8.4425C19.3272 8.55783 19.2695 8.70533 19.2695 8.885V13ZM36 44.746C33.5973 44.746 31.539 43.889 29.825 42.175C28.111 40.461 27.254 38.4027 27.254 36C27.254 33.5973 28.111 31.539 29.825 29.825C31.539 28.111 33.5973 27.254 36 27.254C38.4027 27.254 40.461 28.111 42.175 29.825C43.889 31.539 44.746 33.5973 44.746 36C44.746 38.4027 43.889 40.461 42.175 42.175C40.461 43.889 38.4027 44.746 36 44.746ZM7.8845 41C7.10017 41 6.42333 40.7153 5.854 40.146C5.28467 39.5767 5 38.8998 5 38.1155V15.8845C5 15.1002 5.28467 14.4233 5.854 13.854C6.42333 13.2847 7.10017 13 7.8845 13H17V8.885C17 8.11833 17.2847 7.44583 17.854 6.8675C18.4233 6.28917 19.1002 6 19.8845 6H28.1155C28.8998 6 29.5767 6.28917 30.146 6.8675C30.7153 7.44583 31 8.11833 31 8.885V13H40.1155C40.8998 13 41.5767 13.2847 42.146 13.854C42.7153 14.4233 43 15.1002 43 15.8845V24.35C43 24.791 42.8185 25.1115 42.4555 25.3115C42.0925 25.5115 41.7163 25.5142 41.327 25.3195C40.5013 24.8808 39.6372 24.5487 38.7345 24.323C37.8318 24.0973 36.9203 23.9845 36 23.9845C32.7017 23.9845 29.8745 25.1625 27.5185 27.5185C25.1625 29.8745 23.9845 32.7017 23.9845 36C23.9845 36.6203 24.0237 37.2017 24.102 37.744C24.1803 38.2863 24.3207 38.8203 24.523 39.346C24.6383 39.7667 24.5793 40.1475 24.346 40.4885C24.1127 40.8295 23.782 41 23.354 41H7.8845ZM36.0095 41.2C36.2905 41.2 36.5328 41.1063 36.7365 40.919C36.9405 40.732 37.0425 40.4847 37.0425 40.177C37.0425 39.8693 36.9405 39.6187 36.7365 39.425C36.5328 39.2313 36.2905 39.1345 36.0095 39.1345C35.6955 39.1345 35.4417 39.2313 35.248 39.425C35.0543 39.6187 34.9575 39.8693 34.9575 40.177C34.9575 40.4847 35.0543 40.732 35.248 40.919C35.4417 41.1063 35.6955 41.2 36.0095 41.2ZM36 37.1805C36.241 37.1805 36.4302 37.1037 36.5675 36.95C36.7045 36.796 36.773 36.5955 36.773 36.3485V31.582C36.773 31.335 36.7007 31.143 36.556 31.006C36.411 30.8687 36.2153 30.8 35.969 30.8C35.728 30.8 35.539 30.8733 35.402 31.02C35.2647 31.1663 35.196 31.3637 35.196 31.612V36.4075C35.196 36.6358 35.2685 36.8218 35.4135 36.9655C35.5585 37.1088 35.754 37.1805 36 37.1805Z" fill="#DEA300"/>
</g>
</svg>
