<svg width="48" height="48" viewBox="0 0 48 48" fill="none" xmlns="http://www.w3.org/2000/svg">
<mask id="mask0_955_7539" style="mask-type:alpha" maskUnits="userSpaceOnUse" x="0" y="0" width="48" height="48">
<rect width="48" height="48" fill="#D9D9D9"/>
</mask>
<g mask="url(#mask0_955_7539)">
<path d="M42.0187 25.1342H37.4227C37.101 25.1342 36.8315 25.0247 36.6142 24.8057C36.3969 24.5863 36.2882 24.3145 36.2882 23.9902C36.2882 23.6658 36.3969 23.3972 36.6142 23.1842C36.8315 22.9715 37.101 22.8652 37.4227 22.8652H42.0187C42.3407 22.8652 42.6104 22.9747 42.8277 23.1937C43.045 23.413 43.1537 23.6848 43.1537 24.0092C43.1537 24.3335 43.045 24.6022 42.8277 24.8152C42.6104 25.0278 42.3407 25.1342 42.0187 25.1342ZM33.8112 33.9342C34.0139 33.6905 34.2642 33.5418 34.5622 33.4882C34.8602 33.4342 35.1432 33.5085 35.4112 33.7112L39.0997 36.4687C39.356 36.6713 39.5112 36.9217 39.5652 37.2197C39.6189 37.5177 39.5445 37.7943 39.3422 38.0497C39.1395 38.306 38.886 38.4612 38.5817 38.5152C38.277 38.5688 37.9972 38.4943 37.7422 38.2917L34.0342 35.5342C33.7905 35.3315 33.6419 35.0812 33.5882 34.7832C33.5342 34.4852 33.6085 34.2022 33.8112 33.9342ZM39.0227 11.4537L35.4457 14.1807C35.1777 14.383 34.8947 14.4573 34.5967 14.4037C34.2987 14.3497 34.0484 14.1945 33.8457 13.9382C33.6434 13.6945 33.569 13.4208 33.6227 13.1172C33.6767 12.8132 33.8254 12.56 34.0687 12.3577L37.6652 9.63067C37.9202 9.428 38.2 9.35367 38.5047 9.40767C38.809 9.46133 39.0625 9.61634 39.2652 9.87267C39.4675 10.1163 39.5419 10.3902 39.4882 10.6942C39.4342 10.9978 39.279 11.251 39.0227 11.4537ZM10.8652 29.1537H7.7307C6.94737 29.1537 6.2707 28.8687 5.7007 28.2987C5.1307 27.7287 4.8457 27.052 4.8457 26.2687V21.7307C4.8457 20.9473 5.1307 20.2707 5.7007 19.7007C6.2707 19.1307 6.94737 18.8457 7.7307 18.8457H16.1922L22.9997 14.7922C23.474 14.5048 23.9515 14.5017 24.4322 14.7827C24.9132 15.0637 25.1537 15.4808 25.1537 16.0342V31.9652C25.1537 32.5185 24.9132 32.9357 24.4322 33.2167C23.9515 33.4977 23.474 33.4945 22.9997 33.2072L16.1922 29.1537H13.1342V35.8267C13.1342 36.1483 13.0247 36.4178 12.8057 36.6352C12.5864 36.8525 12.3145 36.9612 11.9902 36.9612C11.6659 36.9612 11.3972 36.8525 11.1842 36.6352C10.9715 36.4178 10.8652 36.1483 10.8652 35.8267V29.1537ZM27.9227 30.2382V17.7612C28.7074 18.4715 29.3394 19.368 29.8187 20.4507C30.2984 21.5333 30.5382 22.7178 30.5382 24.0042C30.5382 25.2908 30.2984 26.474 29.8187 27.5537C29.3394 28.633 28.7074 29.5278 27.9227 30.2382Z" fill="url(#paint0_linear_955_7539)"/>
</g>
<defs>
<linearGradient id="paint0_linear_955_7539" x1="23.9997" y1="9.39062" x2="23.9997" y2="38.532" gradientUnits="userSpaceOnUse">
<stop stop-color="#5C9DFF"/>
<stop offset="1" stop-color="#375E99"/>
</linearGradient>
</defs>
</svg>
