<svg width="48" height="48" viewBox="0 0 48 48" fill="none" xmlns="http://www.w3.org/2000/svg">
<mask id="mask0_953_7496" style="mask-type:alpha" maskUnits="userSpaceOnUse" x="0" y="0" width="48" height="48">
<rect width="48" height="48" fill="#D9D9D9"/>
</mask>
<g mask="url(#mask0_953_7496)">
<path d="M21.8115 41H9.8845C9.10017 41 8.42333 40.7154 7.854 40.146C7.28467 39.5767 7 38.8999 7 38.1155V9.88453C7 9.1002 7.28467 8.42336 7.854 7.85403C8.42333 7.2847 9.10017 7.00003 9.8845 7.00003H21.8115V3.90403C21.8115 3.5817 21.921 3.31203 22.14 3.09503C22.359 2.87803 22.6308 2.76953 22.9555 2.76953C23.2802 2.76953 23.5488 2.87803 23.7615 3.09503C23.9745 3.31203 24.081 3.5817 24.081 3.90403V44.096C24.081 44.4184 23.9715 44.688 23.7525 44.905C23.5335 45.122 23.2617 45.2305 22.937 45.2305C22.6123 45.2305 22.3437 45.122 22.131 44.905C21.918 44.688 21.8115 44.4184 21.8115 44.096V41ZM9.2695 36.65H21.8115V22.1075L9.2695 36.65ZM27.35 41V23.4425L38.7305 36.65V9.88453C38.7305 9.73086 38.6665 9.58986 38.5385 9.46153C38.4102 9.33353 38.2692 9.26953 38.1155 9.26953H27.35V7.00003H38.1155C38.8998 7.00003 39.5767 7.2847 40.146 7.85403C40.7153 8.42336 41 9.1002 41 9.88453V38.1155C41 38.8999 40.7153 39.5767 40.146 40.146C39.5767 40.7154 38.8998 41 38.1155 41H27.35Z" fill="url(#paint0_linear_953_7496)"/>
</g>
<defs>
<linearGradient id="paint0_linear_953_7496" x1="24" y1="2.76953" x2="-3.54664" y2="36.8155" gradientUnits="userSpaceOnUse">
<stop stop-color="#01E1ED"/>
<stop offset="1" stop-color="#00B6C0"/>
</linearGradient>
</defs>
</svg>
