<svg width="48" height="48" viewBox="0 0 48 48" fill="none" xmlns="http://www.w3.org/2000/svg">
<mask id="mask0_945_10763" style="mask-type:alpha" maskUnits="userSpaceOnUse" x="0" y="0" width="48" height="48">
<rect width="48" height="48" fill="#D9D9D9"/>
</mask>
<g mask="url(#mask0_945_10763)">
<path d="M33.551 41.0548C33.3683 41.0548 33.1822 41.0337 32.9925 40.9913C32.8028 40.949 32.6207 40.8702 32.446 40.7548L26.5615 37.3238C26.2252 37.1185 25.9642 36.8513 25.7785 36.5223C25.5928 36.1933 25.5 35.8297 25.5 35.4313V28.6203C25.5 28.222 25.5928 27.8583 25.7785 27.5293C25.9642 27.2003 26.2252 26.9332 26.5615 26.7278L32.446 23.2778C32.6223 23.1752 32.806 23.1027 32.997 23.0603C33.1883 23.018 33.3763 22.9968 33.561 22.9968C33.746 22.9968 33.9258 23.0258 34.1005 23.0838C34.2755 23.1415 34.4483 23.2062 34.619 23.2778L40.5035 26.7278C40.8452 26.9332 41.1158 27.2003 41.3155 27.5293C41.5155 27.8583 41.6155 28.222 41.6155 28.6203V35.4313C41.6155 35.8297 41.5155 36.1933 41.3155 36.5223C41.1158 36.8513 40.8452 37.1185 40.5035 37.3238L34.6195 40.7573C34.4475 40.8443 34.2722 40.9157 34.0935 40.9713C33.9148 41.027 33.734 41.0548 33.551 41.0548ZM7.3075 38.4738C6.67483 38.4738 6.13217 38.2473 5.6795 37.7943C5.2265 37.3417 5 36.799 5 36.1663V34.6793C5 33.627 5.26283 32.7047 5.7885 31.9123C6.31417 31.12 7.07217 30.4988 8.0625 30.0488C10.0388 29.1502 11.8943 28.4682 13.629 28.0028C15.3637 27.5375 17.3155 27.2715 19.4845 27.2048C19.6888 27.2048 19.8643 27.2425 20.011 27.3178C20.158 27.3935 20.2762 27.5058 20.3655 27.6548C20.4655 27.8085 20.5322 27.9692 20.5655 28.1368C20.5988 28.3042 20.5885 28.4742 20.5345 28.6468C20.4065 29.2172 20.3137 29.8117 20.256 30.4303C20.198 31.049 20.169 31.676 20.169 32.3113C20.169 33.173 20.23 34.0092 20.352 34.8198C20.4737 35.6302 20.646 36.361 20.869 37.0123C20.923 37.179 20.9352 37.3508 20.9055 37.5278C20.8762 37.7045 20.8282 37.8698 20.7615 38.0238C20.6822 38.1775 20.5717 38.291 20.43 38.3643C20.2883 38.4373 20.1322 38.4738 19.9615 38.4738H7.3075ZM20 23.1933C18.075 23.1933 16.488 22.572 15.239 21.3293C13.99 20.0867 13.3655 18.4963 13.3655 16.5583C13.3655 14.6333 13.99 13.0463 15.239 11.7973C16.488 10.5483 18.075 9.92383 20 9.92383C21.925 9.92383 23.512 10.5483 24.761 11.7973C26.01 13.0463 26.6345 14.6333 26.6345 16.5583C26.6345 18.4963 26.01 20.0867 24.761 21.3293C23.512 22.572 21.925 23.1933 20 23.1933ZM28.7075 27.7853L33.5575 30.6318L38.4075 27.7853L33.5575 24.9893L28.7075 27.7853ZM34.577 38.4163L39.596 35.5588V29.4818L34.577 32.4853V38.4163ZM27.519 35.5508L32.5575 38.4968V32.5278L27.519 29.5818V35.5508Z" fill="url(#paint0_linear_945_10763)"/>
</g>
<defs>
<linearGradient id="paint0_linear_945_10763" x1="41.6155" y1="9.92383" x2="18.8355" y2="49.9138" gradientUnits="userSpaceOnUse">
<stop stop-color="#5A46E3"/>
<stop offset="1" stop-color="#4533BE"/>
</linearGradient>
</defs>
</svg>
