<svg width="48" height="48" viewBox="0 0 48 48" fill="none" xmlns="http://www.w3.org/2000/svg">
<mask id="mask0_955_7676" style="mask-type:alpha" maskUnits="userSpaceOnUse" x="0" y="0" width="48" height="48">
<rect width="48" height="48" fill="#D9D9D9"/>
</mask>
<g mask="url(#mask0_955_7676)">
<path d="M14.5185 13.227C13.9242 13.227 13.4205 13.435 13.0075 13.851C12.5948 14.267 12.3885 14.7722 12.3885 15.3665C12.3885 15.9605 12.5965 16.464 13.0125 16.877C13.4285 17.2897 13.9337 17.496 14.528 17.496C15.122 17.496 15.6255 17.288 16.0385 16.872C16.4512 16.456 16.6575 15.951 16.6575 15.357C16.6575 14.7627 16.4495 14.259 16.0335 13.846C15.6175 13.4333 15.1125 13.227 14.5185 13.227ZM14.5185 32.504C13.9242 32.504 13.4205 32.712 13.0075 33.128C12.5948 33.544 12.3885 34.049 12.3885 34.643C12.3885 35.2373 12.5965 35.741 13.0125 36.154C13.4285 36.5667 13.9337 36.773 14.528 36.773C15.122 36.773 15.6255 36.565 16.0385 36.149C16.4512 35.733 16.6575 35.2278 16.6575 34.6335C16.6575 34.0395 16.4495 33.536 16.0335 33.123C15.6175 32.7103 15.1125 32.504 14.5185 32.504ZM8.546 7.64648H39.4265C39.8922 7.64648 40.2708 7.79182 40.5625 8.08249C40.8542 8.37315 41 8.76349 41 9.25349V21.173C41 21.741 40.8542 22.2055 40.5625 22.5665C40.2708 22.9272 39.8922 23.1075 39.4265 23.1075H8.546C8.09867 23.1075 7.72917 22.9272 7.4375 22.5665C7.14583 22.2055 7 21.741 7 21.173V9.25349C7 8.76349 7.14583 8.37315 7.4375 8.08249C7.72917 7.79182 8.09867 7.64648 8.546 7.64648ZM8.546 26.8925H39.223C39.6973 26.8925 40.112 27.0842 40.467 27.4675C40.8223 27.8512 41 28.2855 41 28.7705V40.4305C41 41.0588 40.8223 41.5415 40.467 41.8785C40.112 42.2158 39.6973 42.3845 39.223 42.3845H8.777C8.26933 42.3845 7.84633 42.2158 7.508 41.8785C7.16933 41.5415 7 41.0588 7 40.4305V28.7705C7 28.2855 7.13917 27.8512 7.4175 27.4675C7.6955 27.0842 8.07167 26.8925 8.546 26.8925Z" fill="url(#paint0_linear_955_7676)"/>
</g>
<defs>
<linearGradient id="paint0_linear_955_7676" x1="41" y1="5.7166" x2="6.22968" y2="41.6389" gradientUnits="userSpaceOnUse">
<stop stop-color="#F468AF"/>
<stop offset="1" stop-color="#D25F9A"/>
</linearGradient>
</defs>
</svg>
