<svg width="48" height="48" viewBox="0 0 48 48" fill="none" xmlns="http://www.w3.org/2000/svg">
<mask id="mask0_955_7642" style="mask-type:alpha" maskUnits="userSpaceOnUse" x="0" y="0" width="48" height="48">
<rect width="48" height="48" fill="#D9D9D9"/>
</mask>
<g mask="url(#mask0_955_7642)">
<path d="M22.677 29.4996H25.323C25.532 29.4996 25.7195 29.4082 25.8855 29.2256C26.0515 29.0429 26.1077 28.8471 26.054 28.6381L24.9925 22.5956C25.6362 22.3419 26.1508 21.9499 26.5365 21.4196C26.9225 20.8892 27.1155 20.2941 27.1155 19.6341C27.1155 18.7761 26.8102 18.0424 26.1995 17.4331C25.5888 16.8237 24.8535 16.5191 23.9935 16.5191C23.1338 16.5191 22.4008 16.8237 21.7945 17.4331C21.1878 18.0424 20.8845 18.7761 20.8845 19.6341C20.8845 20.2941 21.0775 20.8892 21.4635 21.4196C21.8492 21.9499 22.3638 22.3419 23.0075 22.5956L21.946 28.6381C21.8923 28.8471 21.9485 29.0429 22.1145 29.2256C22.2805 29.4082 22.468 29.4996 22.677 29.4996ZM24 42.7416C23.8227 42.7416 23.6548 42.7249 23.4965 42.6916C23.3382 42.6582 23.1828 42.6082 23.0305 42.5416C18.7052 41.0006 15.2853 38.3174 12.771 34.4921C10.257 30.6664 9 26.4826 9 21.9406V12.6841C9 12.0647 9.174 11.5052 9.522 11.0056C9.87033 10.5062 10.3207 10.1479 10.873 9.93056L22.9885 5.42656C23.3422 5.29323 23.6793 5.22656 24 5.22656C24.3207 5.22656 24.6578 5.29323 25.0115 5.42656L37.127 9.93056C37.6793 10.1479 38.1297 10.5062 38.478 11.0056C38.826 11.5052 39 12.0647 39 12.6841V21.9406C39 26.4826 37.743 30.6664 35.229 34.4921C32.7147 38.3174 29.2948 41.0006 24.9695 42.5416C24.8172 42.6082 24.6618 42.6582 24.5035 42.6916C24.3452 42.7249 24.1773 42.7416 24 42.7416Z" fill="url(#paint0_linear_955_7642)"/>
</g>
<defs>
<linearGradient id="paint0_linear_955_7642" x1="36.9545" y1="5.22656" x2="2.00775" y2="27.4737" gradientUnits="userSpaceOnUse">
<stop stop-color="#DEA300"/>
<stop offset="1" stop-color="#FFD968"/>
</linearGradient>
</defs>
</svg>
