<svg width="48" height="48" viewBox="0 0 48 48" fill="none" xmlns="http://www.w3.org/2000/svg">
<mask id="mask0_953_7482" style="mask-type:alpha" maskUnits="userSpaceOnUse" x="0" y="0" width="48" height="48">
<rect width="48" height="48" fill="#D9D9D9"/>
</mask>
<g mask="url(#mask0_953_7482)">
<path d="M40.7305 16.5V11.8845C40.7305 11.7308 40.6665 11.5898 40.5385 11.4615C40.4102 11.3335 40.2692 11.2695 40.1155 11.2695H35.5C35.1787 11.2695 34.9092 11.1597 34.6915 10.94C34.4742 10.7207 34.3655 10.449 34.3655 10.125C34.3655 9.80067 34.4742 9.53217 34.6915 9.3195C34.9092 9.1065 35.1787 9 35.5 9H40.1155C40.8998 9 41.5767 9.28467 42.146 9.854C42.7153 10.4233 43 11.1002 43 11.8845V16.5C43 16.8213 42.8903 17.0908 42.671 17.3085C42.4517 17.5258 42.1798 17.6345 41.8555 17.6345C41.5312 17.6345 41.2627 17.5258 41.05 17.3085C40.837 17.0908 40.7305 16.8213 40.7305 16.5ZM5 16.5V11.8845C5 11.1002 5.28467 10.4233 5.854 9.854C6.42333 9.28467 7.10017 9 7.8845 9H12.5C12.8213 9 13.0908 9.10967 13.3085 9.329C13.5258 9.54833 13.6345 9.82017 13.6345 10.1445C13.6345 10.4688 13.5258 10.7373 13.3085 10.95C13.0908 11.163 12.8213 11.2695 12.5 11.2695H7.8845C7.73083 11.2695 7.58983 11.3335 7.4615 11.4615C7.3335 11.5898 7.2695 11.7308 7.2695 11.8845V16.5C7.2695 16.8213 7.15967 17.0908 6.94 17.3085C6.72067 17.5258 6.449 17.6345 6.125 17.6345C5.80067 17.6345 5.53217 17.5258 5.3195 17.3085C5.1065 17.0908 5 16.8213 5 16.5ZM40.1155 39H35.5C35.1787 39 34.9092 38.8903 34.6915 38.671C34.4742 38.4517 34.3655 38.1798 34.3655 37.8555C34.3655 37.5312 34.4742 37.2627 34.6915 37.05C34.9092 36.837 35.1787 36.7305 35.5 36.7305H40.1155C40.2692 36.7305 40.4102 36.6665 40.5385 36.5385C40.6665 36.4102 40.7305 36.2692 40.7305 36.1155V31.5C40.7305 31.1787 40.8403 30.9092 41.06 30.6915C41.2793 30.4742 41.551 30.3655 41.875 30.3655C42.1993 30.3655 42.4678 30.4742 42.6805 30.6915C42.8935 30.9092 43 31.1787 43 31.5V36.1155C43 36.8998 42.7153 37.5767 42.146 38.146C41.5767 38.7153 40.8998 39 40.1155 39ZM7.8845 39C7.10017 39 6.42333 38.7153 5.854 38.146C5.28467 37.5767 5 36.8998 5 36.1155V31.5C5 31.1787 5.10967 30.9092 5.329 30.6915C5.54833 30.4742 5.82017 30.3655 6.1445 30.3655C6.46883 30.3655 6.73733 30.4742 6.95 30.6915C7.163 30.9092 7.2695 31.1787 7.2695 31.5V36.1155C7.2695 36.2692 7.3335 36.4102 7.4615 36.5385C7.58983 36.6665 7.73083 36.7305 7.8845 36.7305H12.5C12.8213 36.7305 13.0908 36.8403 13.3085 37.06C13.5258 37.2793 13.6345 37.551 13.6345 37.875C13.6345 38.1993 13.5258 38.4678 13.3085 38.6805C13.0908 38.8935 12.8213 39 12.5 39H7.8845ZM11.3845 29.7305V18.2695C11.3845 17.4862 11.6695 16.8095 12.2395 16.2395C12.8095 15.6695 13.4862 15.3845 14.2695 15.3845H33.7305C34.5138 15.3845 35.1905 15.6695 35.7605 16.2395C36.3305 16.8095 36.6155 17.4862 36.6155 18.2695V29.7305C36.6155 30.5138 36.3305 31.1905 35.7605 31.7605C35.1905 32.3305 34.5138 32.6155 33.7305 32.6155H14.2695C13.4862 32.6155 12.8095 32.3305 12.2395 31.7605C11.6695 31.1905 11.3845 30.5138 11.3845 29.7305Z" fill="url(#paint0_linear_953_7482)"/>
</g>
<defs>
<linearGradient id="paint0_linear_953_7482" x1="24" y1="9" x2="24" y2="39" gradientUnits="userSpaceOnUse">
<stop stop-color="#5C9DFF"/>
<stop offset="1" stop-color="#375E99"/>
</linearGradient>
</defs>
</svg>
