<svg width="48" height="48" viewBox="0 0 48 48" fill="none" xmlns="http://www.w3.org/2000/svg">
<mask id="mask0_955_7545" style="mask-type:alpha" maskUnits="userSpaceOnUse" x="0" y="0" width="48" height="48">
<rect width="48" height="48" fill="#D9D9D9"/>
</mask>
<g mask="url(#mask0_955_7545)">
<path d="M2.3655 35.5767C1.99117 35.5767 1.67 35.4427 1.402 35.1747C1.134 34.9067 1 34.5856 1 34.2112V33.5037C1 32.2821 1.66283 31.2772 2.9885 30.4892C4.31417 29.7012 6.04217 29.3072 8.1725 29.3072C8.51417 29.3072 8.86567 29.3189 9.227 29.3422C9.58867 29.3652 9.95283 29.4042 10.3195 29.4592C10.0912 29.9992 9.91667 30.5404 9.796 31.0827C9.67567 31.6254 9.6155 32.1811 9.6155 32.7497V35.5767H2.3655ZM14.4505 35.5767C14.0328 35.5767 13.6867 35.4386 13.412 35.1622C13.1373 34.8859 13 34.5432 13 34.1342V32.8267C13 31.8904 13.2628 31.0346 13.7885 30.2592C14.3142 29.4836 15.0718 28.8074 16.0615 28.2307C17.0512 27.6537 18.2205 27.2211 19.5695 26.9327C20.9182 26.6441 22.3925 26.4997 23.9925 26.4997C25.6232 26.4997 27.1128 26.6441 28.4615 26.9327C29.8102 27.2211 30.9793 27.6537 31.969 28.2307C32.959 28.8074 33.7117 29.4836 34.227 30.2592C34.7423 31.0346 35 31.8904 35 32.8267V34.1342C35 34.5432 34.8618 34.8859 34.5855 35.1622C34.3092 35.4386 33.9665 35.5767 33.5575 35.5767H14.4505ZM38.3845 35.5767V32.7522C38.3845 32.1526 38.3327 31.5824 38.229 31.0417C38.125 30.5011 37.9525 29.9749 37.7115 29.4632C38.1038 29.4056 38.4765 29.3652 38.8295 29.3422C39.1828 29.3189 39.5282 29.3072 39.8655 29.3072C41.9998 29.3072 43.7225 29.6939 45.0335 30.4672C46.3445 31.2402 47 32.2524 47 33.5037V34.2112C47 34.5856 46.866 34.9067 46.598 35.1747C46.33 35.4427 46.0088 35.5767 45.6345 35.5767H38.3845ZM8.127 27.7307C7.29367 27.7307 6.58017 27.4316 5.9865 26.8332C5.39283 26.2352 5.096 25.5151 5.096 24.6727C5.096 23.8344 5.39517 23.1184 5.9935 22.5247C6.5915 21.9311 7.31167 21.6342 8.154 21.6342C8.99233 21.6342 9.7115 21.9311 10.3115 22.5247C10.9115 23.1184 11.2115 23.8436 11.2115 24.7002C11.2115 25.5206 10.915 26.2307 10.322 26.8307C9.729 27.4307 8.99733 27.7307 8.127 27.7307ZM39.8435 27.7307C39.0195 27.7307 38.3075 27.4296 37.7075 26.8272C37.1075 26.2252 36.8075 25.5091 36.8075 24.6787C36.8075 23.8364 37.1087 23.1184 37.711 22.5247C38.313 21.9311 39.0323 21.6342 39.869 21.6342C40.7177 21.6342 41.4388 21.9311 42.0325 22.5247C42.6262 23.1184 42.923 23.8417 42.923 24.6947C42.923 25.5267 42.627 26.2407 42.035 26.8367C41.443 27.4327 40.7125 27.7307 39.8435 27.7307ZM24.007 24.9997C22.5663 24.9997 21.3397 24.4949 20.327 23.4852C19.3143 22.4759 18.808 21.2501 18.808 19.8077C18.808 18.3364 19.3127 17.1032 20.322 16.1082C21.3317 15.1129 22.5577 14.6152 24 14.6152C25.471 14.6152 26.7042 15.1122 27.6995 16.1062C28.6945 17.0999 29.192 18.3314 29.192 19.8007C29.192 21.2411 28.6952 22.4677 27.7015 23.4807C26.7075 24.4934 25.476 24.9997 24.007 24.9997Z" fill="url(#paint0_linear_955_7545)"/>
</g>
<defs>
<linearGradient id="paint0_linear_955_7545" x1="47" y1="13.4507" x2="31.7225" y2="48.8397" gradientUnits="userSpaceOnUse">
<stop stop-color="#F468AF"/>
<stop offset="1" stop-color="#D25F9A"/>
</linearGradient>
</defs>
</svg>
