<svg width="48" height="48" viewBox="0 0 48 48" fill="none" xmlns="http://www.w3.org/2000/svg">
<mask id="mask0_954_7505" style="mask-type:alpha" maskUnits="userSpaceOnUse" x="0" y="0" width="48" height="48">
<rect width="48" height="48" fill="#D9D9D9"/>
</mask>
<g mask="url(#mask0_954_7505)">
<path d="M13.571 16.2785C13.7237 16.4312 13.8885 16.5075 14.0655 16.5075C14.2425 16.5075 14.4072 16.4312 14.5595 16.2785L16.994 13.8945C17.1467 13.7419 17.223 13.5655 17.223 13.3655C17.223 13.1655 17.1467 12.9892 16.994 12.8365L14.5595 10.452C14.4072 10.2994 14.2425 10.223 14.0655 10.223C13.8885 10.223 13.7237 10.2994 13.571 10.452L11.1365 12.8365C10.9838 12.9892 10.9075 13.1655 10.9075 13.3655C10.9075 13.5655 10.9838 13.7419 11.1365 13.8945L13.571 16.2785ZM32.9955 14.077C33.6438 14.077 34.1945 13.8552 34.6475 13.4115C35.1005 12.9679 35.327 12.422 35.327 11.774C35.327 11.1257 35.1005 10.575 34.6475 10.122C34.1945 9.66903 33.6438 9.44253 32.9955 9.44253C32.3472 9.44253 31.8012 9.66903 31.3575 10.122C30.9142 10.575 30.6925 11.1257 30.6925 11.774C30.6925 12.422 30.9142 12.9679 31.3575 13.4115C31.8012 13.8552 32.3472 14.077 32.9955 14.077ZM12.4425 44.2305C12.0222 44.2305 11.6767 44.0952 11.406 43.8245C11.1353 43.5539 11 43.2085 11 42.7885V40.723C11 39.7487 11.2705 38.8417 11.8115 38.002C12.3525 37.1624 13.073 36.5374 13.973 36.127C15.555 35.3987 17.1877 34.8494 18.871 34.479C20.5543 34.1084 22.264 33.923 24 33.923C25.736 33.923 27.4457 34.1084 29.129 34.479C30.8123 34.8494 32.445 35.3987 34.027 36.127C34.927 36.5374 35.6475 37.1624 36.1885 38.002C36.7295 38.8417 37 39.7487 37 40.723V42.7885C37 43.2085 36.8647 43.5539 36.594 43.8245C36.3233 44.0952 35.9778 44.2305 35.5575 44.2305H12.4425ZM24 31.5385C22.336 31.5385 20.92 30.9545 19.752 29.7865C18.584 28.6185 18 27.2025 18 25.5385C18 23.8745 18.584 22.4585 19.752 21.2905C20.92 20.1225 22.336 19.5385 24 19.5385C25.664 19.5385 27.08 20.1225 28.248 21.2905C29.416 22.4585 30 23.8745 30 25.5385C30 27.2025 29.416 28.6185 28.248 29.7865C27.08 30.9545 25.664 31.5385 24 31.5385ZM5 6.65403C5 5.8697 5.28467 5.19286 5.854 4.62353C6.42333 4.0542 7.10017 3.76953 7.8845 3.76953H40.1155C40.8998 3.76953 41.5767 4.0542 42.146 4.62353C42.7153 5.19286 43 5.8697 43 6.65403V24.8845C43 25.6689 42.7153 26.3457 42.146 26.915C41.5767 27.4844 40.8998 27.769 40.1155 27.769H34.646C34.226 27.769 33.8903 27.6197 33.639 27.321C33.3873 27.022 33.282 26.6625 33.323 26.2425C33.3437 26.1322 33.359 26.0135 33.369 25.8865C33.3793 25.7595 33.3845 25.6307 33.3845 25.5C33.3845 22.913 32.4672 20.7085 30.6325 18.8865C28.7978 17.0649 26.587 16.154 24 16.154C21.413 16.154 19.2022 17.0649 17.3675 18.8865C15.5328 20.7085 14.6155 22.913 14.6155 25.5C14.6155 25.6307 14.6207 25.7595 14.631 25.8865C14.641 26.0135 14.6563 26.1322 14.677 26.2425C14.718 26.6625 14.6065 27.022 14.3425 27.321C14.0782 27.6197 13.7487 27.769 13.354 27.769H7.8845C7.10017 27.769 6.42333 27.4844 5.854 26.915C5.28467 26.3457 5 25.6689 5 24.8845V6.65403Z" fill="url(#paint0_linear_954_7505)"/>
</g>
<defs>
<linearGradient id="paint0_linear_954_7505" x1="40.4091" y1="3.76953" x2="0.507865" y2="33.6016" gradientUnits="userSpaceOnUse">
<stop stop-color="#DEA300"/>
<stop offset="1" stop-color="#FFD968"/>
</linearGradient>
</defs>
</svg>
