<svg width="48" height="48" viewBox="0 0 48 48" fill="none" xmlns="http://www.w3.org/2000/svg">
<mask id="mask0_955_7652" style="mask-type:alpha" maskUnits="userSpaceOnUse" x="0" y="0" width="48" height="48">
<rect width="48" height="48" fill="#D9D9D9"/>
</mask>
<g mask="url(#mask0_955_7652)">
<path d="M11.8845 43C11.1012 43 10.4247 42.715 9.855 42.145C9.285 41.5753 9 40.8988 9 40.1155V20.108C9 19.3147 9.285 18.6355 9.855 18.0705C10.4247 17.5055 11.1012 17.223 11.8845 17.223H15.3655V12.6345C15.3655 10.2382 16.2062 8.2 17.8875 6.52C19.5688 4.84 21.6085 4 24.0065 4C26.4048 4 28.4423 4.84 30.119 6.52C31.796 8.2 32.6345 10.2382 32.6345 12.6345V17.223H36.1155C36.8988 17.223 37.5753 17.5055 38.145 18.0705C38.715 18.6355 39 19.3147 39 20.108V40.1155C39 40.8988 38.715 41.5753 38.145 42.145C37.5753 42.715 36.8988 43 36.1155 43H11.8845ZM24.0085 33.5C24.9412 33.5 25.7377 33.1745 26.398 32.5235C27.0583 31.8725 27.3885 31.089 27.3885 30.173C27.3885 29.2883 27.0555 28.4922 26.3895 27.7845C25.7238 27.0768 24.9245 26.723 23.9915 26.723C23.0588 26.723 22.2623 27.0768 21.602 27.7845C20.9417 28.4922 20.6115 29.2967 20.6115 30.198C20.6115 31.0993 20.9445 31.875 21.6105 32.525C22.2762 33.175 23.0755 33.5 24.0085 33.5ZM17.6345 17.223H30.3655V12.6345C30.3655 10.8665 29.7473 9.36367 28.511 8.126C27.2747 6.88833 25.7733 6.2695 24.007 6.2695C22.2407 6.2695 20.737 6.88833 19.496 8.126C18.255 9.36367 17.6345 10.8665 17.6345 12.6345V17.223Z" fill="url(#paint0_linear_955_7652)"/>
</g>
<defs>
<linearGradient id="paint0_linear_955_7652" x1="36.9545" y1="4" x2="1.23829" y2="25.8712" gradientUnits="userSpaceOnUse">
<stop stop-color="#002FDF"/>
<stop offset="1" stop-color="#4D62B0"/>
</linearGradient>
</defs>
</svg>
