<svg width="48" height="48" viewBox="0 0 48 48" fill="none" xmlns="http://www.w3.org/2000/svg">
<mask id="mask0_948_11013" style="mask-type:alpha" maskUnits="userSpaceOnUse" x="0" y="0" width="48" height="48">
<rect width="48" height="48" fill="#D9D9D9"/>
</mask>
<g mask="url(#mask0_948_11013)">
<path d="M29.155 44.845C28.3856 44.845 27.7318 44.5759 27.1935 44.0375C26.6548 43.4989 26.3855 42.845 26.3855 42.076V29.153C26.3855 28.3837 26.6548 27.7299 27.1935 27.1915C27.7318 26.6529 28.3856 26.3835 29.155 26.3835H42.078C42.847 26.3835 43.5008 26.6529 44.0395 27.1915C44.5778 27.7299 44.847 28.3837 44.847 29.153V42.076C44.847 42.845 44.5778 43.4989 44.0395 44.0375C43.5008 44.5759 42.847 44.845 42.078 44.845H29.155ZM20.6125 42.9991C20.2408 42.9991 19.9383 42.8959 19.705 42.6895C19.4716 42.4829 19.328 42.2142 19.274 41.8835L18.624 36.968C18.0883 36.7887 17.539 36.5375 16.976 36.2145C16.4133 35.8912 15.9101 35.545 15.4665 35.1761L12.001 36.649C11.3726 36.926 10.7413 36.9529 10.107 36.7295C9.4723 36.5065 8.9793 36.1015 8.62796 35.5145L6.37396 31.6066C6.02263 31.0196 5.92146 30.3984 6.07046 29.743C6.21913 29.088 6.56013 28.5477 7.09347 28.122L10.0895 25.872C10.0435 25.5747 10.0108 25.276 9.99147 24.976C9.97213 24.6761 9.96246 24.3774 9.96246 24.08C9.96246 23.7954 9.97213 23.5062 9.99147 23.2125C10.0108 22.9189 10.0435 22.5977 10.0895 22.249L7.09347 19.999C6.56013 19.5734 6.2223 19.0297 6.07997 18.368C5.93763 17.7067 6.04213 17.0824 6.39346 16.495L8.62796 12.645C8.9793 12.0707 9.4723 11.6689 10.107 11.4395C10.7413 11.2099 11.3726 11.2335 12.001 11.5105L15.447 12.9645C15.9293 12.5825 16.4441 12.2332 16.9915 11.9165C17.5388 11.5999 18.0766 11.3454 18.605 11.153L19.1125 7.41055C19.2201 6.74921 19.5221 6.19221 20.0185 5.73955C20.5145 5.28688 21.1035 5.06055 21.7855 5.06055H26.2165C26.8985 5.06055 27.4875 5.28688 27.9835 5.73955C28.4798 6.19221 28.7818 6.74921 28.8895 7.41055L29.378 11.172C29.978 11.39 30.5208 11.6445 31.0065 11.9355C31.4925 12.2265 31.983 12.5695 32.478 12.9645L36.0205 11.5105C36.6485 11.2335 37.2798 11.2099 37.9145 11.4395C38.5491 11.6689 39.042 12.0707 39.393 12.645L41.628 16.5145C41.9793 17.1015 42.0805 17.7227 41.9315 18.378C41.7828 19.033 41.4418 19.5734 40.9085 19.999L38.6395 21.668C38.4855 21.7887 38.3181 21.874 38.1375 21.924C37.9568 21.974 37.7728 21.999 37.5855 21.999H30.201C30.0266 21.999 29.869 21.9452 29.728 21.8375C29.587 21.7299 29.4831 21.6055 29.4165 21.4645C28.9341 20.4542 28.2141 19.624 27.2565 18.974C26.2988 18.324 25.2213 17.999 24.024 17.999C22.36 17.999 20.944 18.583 19.776 19.751C18.608 20.919 18.024 22.335 18.024 23.999C18.024 25.222 18.3355 26.3155 18.9585 27.2795C19.5818 28.2439 20.4113 28.9605 21.447 29.4295C21.601 29.4962 21.7318 29.6034 21.8395 29.751C21.9471 29.8984 22.001 30.0592 22.001 30.2335V41.722C22.001 42.0734 21.8676 42.3741 21.601 42.6241C21.3343 42.8741 21.0048 42.9991 20.6125 42.9991ZM35.6165 37.4605C34.7831 37.4605 33.976 37.5785 33.195 37.8145C32.4143 38.0502 31.6868 38.4079 31.0125 38.8876C30.6048 39.1669 30.2958 39.4566 30.0855 39.7565C29.8751 40.0565 29.77 40.3669 29.77 40.6875C29.77 40.8952 29.847 41.0759 30.001 41.2295C30.1546 41.3835 30.3355 41.4605 30.5435 41.4605H40.8895C41.0431 41.4605 41.1771 41.3869 41.2915 41.2395C41.4055 41.0919 41.4625 40.9079 41.4625 40.6875C41.4625 40.3669 41.3573 40.0565 41.147 39.7565C40.9366 39.4566 40.6276 39.1669 40.22 38.8876C39.5456 38.4079 38.8181 38.0502 38.0375 37.8145C37.2568 37.5785 36.4498 37.4605 35.6165 37.4605ZM35.6165 35.6145C36.3855 35.6145 37.0393 35.3452 37.578 34.8065C38.1163 34.2682 38.3855 33.6144 38.3855 32.8451C38.3855 32.0761 38.1163 31.4222 37.578 30.8835C37.0393 30.3452 36.3855 30.076 35.6165 30.076C34.8471 30.076 34.1933 30.3452 33.655 30.8835C33.1163 31.4222 32.847 32.0761 32.847 32.8451C32.847 33.6144 33.1163 34.2682 33.655 34.8065C34.1933 35.3452 34.8471 35.6145 35.6165 35.6145Z" fill="url(#paint0_linear_948_11013)"/>
</g>
<defs>
<linearGradient id="paint0_linear_948_11013" x1="44.847" y1="5.06055" x2="13.2673" y2="51.079" gradientUnits="userSpaceOnUse">
<stop stop-color="#5A46E3"/>
<stop offset="1" stop-color="#4533BE"/>
</linearGradient>
</defs>
</svg>
