<svg width="48" height="48" viewBox="0 0 48 48" fill="none" xmlns="http://www.w3.org/2000/svg">
<mask id="mask0_796_4968" style="mask-type:alpha" maskUnits="userSpaceOnUse" x="0" y="0" width="48" height="48">
<rect width="48" height="48" fill="#D9D9D9"/>
</mask>
<g mask="url(#mask0_796_4968)">
<path d="M12 43C10.6027 43 9.42 42.516 8.452 41.548C7.484 40.58 7 39.3973 7 38V34.0385C7 33.5262 7.17333 33.0968 7.52 32.7505C7.86633 32.4042 8.29567 32.231 8.808 32.231H13V8.6155C13 7.62117 13.354 6.77 14.062 6.062C14.77 5.354 15.6212 5 16.6155 5H37.3845C38.3788 5 39.23 5.354 39.938 6.062C40.646 6.77 41 7.62117 41 8.6155V20.423C41 20.848 40.8562 21.2043 40.5685 21.492C40.2808 21.7793 39.9245 21.923 39.4995 21.923C39.0742 21.923 38.718 21.7793 38.431 21.492C38.1437 21.2043 38 20.848 38 20.423V8.6155C38 8.43583 37.9423 8.28833 37.827 8.173C37.7117 8.05767 37.5642 8 37.3845 8H16.6155C16.4358 8 16.2883 8.05767 16.173 8.173C16.0577 8.28833 16 8.43583 16 8.6155V32.231H23.873C24.529 32.231 24.9783 32.5245 25.221 33.1115C25.4633 33.6988 25.3563 34.2207 24.9 34.677C24.5717 35.005 24.314 35.39 24.127 35.832C23.9397 36.2743 23.846 36.7393 23.846 37.227V41.191C23.846 41.7073 23.6728 42.1378 23.3265 42.4825C22.9798 42.8275 22.5505 43 22.0385 43H12ZM28.231 41.192V38.469C28.231 38.228 28.2745 37.9935 28.3615 37.7655C28.4488 37.5372 28.586 37.3397 28.773 37.173L39.0885 26.9075C39.3372 26.6718 39.6057 26.5002 39.894 26.3925C40.1823 26.2848 40.4707 26.231 40.759 26.231C41.0733 26.231 41.3775 26.2898 41.6715 26.4075C41.9655 26.5255 42.2327 26.7025 42.473 26.9385L44.323 28.8075C44.5383 29.0565 44.705 29.3258 44.823 29.6155C44.941 29.9052 45 30.1948 45 30.4845C45 30.7742 44.9493 31.069 44.848 31.369C44.7467 31.669 44.5717 31.9433 44.323 32.192L34.0545 42.461C33.8898 42.6253 33.6935 42.7563 33.4655 42.854C33.2372 42.9513 33.0025 43 32.7615 43H30.0385C29.5262 43 29.0968 42.8267 28.7505 42.48C28.4042 42.1337 28.231 41.7043 28.231 41.192ZM40.7655 32.4155L42.6155 30.4845L40.7655 28.6155L38.8655 30.5155L40.7655 32.4155ZM19.8845 20.154H34.1155C34.5405 20.154 34.8967 20.2978 35.184 20.5855C35.4717 20.8728 35.6155 21.2292 35.6155 21.6545C35.6155 22.0798 35.4717 22.436 35.184 22.723C34.8967 23.0103 34.5405 23.154 34.1155 23.154H19.8845C19.4595 23.154 19.1033 23.0102 18.816 22.7225C18.5283 22.4348 18.3845 22.0783 18.3845 21.653C18.3845 21.228 18.5283 20.8718 18.816 20.5845C19.1033 20.2975 19.4595 20.154 19.8845 20.154ZM19.8845 14.3845H34.1155C34.5405 14.3845 34.8967 14.5283 35.184 14.816C35.4717 15.1037 35.6155 15.4602 35.6155 15.8855C35.6155 16.3105 35.4717 16.6667 35.184 16.954C34.8967 17.241 34.5405 17.3845 34.1155 17.3845H19.8845C19.4595 17.3845 19.1033 17.2407 18.816 16.953C18.5283 16.6653 18.3845 16.309 18.3845 15.884C18.3845 15.4587 18.5283 15.1025 18.816 14.8155C19.1033 14.5282 19.4595 14.3845 19.8845 14.3845Z" fill="url(#paint0_linear_796_4968)"/>
</g>
<defs>
<linearGradient id="paint0_linear_796_4968" x1="42.4091" y1="5" x2="4.33344" y2="35.3108" gradientUnits="userSpaceOnUse">
<stop stop-color="#DEA300"/>
<stop offset="1" stop-color="#FFD968"/>
</linearGradient>
</defs>
</svg>
