<svg width="48" height="48" viewBox="0 0 48 48" fill="none" xmlns="http://www.w3.org/2000/svg">
<mask id="mask0_955_7666" style="mask-type:alpha" maskUnits="userSpaceOnUse" x="0" y="0" width="48" height="48">
<rect width="48" height="48" fill="#D9D9D9"/>
</mask>
<g mask="url(#mask0_955_7666)">
<path d="M9 38.7299V9.26894C9 8.63594 9.2265 8.09311 9.6795 7.64044C10.1322 7.18744 10.6748 6.96094 11.3075 6.96094H36.6925C37.3252 6.96094 37.8678 7.18744 38.3205 7.64044C38.7735 8.09311 39 8.63594 39 9.26894V22.8264C39 23.4591 38.7735 24.0019 38.3205 24.4549C37.8678 24.9076 37.3252 25.1339 36.6925 25.1339H11.2695V30.8069H21.731C22.0533 30.8069 22.323 30.9196 22.54 31.1449C22.757 31.3699 22.8655 31.6384 22.8655 31.9504C22.8655 32.2754 22.757 32.5443 22.54 32.7569C22.323 32.9699 22.0533 33.0764 21.731 33.0764H11.2695V38.7684H21.731C22.0533 38.7684 22.323 38.8778 22.54 39.0964C22.757 39.3151 22.8655 39.5869 22.8655 39.9119C22.8655 40.2369 22.757 40.5058 22.54 40.7184C22.323 40.9314 22.0533 41.0379 21.731 41.0379H11.3075C10.6748 41.0379 10.1322 40.8114 9.6795 40.3584C9.2265 39.9058 9 39.3629 9 38.7299ZM31.45 37.7764L38.1345 31.1109C38.3575 30.8879 38.6178 30.7783 38.9155 30.7819C39.2128 30.7859 39.4795 30.9059 39.7155 31.1419C39.9512 31.3776 40.069 31.6493 40.069 31.9569C40.069 32.2646 39.9512 32.5364 39.7155 32.7724L32.4615 40.0264C32.1742 40.3134 31.8402 40.4569 31.4595 40.4569C31.0788 40.4569 30.7448 40.3134 30.4575 40.0264L27.281 36.8494C27.0577 36.6264 26.948 36.3578 26.952 36.0434C26.9557 35.7294 27.0755 35.4544 27.3115 35.2184C27.5475 34.9828 27.8193 34.8649 28.127 34.8649C28.4347 34.8649 28.7065 34.9828 28.9425 35.2184L31.45 37.7764ZM11.2695 22.8649H22.8655V17.1724H11.2695V22.8649ZM25.1345 22.8649H36.7305V17.1724H25.1345V22.8649ZM11.2695 14.9034H22.8655V9.23044H11.2695V14.9034ZM25.1345 14.9034H36.7305V9.23044H25.1345V14.9034Z" fill="url(#paint0_linear_955_7666)"/>
</g>
<defs>
<linearGradient id="paint0_linear_955_7666" x1="24.5345" y1="6.96094" x2="24.5345" y2="41.0379" gradientUnits="userSpaceOnUse">
<stop stop-color="#5C9DFF"/>
<stop offset="1" stop-color="#375E99"/>
</linearGradient>
</defs>
</svg>
