<svg width="48" height="48" viewBox="0 0 48 48" fill="none" xmlns="http://www.w3.org/2000/svg">
<mask id="mask0_954_7521" style="mask-type:alpha" maskUnits="userSpaceOnUse" x="0" y="0" width="48" height="48">
<rect width="48" height="48" fill="#D9D9D9"/>
</mask>
<g mask="url(#mask0_954_7521)">
<path d="M22.919 26.6534C23.6524 26.6534 24.312 26.5379 24.898 26.3069C25.484 26.0763 26.0937 25.7776 26.727 25.4109L30.6575 29.3419C30.8399 29.5239 31.0554 29.6181 31.304 29.6244C31.5527 29.6308 31.7744 29.5336 31.969 29.3329C32.164 29.1439 32.2615 28.9283 32.2615 28.6859C32.2615 28.4436 32.164 28.2251 31.969 28.0304L27.927 23.9879C28.2807 23.4213 28.5697 22.8586 28.794 22.2999C29.0184 21.7409 29.1305 21.1248 29.1305 20.4514C29.1305 18.7118 28.5319 17.2431 27.3345 16.0454C26.1372 14.8481 24.6654 14.2494 22.919 14.2494C21.173 14.2494 19.7045 14.8473 18.5135 16.0429C17.3225 17.2389 16.727 18.7053 16.727 20.4419C16.727 22.1839 17.3225 23.6546 18.5135 24.8539C19.7045 26.0536 21.173 26.6534 22.919 26.6534ZM22.919 24.6339C21.7737 24.6339 20.7919 24.2229 19.9735 23.4009C19.1552 22.5789 18.746 21.5926 18.746 20.4419C18.746 19.2963 19.156 18.3143 19.976 17.4959C20.796 16.6779 21.7799 16.2689 22.9275 16.2689C24.0885 16.2689 25.0762 16.6789 25.8905 17.4989C26.7045 18.3189 27.1115 19.3028 27.1115 20.4504C27.1115 21.5984 26.7005 22.5828 25.8785 23.4034C25.0565 24.2238 24.07 24.6339 22.919 24.6339ZM3.90403 40.4609C3.57336 40.4609 3.3017 40.3544 3.08903 40.1414C2.87603 39.9284 2.76953 39.6566 2.76953 39.3259C2.76953 38.9953 2.87603 38.7236 3.08903 38.5109C3.3017 38.2979 3.57336 38.1914 3.90403 38.1914H44.096C44.4267 38.1914 44.6984 38.2981 44.911 38.5114C45.124 38.7244 45.2305 38.9961 45.2305 39.3264C45.2305 39.6571 45.124 39.9288 44.911 40.1414C44.6984 40.3544 44.4267 40.4609 44.096 40.4609H3.90403ZM7.88453 35.4609C7.1002 35.4609 6.42336 35.1763 5.85403 34.6069C5.2847 34.0376 5.00003 33.3608 5.00003 32.5764V10.3459C5.00003 9.5616 5.2847 8.88461 5.85403 8.31494C6.42336 7.74561 7.1002 7.46094 7.88453 7.46094H40.1155C40.8999 7.46094 41.5767 7.74561 42.146 8.31494C42.7154 8.88461 43 9.5616 43 10.3459V32.5764C43 33.3608 42.7154 34.0376 42.146 34.6069C41.5767 35.1763 40.8999 35.4609 40.1155 35.4609H7.88453Z" fill="url(#paint0_linear_954_7521)"/>
</g>
<defs>
<linearGradient id="paint0_linear_954_7521" x1="42.3355" y1="7.46094" x2="8.41584" y2="42.2048" gradientUnits="userSpaceOnUse">
<stop stop-color="#002FDF"/>
<stop offset="1" stop-color="#4D62B0"/>
</linearGradient>
</defs>
</svg>
