<svg width="48" height="48" viewBox="0 0 48 48" fill="none" xmlns="http://www.w3.org/2000/svg">
<mask id="mask0_953_7378" style="mask-type:alpha" maskUnits="userSpaceOnUse" x="0" y="0" width="48" height="48">
<rect width="48" height="48" fill="#D9D9D9"/>
</mask>
<g mask="url(#mask0_953_7378)">
<path d="M20.0033 32.769C23.5373 32.769 26.5471 31.5242 29.0328 29.0345C31.5188 26.5445 32.7617 23.5292 32.7617 19.9885C32.7617 16.4555 31.5188 13.4523 29.0328 10.979C26.5471 8.506 23.5373 7.2695 20.0033 7.2695C16.4692 7.2695 13.4686 8.506 11.0013 10.979C8.53392 13.4523 7.30025 16.4555 7.30025 19.9885C7.30025 23.5292 8.53525 26.5445 11.0053 29.0345C13.4753 31.5242 16.4746 32.769 20.0033 32.769ZM20.0213 25.3115C19.6969 25.3115 19.4284 25.2028 19.2158 24.9855C19.0028 24.7678 18.8963 24.4983 18.8963 24.177V13.9425C18.8963 13.6335 19.0059 13.3672 19.2253 13.1435C19.4446 12.9195 19.7164 12.8075 20.0408 12.8075C20.3651 12.8075 20.6336 12.9195 20.8463 13.1435C21.0593 13.3672 21.1658 13.6335 21.1658 13.9425V24.177C21.1658 24.4983 21.0561 24.7678 20.8368 24.9855C20.6174 25.2028 20.3456 25.3115 20.0213 25.3115ZM13.0023 25.3115C12.6779 25.3115 12.4092 25.2028 12.1962 24.9855C11.9836 24.7678 11.8772 24.4983 11.8772 24.177V17.9575C11.8772 17.6362 11.9869 17.3668 12.2063 17.1495C12.4256 16.9318 12.6974 16.823 13.0217 16.823C13.3457 16.823 13.6143 16.9318 13.8273 17.1495C14.0399 17.3668 14.1463 17.6362 14.1463 17.9575V24.177C14.1463 24.4983 14.0366 24.7678 13.8173 24.9855C13.5979 25.2028 13.3263 25.3115 13.0023 25.3115ZM27.0598 25.3115C26.7354 25.3115 26.4669 25.2028 26.2543 24.9855C26.0413 24.7678 25.9348 24.4983 25.9348 24.177V19.969C25.9348 19.6477 26.0444 19.3783 26.2638 19.161C26.4831 18.9433 26.7549 18.8345 27.0793 18.8345C27.4036 18.8345 27.6721 18.9433 27.8848 19.161C28.0977 19.3783 28.2043 19.6477 28.2043 19.969V24.177C28.2043 24.4983 28.0946 24.7678 27.8752 24.9855C27.6559 25.2028 27.3841 25.3115 27.0598 25.3115ZM20.0003 35C15.8406 35 12.3059 33.5388 9.39625 30.6165C6.48625 27.6942 5.03125 24.151 5.03125 19.987C5.03125 15.7847 6.48242 12.2362 9.38475 9.3415C12.2874 6.44717 15.8298 5 20.0118 5C24.1834 5 27.7296 6.45 30.6503 9.35C33.5706 12.2497 35.0308 15.7893 35.0308 19.969C35.0308 21.8367 34.7122 23.6043 34.0753 25.272C33.4379 26.9393 32.5424 28.4345 31.3888 29.7575L42.2192 40.5885C42.4426 40.8072 42.5491 41.0695 42.5388 41.3755C42.5284 41.6815 42.4211 41.9493 42.2168 42.179C42.0121 42.4083 41.7454 42.5198 41.4168 42.5135C41.0878 42.5072 40.8118 42.3923 40.5888 42.169L29.8078 31.3575C28.4881 32.4935 26.9919 33.3847 25.3193 34.031C23.6466 34.677 21.8736 35 20.0003 35Z" fill="url(#paint0_linear_953_7378)"/>
</g>
<defs>
<linearGradient id="paint0_linear_953_7378" x1="42.5394" y1="2.9159" x2="5.02538" y2="42.5082" gradientUnits="userSpaceOnUse">
<stop stop-color="#F468AF"/>
<stop offset="1" stop-color="#D25F9A"/>
</linearGradient>
</defs>
</svg>
