<svg width="48" height="48" viewBox="0 0 48 48" fill="none" xmlns="http://www.w3.org/2000/svg">
<mask id="mask0_954_7533" style="mask-type:alpha" maskUnits="userSpaceOnUse" x="0" y="0" width="48" height="48">
<rect width="48" height="48" fill="#D9D9D9"/>
</mask>
<g mask="url(#mask0_954_7533)">
<path d="M21.3388 43C20.9748 43 20.6478 42.882 20.3578 42.646C20.0681 42.41 19.8965 42.11 19.8428 41.746L19.1313 36.9885C18.4466 36.7552 17.7095 36.416 16.9198 35.971C16.1298 35.5263 15.449 35.0552 14.8773 34.5575L10.5388 36.5575C10.1748 36.7062 9.81065 36.7248 9.44631 36.6135C9.08231 36.5018 8.79898 36.2742 8.59631 35.9305L5.92731 31.2115C5.72465 30.8678 5.66565 30.5172 5.75031 30.1595C5.83498 29.8018 6.03881 29.5052 6.36181 29.2695L10.3428 26.3195C10.2761 25.9682 10.228 25.5847 10.1983 25.169C10.169 24.7537 10.1543 24.3703 10.1543 24.019C10.1543 23.6807 10.169 23.3038 10.1983 22.8885C10.228 22.4732 10.2761 22.0705 10.3428 21.6805L6.36181 18.7305C6.03881 18.4948 5.83815 18.195 5.75981 17.831C5.68181 17.4667 5.74398 17.1128 5.94631 16.7695L8.59631 12.108C8.79898 11.777 9.08231 11.5525 9.44631 11.4345C9.81065 11.3168 10.1748 11.3323 10.5388 11.481L14.8578 13.4425C15.4681 12.9448 16.1555 12.4768 16.9198 12.0385C17.6838 11.6002 18.4145 11.2745 19.1118 11.0615L19.8428 6.254C19.8965 5.89 20.0681 5.59 20.3578 5.354C20.6478 5.118 20.9748 5 21.3388 5H26.6618C27.0258 5 27.3528 5.118 27.6428 5.354C27.9325 5.59 28.1041 5.89 28.1578 6.254L28.8693 11.031C29.6053 11.3027 30.3413 11.6398 31.0773 12.0425C31.813 12.4448 32.4758 12.9115 33.0658 13.4425L37.4808 11.481C37.8451 11.3323 38.2041 11.3168 38.5578 11.4345C38.9118 11.5525 39.19 11.777 39.3923 12.108L42.0733 16.7885C42.276 17.1322 42.335 17.4912 42.2503 17.8655C42.1656 18.2398 41.9618 18.5282 41.6388 18.7305L37.5808 21.6575C37.6731 22.0552 37.731 22.4552 37.7543 22.8575C37.7773 23.2602 37.7888 23.641 37.7888 24C37.7888 24.346 37.774 24.7152 37.7443 25.1075C37.715 25.4998 37.6605 25.9077 37.5808 26.331L41.5808 29.2695C41.9041 29.4718 42.1113 29.7602 42.2023 30.1345C42.2933 30.5088 42.2375 30.8678 42.0348 31.2115L39.4043 35.9115C39.1886 36.2552 38.8956 36.4827 38.5253 36.594C38.1546 36.7057 37.7938 36.6872 37.4428 36.5385L33.0658 34.5385C32.4425 35.0615 31.77 35.5442 31.0483 35.9865C30.3266 36.4288 29.6003 36.7563 28.8693 36.969L28.1578 41.746C28.1041 42.11 27.9325 42.41 27.6428 42.646C27.3528 42.882 27.0258 43 26.6618 43H21.3388ZM23.9428 29.6345C25.5118 29.6345 26.8431 29.0877 27.9368 27.994C29.0305 26.9007 29.5773 25.5693 29.5773 24C29.5773 22.4307 29.0305 21.0993 27.9368 20.006C26.8431 18.9123 25.5118 18.3655 23.9428 18.3655C22.3861 18.3655 21.0578 18.9123 19.9578 20.006C18.8581 21.0993 18.3083 22.4307 18.3083 24C18.3083 25.5693 18.8581 26.9007 19.9578 27.994C21.0578 29.0877 22.3861 29.6345 23.9428 29.6345Z" fill="url(#paint0_linear_954_7533)"/>
</g>
<defs>
<linearGradient id="paint0_linear_954_7533" x1="42.2877" y1="2.88889" x2="4.23696" y2="41.5473" gradientUnits="userSpaceOnUse">
<stop stop-color="#F468AF"/>
<stop offset="1" stop-color="#D25F9A"/>
</linearGradient>
</defs>
</svg>
