<svg width="48" height="48" viewBox="0 0 48 48" fill="none" xmlns="http://www.w3.org/2000/svg">
<mask id="mask0_945_10787" style="mask-type:alpha" maskUnits="userSpaceOnUse" x="0" y="0" width="48" height="48">
<rect width="48" height="48" fill="#D9D9D9"/>
</mask>
<g mask="url(#mask0_945_10787)">
<path d="M42.1155 17.2847C42.8565 17.2847 43.5225 17.5802 44.1135 18.1712C44.7045 18.7626 45 19.4287 45 20.1697V23.4812C45 23.7966 44.9647 24.1542 44.894 24.5542C44.8237 24.9542 44.7243 25.2991 44.596 25.5887L39.0075 38.6042C38.7205 39.2656 38.2448 39.8302 37.5805 40.2982C36.9165 40.7662 36.2205 41.0002 35.4925 41.0002H16.123C15.3283 41.0002 14.6488 40.7182 14.0845 40.1542C13.5205 39.5899 13.2385 38.9104 13.2385 38.1157V18.4657C13.2385 18.0991 13.3135 17.7387 13.4635 17.3847C13.6135 17.0311 13.8155 16.7209 14.0695 16.4542L24.2845 5.88123C24.6488 5.50423 25.0822 5.27206 25.5845 5.18473C26.0872 5.09773 26.5577 5.17606 26.996 5.41973C27.4217 5.66306 27.741 6.02072 27.954 6.49272C28.1667 6.96439 28.2192 7.46556 28.1115 7.99622L26.2115 17.2847H42.1155ZM7.773 41.0002C7.01933 41.0002 6.36867 40.7266 5.821 40.1792C5.27367 39.6316 5 38.9809 5 38.2272V20.0582C5 19.3169 5.27367 18.6694 5.821 18.1157C6.36867 17.5617 7.01933 17.2847 7.773 17.2847H8.1965C8.95017 17.2847 9.60067 17.5617 10.148 18.1157C10.6957 18.6694 10.9695 19.3169 10.9695 20.0582V38.2462C10.9695 39.0002 10.6957 39.6477 10.148 40.1887C9.60067 40.7297 8.95017 41.0002 8.1965 41.0002H7.773Z" fill="url(#paint0_linear_945_10787)"/>
</g>
<defs>
<linearGradient id="paint0_linear_945_10787" x1="42.2727" y1="5.15039" x2="5.67065" y2="37.6613" gradientUnits="userSpaceOnUse">
<stop stop-color="#002FDF"/>
<stop offset="1" stop-color="#4D62B0"/>
</linearGradient>
</defs>
</svg>
