<svg width="24" height="24" viewBox="0 0 24 24" fill="none" xmlns="http://www.w3.org/2000/svg">
<mask id="mask0_947_10818" style="mask-type:alpha" maskUnits="userSpaceOnUse" x="0" y="0" width="24" height="24">
<rect width="24" height="24" fill="#D9D9D9"/>
</mask>
<g mask="url(#mask0_947_10818)">
<path d="M10.9492 13.066L9.32623 11.4582C9.18773 11.3197 9.01623 11.2489 8.81173 11.2457C8.60723 11.2425 8.4274 11.3185 8.27223 11.4735C8.1274 11.6185 8.05498 11.7941 8.05498 12.0005C8.05498 12.2068 8.1274 12.3825 8.27223 12.5275L10.3165 14.5717C10.4973 14.7524 10.7082 14.8427 10.9492 14.8427C11.1902 14.8427 11.4012 14.7524 11.582 14.5717L15.7262 10.4275C15.8749 10.2786 15.9482 10.1045 15.9462 9.90521C15.9444 9.70587 15.8711 9.52862 15.7262 9.37346C15.5711 9.21845 15.3928 9.13837 15.1915 9.13321C14.9903 9.12804 14.8122 9.20304 14.657 9.35821L10.9492 13.066ZM8.40898 21.1832L7.02623 18.8582L4.41073 18.2965C4.1864 18.253 4.00723 18.135 3.87323 17.9427C3.73923 17.7504 3.68573 17.542 3.71273 17.3177L3.96848 14.6275L2.18973 12.5927C2.0359 12.4287 1.95898 12.2313 1.95898 12.0005C1.95898 11.7696 2.0359 11.5722 2.18973 11.4082L3.96848 9.37346L3.71273 6.68321C3.68573 6.45887 3.73923 6.25054 3.87323 6.05821C4.00723 5.86587 4.1864 5.74796 4.41073 5.70446L7.02623 5.14271L8.40898 2.81771C8.52948 2.62037 8.69357 2.48579 8.90123 2.41396C9.1089 2.34212 9.31982 2.35304 9.53398 2.44671L11.9992 3.48896L14.4645 2.44671C14.6787 2.35304 14.8896 2.34212 15.0972 2.41396C15.3049 2.48579 15.469 2.62037 15.5895 2.81771L16.9722 5.14271L19.5877 5.70446C19.8121 5.74796 19.9912 5.86587 20.1252 6.05821C20.2592 6.25054 20.3127 6.45887 20.2857 6.68321L20.03 9.37346L21.8087 11.4082C21.9626 11.5722 22.0395 11.7696 22.0395 12.0005C22.0395 12.2313 21.9626 12.4287 21.8087 12.5927L20.03 14.6275L20.2857 17.3177C20.3127 17.542 20.2592 17.7504 20.1252 17.9427C19.9912 18.135 19.8121 18.253 19.5877 18.2965L16.9722 18.8582L15.5895 21.1832C15.469 21.3805 15.3049 21.5151 15.0972 21.587C14.8896 21.6588 14.6787 21.6479 14.4645 21.5542L11.9992 20.512L9.53398 21.5542C9.31982 21.6479 9.1089 21.6588 8.90123 21.587C8.69357 21.5151 8.52948 21.3805 8.40898 21.1832Z" fill="url(#paint0_linear_947_10818)"/>
</g>
<defs>
<linearGradient id="paint0_linear_947_10818" x1="20.6704" y1="2.36719" x2="1.20147" y2="18.5205" gradientUnits="userSpaceOnUse">
<stop stop-color="#DEA300"/>
<stop offset="1" stop-color="#FFD968"/>
</linearGradient>
</defs>
</svg>
