<svg width="25" height="24" viewBox="0 0 25 24" fill="none" xmlns="http://www.w3.org/2000/svg">
<mask id="mask0_3033_2292" style="mask-type:alpha" maskUnits="userSpaceOnUse" x="0" y="0" width="25" height="24">
<rect x="0.333496" width="24" height="24" fill="#D9D9D9"/>
</mask>
<g mask="url(#mask0_3033_2292)">
<path d="M16.4776 7.80375L7.14482 17.127C7.00632 17.2653 6.83232 17.3329 6.62282 17.3298C6.41315 17.3266 6.23907 17.2558 6.10057 17.1173C5.96223 16.9788 5.89307 16.8063 5.89307 16.6C5.89307 16.3937 5.96223 16.2213 6.10057 16.0828L15.4238 6.75H7.22757C7.01507 6.75 6.8369 6.67808 6.69307 6.53425C6.5494 6.39042 6.47757 6.21225 6.47757 5.99975C6.47757 5.78708 6.5494 5.609 6.69307 5.4655C6.8369 5.32183 7.01507 5.25 7.22757 5.25H17.0736C17.3297 5.25 17.5444 5.33658 17.7176 5.50975C17.8909 5.68308 17.9776 5.89775 17.9776 6.15375V16C17.9776 16.2125 17.9057 16.3906 17.7618 16.5343C17.618 16.6781 17.4398 16.75 17.2273 16.75C17.0147 16.75 16.8365 16.6781 16.6928 16.5343C16.5493 16.3906 16.4776 16.2125 16.4776 16V7.80375Z" fill="#002FDF"/>
</g>
</svg>
