<svg width="48" height="48" viewBox="0 0 48 48" fill="none" xmlns="http://www.w3.org/2000/svg">
<mask id="mask0_566_1369" style="mask-type:alpha" maskUnits="userSpaceOnUse" x="0" y="0" width="48" height="48">
<rect width="48" height="48" fill="#D9D9D9"/>
</mask>
<g mask="url(#mask0_566_1369)">
<path d="M34.654 25.0541H10.1345C9.80383 25.0541 9.53217 24.9476 9.3195 24.7346C9.1065 24.5219 9 24.2501 9 23.9191C9 23.5884 9.1065 23.3168 9.3195 23.1041C9.53217 22.8911 9.80383 22.7846 10.1345 22.7846H34.654L26.831 14.9616C26.6077 14.7386 26.498 14.4751 26.502 14.1711C26.5057 13.8674 26.6255 13.5976 26.8615 13.3616C27.0845 13.1386 27.348 13.0271 27.652 13.0271C27.9557 13.0271 28.2192 13.1451 28.4425 13.3811L37.9885 22.9076C38.1422 23.0743 38.2557 23.2378 38.329 23.3981C38.402 23.5584 38.4385 23.7321 38.4385 23.9191C38.4385 24.1191 38.402 24.2993 38.329 24.4596C38.2557 24.6199 38.1422 24.7771 37.9885 24.9311L28.4925 34.4461C28.2692 34.6691 28.0057 34.7839 27.702 34.7906C27.398 34.7969 27.1282 34.6821 26.8925 34.4461C26.6565 34.2104 26.5385 33.9388 26.5385 33.6311C26.5385 33.3231 26.6565 33.0513 26.8925 32.8156L34.654 25.0541Z" fill="#1C1B1F"/>
</g>
</svg>
