<svg width="38" height="38" viewBox="0 0 38 38" fill="none" xmlns="http://www.w3.org/2000/svg">
<path d="M19 10.2695C16.577 10.2695 14.5162 11.1188 12.8175 12.8175C11.1188 14.5162 10.2695 16.577 10.2695 19C10.2695 20.8873 10.8175 22.5898 11.9135 24.1075C13.0095 25.6255 14.4512 26.682 16.2385 27.277C16.5692 27.3923 16.8223 27.5885 16.998 27.8655C17.1737 28.1422 17.2205 28.446 17.1385 28.777C17.0642 29.0537 16.9103 29.2748 16.677 29.4405C16.4437 29.6058 16.1822 29.6577 15.8925 29.596C13.5385 28.9063 11.6347 27.5813 10.181 25.621C8.727 23.6607 8 21.4537 8 19C8 15.9487 9.0705 13.3525 11.2115 11.2115C13.3525 9.0705 15.9487 8 19 8C21.441 8 23.6365 8.72367 25.5865 10.171C27.5365 11.6187 28.8563 13.5193 29.546 15.873C29.6203 16.15 29.5768 16.4115 29.4155 16.6575C29.2538 16.9038 29.0282 17.0577 28.7385 17.119C28.4078 17.214 28.1072 17.1705 27.8365 16.9885C27.5658 16.8065 27.3728 16.5502 27.2575 16.2195C26.6628 14.4322 25.6065 12.9937 24.0885 11.904C22.5705 10.8143 20.8743 10.2695 19 10.2695ZM19 2.2695C14.3437 2.2695 10.3912 3.89383 7.1425 7.1425C3.89383 10.3912 2.2695 14.3437 2.2695 19C2.2695 23.6873 3.85083 27.6078 7.0135 30.7615C10.1762 33.9155 14.0678 35.5617 18.6885 35.7C19.0192 35.7203 19.291 35.8422 19.504 36.0655C19.7167 36.2885 19.823 36.559 19.823 36.877C19.823 37.187 19.7115 37.4465 19.4885 37.6555C19.2655 37.8645 18.9988 37.969 18.6885 37.969C16.0655 37.941 13.6207 37.4193 11.354 36.404C9.08733 35.3883 7.11417 34.019 5.4345 32.296C3.75517 30.573 2.42967 28.566 1.458 26.275C0.486 23.984 0 21.559 0 19C0 16.3743 0.499334 13.9058 1.498 11.5945C2.49667 9.28283 3.85117 7.27183 5.5615 5.5615C7.27183 3.85117 9.28283 2.49667 11.5945 1.498C13.9058 0.499334 16.3743 0 19 0C24.1383 0 28.562 1.79483 32.271 5.3845C35.98 8.9745 37.8793 13.4028 37.969 18.6695C37.969 18.9795 37.8678 19.239 37.6655 19.448C37.4628 19.657 37.2063 19.7718 36.896 19.7925C36.578 19.8128 36.3043 19.7133 36.075 19.494C35.8453 19.275 35.7267 19.0002 35.719 18.6695C35.527 14.0925 33.8648 10.2148 30.7325 7.0365C27.6005 3.8585 23.6897 2.2695 19 2.2695ZM33.7925 36.769L26.2115 29.2L24.769 33.596C24.6357 33.9497 24.3922 34.1215 24.0385 34.1115C23.6845 34.1012 23.4575 33.919 23.3575 33.565L19.381 20.2925C19.3143 20.0052 19.3777 19.7647 19.571 19.571C19.7647 19.3777 20.0052 19.3143 20.2925 19.381L33.5845 23.3575C33.9255 23.4575 34.1012 23.6845 34.1115 24.0385C34.1215 24.3922 33.956 24.6293 33.615 24.75L29.2 26.2115L36.8 33.7925C37.2257 34.2178 37.4385 34.7138 37.4385 35.2805C37.4385 35.8472 37.2257 36.3433 36.8 36.769C36.3743 37.1947 35.873 37.4075 35.296 37.4075C34.719 37.4075 34.2178 37.1947 33.7925 36.769Z" fill="url(#paint0_linear_1_4168)"/>
<defs>
<linearGradient id="paint0_linear_1_4168" x1="18.9845" y1="0" x2="18.9845" y2="37.969" gradientUnits="userSpaceOnUse">
<stop stop-color="#5C9DFF"/>
<stop offset="1" stop-color="#375E99"/>
</linearGradient>
</defs>
</svg>
