<svg width="32" height="40" viewBox="0 0 32 40" fill="none" xmlns="http://www.w3.org/2000/svg">
<path d="M6.5 40C4.7 40 3.16667 39.3667 1.9 38.1C0.633333 36.8333 0 35.3 0 33.5V6.5C0 4.7 0.633333 3.16667 1.9 1.9C3.16667 0.633333 4.7 0 6.5 0H29C29.8333 0 30.5417 0.291667 31.125 0.875C31.7083 1.45833 32 2.16667 32 3V28.75C32 29.05 31.9083 29.325 31.725 29.575C31.5417 29.825 31.3167 30.0167 31.05 30.15C30.3833 30.4167 29.875 30.8583 29.525 31.475C29.175 32.0917 29 32.7667 29 33.5C29 34.2 29.175 34.8583 29.525 35.475C29.875 36.0917 30.3833 36.5333 31.05 36.8C31.3833 36.9333 31.625 37.1583 31.775 37.475C31.925 37.7917 32 38.1333 32 38.5C32 38.9 31.8583 39.25 31.575 39.55C31.2917 39.85 30.9333 40 30.5 40H6.5ZM13.15 18.45H18.8L19.8 21.25C19.8667 21.4833 19.9917 21.6667 20.175 21.8C20.3583 21.9333 20.5833 22 20.85 22C21.25 22 21.5667 21.8333 21.8 21.5C22.0333 21.1667 22.0667 20.8167 21.9 20.45L17.5 8.75C17.4333 8.51667 17.3 8.33333 17.1 8.2C16.9 8.06667 16.6667 8 16.4 8H15.5C15.2333 8 15 8.06667 14.8 8.2C14.6 8.33333 14.4667 8.51667 14.4 8.75L10 20.5C9.83333 20.8667 9.875 21.2083 10.125 21.525C10.375 21.8417 10.7 22 11.1 22C11.3667 22 11.5917 21.9333 11.775 21.8C11.9583 21.6667 12.0833 21.4833 12.15 21.25L13.15 18.45ZM13.85 16.4L15.9 10.6H16.05L18.05 16.4H13.85ZM6.5 37H26.95C26.65 36.5 26.4167 35.95 26.25 35.35C26.0833 34.75 26 34.1333 26 33.5C26 32.8333 26.0833 32.2083 26.25 31.625C26.4167 31.0417 26.6667 30.5 27 30H6.5C5.53333 30 4.70833 30.3417 4.025 31.025C3.34167 31.7083 3 32.5333 3 33.5C3 34.4667 3.34167 35.2917 4.025 35.975C4.70833 36.6583 5.53333 37 6.5 37Z" fill="url(#paint0_linear_1_6366)"/>
<defs>
<linearGradient id="paint0_linear_1_6366" x1="32" y1="0" x2="-1.5" y2="40" gradientUnits="userSpaceOnUse">
<stop stop-color="#5A46E3"/>
<stop offset="1" stop-color="#4533BE"/>
</linearGradient>
</defs>
</svg>
