<svg width="38" height="38" viewBox="0 0 38 38" fill="none" xmlns="http://www.w3.org/2000/svg">
<path d="M5 38C3.60267 38 2.42 37.516 1.452 36.548C0.484 35.58 0 34.3973 0 33V29.0385C0 28.5262 0.173333 28.0968 0.52 27.7505C0.866333 27.4042 1.29567 27.231 1.808 27.231H6V3.6155C6 2.62117 6.354 1.77 7.062 1.062C7.77 0.354 8.62117 0 9.6155 0H30.3845C31.3788 0 32.23 0.354 32.938 1.062C33.646 1.77 34 2.62117 34 3.6155V15.423C34 15.848 33.8562 16.2043 33.5685 16.492C33.2808 16.7793 32.9245 16.923 32.4995 16.923C32.0742 16.923 31.718 16.7793 31.431 16.492C31.1437 16.2043 31 15.848 31 15.423V3.6155C31 3.43583 30.9423 3.28833 30.827 3.173C30.7117 3.05767 30.5642 3 30.3845 3H9.6155C9.43583 3 9.28833 3.05767 9.173 3.173C9.05767 3.28833 9 3.43583 9 3.6155V27.231H16.873C17.529 27.231 17.9783 27.5245 18.221 28.1115C18.4633 28.6988 18.3563 29.2207 17.9 29.677C17.5717 30.005 17.314 30.39 17.127 30.832C16.9397 31.2743 16.846 31.7393 16.846 32.227V36.191C16.846 36.7073 16.6728 37.1378 16.3265 37.4825C15.9798 37.8275 15.5505 38 15.0385 38H5ZM21.231 36.192V33.469C21.231 33.228 21.2745 32.9935 21.3615 32.7655C21.4488 32.5372 21.586 32.3397 21.773 32.173L32.0885 21.9075C32.3372 21.6718 32.6057 21.5002 32.894 21.3925C33.1823 21.2848 33.4707 21.231 33.759 21.231C34.0733 21.231 34.3775 21.2898 34.6715 21.4075C34.9655 21.5255 35.2327 21.7025 35.473 21.9385L37.323 23.8075C37.5383 24.0565 37.705 24.3258 37.823 24.6155C37.941 24.9052 38 25.1948 38 25.4845C38 25.7742 37.9493 26.069 37.848 26.369C37.7467 26.669 37.5717 26.9433 37.323 27.192L27.0545 37.461C26.8898 37.6253 26.6935 37.7563 26.4655 37.854C26.2372 37.9513 26.0025 38 25.7615 38H23.0385C22.5262 38 22.0968 37.8267 21.7505 37.48C21.4042 37.1337 21.231 36.7043 21.231 36.192ZM33.7655 27.4155L35.6155 25.4845L33.7655 23.6155L31.8655 25.5155L33.7655 27.4155ZM12.8845 15.154H27.1155C27.5405 15.154 27.8967 15.2978 28.184 15.5855C28.4717 15.8728 28.6155 16.2292 28.6155 16.6545C28.6155 17.0798 28.4717 17.436 28.184 17.723C27.8967 18.0103 27.5405 18.154 27.1155 18.154H12.8845C12.4595 18.154 12.1033 18.0102 11.816 17.7225C11.5283 17.4348 11.3845 17.0783 11.3845 16.653C11.3845 16.228 11.5283 15.8718 11.816 15.5845C12.1033 15.2975 12.4595 15.154 12.8845 15.154ZM12.8845 9.3845H27.1155C27.5405 9.3845 27.8967 9.52833 28.184 9.816C28.4717 10.1037 28.6155 10.4602 28.6155 10.8855C28.6155 11.3105 28.4717 11.6667 28.184 11.954C27.8967 12.241 27.5405 12.3845 27.1155 12.3845H12.8845C12.4595 12.3845 12.1033 12.2407 11.816 11.953C11.5283 11.6653 11.3845 11.309 11.3845 10.884C11.3845 10.4587 11.5283 10.1025 11.816 9.8155C12.1033 9.52817 12.4595 9.3845 12.8845 9.3845Z" fill="url(#paint0_linear_1_5288)"/>
<defs>
<linearGradient id="paint0_linear_1_5288" x1="35.4091" y1="8.57628e-07" x2="-2.66656" y2="30.3108" gradientUnits="userSpaceOnUse">
<stop stop-color="#002FDF"/>
<stop offset="1" stop-color="#4D62B0"/>
</linearGradient>
</defs>
</svg>
