<svg width="36" height="36" viewBox="0 0 36 36" fill="none" xmlns="http://www.w3.org/2000/svg">
<path d="M1.5 16.5C1.075 16.5 0.718834 16.3562 0.4315 16.0685C0.143834 15.7812 0 15.425 0 15V1.5C0 1.075 0.143834 0.718666 0.4315 0.431C0.718834 0.143666 1.075 0 1.5 0H15C15.425 0 15.7813 0.143666 16.069 0.431C16.3563 0.718666 16.5 1.075 16.5 1.5V15C16.5 15.425 16.3563 15.7812 16.069 16.0685C15.7813 16.3562 15.425 16.5 15 16.5H1.5ZM21 16.5C20.575 16.5 20.2188 16.3562 19.9315 16.0685C19.6438 15.7812 19.5 15.425 19.5 15V1.5C19.5 1.075 19.6438 0.718666 19.9315 0.431C20.2188 0.143666 20.575 0 21 0H34.5C34.925 0 35.2813 0.143666 35.569 0.431C35.8563 0.718666 36 1.075 36 1.5V15C36 15.425 35.8563 15.7812 35.569 16.0685C35.2813 16.3562 34.925 16.5 34.5 16.5H21ZM1.5 36C1.075 36 0.718834 35.8562 0.4315 35.5685C0.143834 35.2812 0 34.925 0 34.5V21C0 20.575 0.143834 20.2187 0.4315 19.931C0.718834 19.6437 1.075 19.5 1.5 19.5H15C15.425 19.5 15.7813 19.6437 16.069 19.931C16.3563 20.2187 16.5 20.575 16.5 21V34.5C16.5 34.925 16.3563 35.2812 16.069 35.5685C15.7813 35.8562 15.425 36 15 36H1.5ZM27.741 36C27.3137 36 26.9583 35.8562 26.675 35.5685C26.3917 35.2812 26.25 34.925 26.25 34.5V29.25H20.95C20.55 29.25 20.2083 29.1053 19.925 28.816C19.6417 28.527 19.5 28.1687 19.5 27.741C19.5 27.3137 19.6438 26.9583 19.9315 26.675C20.2188 26.3917 20.575 26.25 21 26.25H26.25V20.95C26.25 20.55 26.3947 20.2083 26.684 19.925C26.973 19.6417 27.3313 19.5 27.759 19.5C28.1863 19.5 28.5417 19.6437 28.825 19.931C29.1083 20.2187 29.25 20.575 29.25 21V26.25H34.55C34.95 26.25 35.2917 26.3947 35.575 26.684C35.8583 26.973 36 27.3313 36 27.759C36 28.1863 35.8563 28.5417 35.569 28.825C35.2813 29.1083 34.925 29.25 34.5 29.25H29.25V34.55C29.25 34.95 29.1053 35.2917 28.816 35.575C28.527 35.8583 28.1687 36 27.741 36Z" fill="url(#paint0_linear_1_5027)"/>
<defs>
<linearGradient id="paint0_linear_1_5027" x1="36" y1="-2" x2="-1.07288e-06" y2="36" gradientUnits="userSpaceOnUse">
<stop stop-color="#F468AF"/>
<stop offset="1" stop-color="#D25F9A"/>
</linearGradient>
</defs>
</svg>
