<svg width="41" height="36" viewBox="0 0 41 36" fill="none" xmlns="http://www.w3.org/2000/svg">
<path d="M32.05 31.15C33.5167 31.15 34.7333 30.6667 35.7 29.7C36.6667 28.7333 37.15 27.5167 37.15 26.05C37.15 24.5833 36.6667 23.3667 35.7 22.4C34.7333 21.4333 33.5167 20.95 32.05 20.95C30.5833 20.95 29.3667 21.4333 28.4 22.4C27.4333 23.3667 26.95 24.5833 26.95 26.05C26.95 27.5167 27.4333 28.7333 28.4 29.7C29.3667 30.6667 30.5833 31.15 32.05 31.15ZM31.9 35.9C31.5333 35.9 31.2 35.7667 30.9 35.5C30.6 35.2333 30.4333 34.9167 30.4 34.55L30.3 33.5C29.5333 33.2667 28.8333 32.9583 28.2 32.575C27.5667 32.1917 27.0167 31.7833 26.55 31.35L25.7 31.75C25.3333 31.9167 24.9667 31.9417 24.6 31.825C24.2333 31.7083 23.9333 31.4833 23.7 31.15L23.5 30.85C23.2667 30.4833 23.1833 30.1083 23.25 29.725C23.3167 29.3417 23.5167 29.0167 23.85 28.75L24.6 28.15C24.4333 27.5167 24.35 26.825 24.35 26.075C24.35 25.325 24.4333 24.6333 24.6 24L23.85 23.4C23.5167 23.1333 23.3167 22.8 23.25 22.4C23.1833 22 23.2667 21.6167 23.5 21.25L23.7 20.95C23.9333 20.5833 24.2417 20.35 24.625 20.25C25.0083 20.15 25.3833 20.1833 25.75 20.35L26.55 20.75C27.0167 20.35 27.5667 19.9583 28.2 19.575C28.8333 19.1917 29.5333 18.8833 30.3 18.65L30.4 17.55C30.4333 17.1833 30.6 16.8667 30.9 16.6C31.2 16.3333 31.5333 16.2 31.9 16.2H32.25C32.6167 16.2 32.9333 16.325 33.2 16.575C33.4667 16.825 33.6333 17.1333 33.7 17.5L33.85 18.65C34.6167 18.8833 35.3167 19.1917 35.95 19.575C36.5833 19.9583 37.1333 20.35 37.6 20.75L38.4 20.35C38.7667 20.1833 39.1417 20.15 39.525 20.25C39.9083 20.35 40.2167 20.5833 40.45 20.95L40.65 21.25C40.8833 21.6167 40.9667 22 40.9 22.4C40.8333 22.8 40.6333 23.1333 40.3 23.4L39.55 24C39.7167 24.6333 39.8 25.325 39.8 26.075C39.8 26.825 39.7167 27.5167 39.55 28.15L40.3 28.75C40.6333 29.0167 40.8333 29.3417 40.9 29.725C40.9667 30.1083 40.8833 30.4833 40.65 30.85L40.45 31.2C40.2167 31.5333 39.9167 31.75 39.55 31.85C39.1833 31.95 38.8167 31.9167 38.45 31.75L37.6 31.35C37.1333 31.7833 36.5833 32.1917 35.95 32.575C35.3167 32.9583 34.6167 33.2667 33.85 33.5L33.7 34.6C33.6333 34.9667 33.4667 35.275 33.2 35.525C32.9333 35.775 32.6167 35.9 32.25 35.9H31.9ZM3 32C2.2 32 1.5 31.6917 0.9 31.075C0.3 30.4583 0 29.7667 0 29V3C0 2.23333 0.3 1.54167 0.9 0.925C1.5 0.308333 2.2 0 3 0H15.8C16.2 0 16.5917 0.0833333 16.975 0.25C17.3583 0.416667 17.6833 0.633333 17.95 0.9L20.05 3H37C37.7667 3 38.4583 3.30833 39.075 3.925C39.6917 4.54167 40 5.23333 40 6V13.6C40 14.0667 39.8083 14.4 39.425 14.6C39.0417 14.8 38.65 14.7833 38.25 14.55C37.2833 14.05 36.2833 13.6667 35.25 13.4C34.2167 13.1333 33.15 13 32.05 13C28.3167 13 25.2167 14.2917 22.75 16.875C20.2833 19.4583 19.05 22.5 19.05 26C19.05 26.7333 19.1083 27.4583 19.225 28.175C19.3417 28.8917 19.5167 29.5833 19.75 30.25C19.9167 30.6833 19.875 31.0833 19.625 31.45C19.375 31.8167 19.0333 32 18.6 32H3Z" fill="url(#paint0_linear_1_6665)"/>
<defs>
<linearGradient id="paint0_linear_1_6665" x1="20.4611" y1="0" x2="-1.14901e-06" y2="36" gradientUnits="userSpaceOnUse">
<stop stop-color="#01E1ED"/>
<stop offset="1" stop-color="#00B6C0"/>
</linearGradient>
</defs>
</svg>
