<svg width="39" height="40" viewBox="0 0 39 40" fill="none" xmlns="http://www.w3.org/2000/svg">
<path d="M23.154 39.845C22.3847 39.845 21.7308 39.5759 21.1925 39.0375C20.6538 38.4989 20.3845 37.845 20.3845 37.076V24.153C20.3845 23.3837 20.6538 22.7299 21.1925 22.1915C21.7308 21.6529 22.3847 21.3835 23.154 21.3835H36.077C36.846 21.3835 37.4998 21.6529 38.0385 22.1915C38.5768 22.7299 38.846 23.3837 38.846 24.153V37.076C38.846 37.845 38.5768 38.4989 38.0385 39.0375C37.4998 39.5759 36.846 39.845 36.077 39.845H23.154ZM14.6115 37.9991C14.2398 37.9991 13.9373 37.8959 13.704 37.6895C13.4707 37.4829 13.327 37.2142 13.273 36.8835L12.623 31.968C12.0873 31.7887 11.538 31.5375 10.975 31.2145C10.4123 30.8912 9.90916 30.545 9.46549 30.1761L5.99999 31.649C5.37165 31.926 4.74032 31.9529 4.10599 31.7295C3.47132 31.5065 2.97832 31.1015 2.62699 30.5145L0.372988 26.6066C0.021655 26.0196 -0.0795117 25.3984 0.0694883 24.743C0.218155 24.088 0.559155 23.5477 1.09249 23.122L4.08849 20.872C4.04249 20.5747 4.00982 20.276 3.99049 19.976C3.97116 19.6761 3.96149 19.3774 3.96149 19.08C3.96149 18.7954 3.97116 18.5062 3.99049 18.2125C4.00982 17.9189 4.04249 17.5977 4.08849 17.249L1.09249 14.999C0.559155 14.5734 0.221322 14.0297 0.0789884 13.368C-0.0633449 12.7067 0.041155 12.0824 0.392488 11.495L2.62699 7.64505C2.97832 7.07071 3.47132 6.66888 4.10599 6.43955C4.74032 6.20988 5.37165 6.23355 5.99999 6.51055L9.44599 7.96455C9.92832 7.58255 10.4432 7.23321 10.9905 6.91655C11.5378 6.59988 12.0757 6.34538 12.604 6.15305L13.1115 2.41055C13.2192 1.74921 13.5212 1.19221 14.0175 0.739548C14.5135 0.286881 15.1025 0.0605469 15.7845 0.0605469H20.2155C20.8975 0.0605469 21.4865 0.286881 21.9825 0.739548C22.4788 1.19221 22.7808 1.74921 22.8885 2.41055L23.377 6.17205C23.977 6.39005 24.5198 6.64455 25.0055 6.93555C25.4915 7.22655 25.982 7.56955 26.477 7.96455L30.0195 6.51055C30.6475 6.23355 31.2788 6.20988 31.9135 6.43955C32.5482 6.66888 33.041 7.07071 33.392 7.64505L35.627 11.5145C35.9783 12.1015 36.0795 12.7227 35.9305 13.378C35.7818 14.033 35.4408 14.5734 34.9075 14.999L32.6385 16.668C32.4845 16.7887 32.3172 16.874 32.1365 16.924C31.9558 16.974 31.7718 16.999 31.5845 16.999H24.2C24.0257 16.999 23.868 16.9452 23.727 16.8375C23.586 16.7299 23.4822 16.6055 23.4155 16.4645C22.9332 15.4542 22.2132 14.624 21.2555 13.974C20.2978 13.324 19.2203 12.999 18.023 12.999C16.359 12.999 14.943 13.583 13.775 14.751C12.607 15.919 12.023 17.335 12.023 18.999C12.023 20.222 12.3345 21.3155 12.9575 22.2795C13.5808 23.2439 14.4103 23.9605 15.446 24.4295C15.6 24.4962 15.7308 24.6034 15.8385 24.751C15.9462 24.8984 16 25.0592 16 25.2335V36.722C16 37.0734 15.8667 37.3741 15.6 37.6241C15.3333 37.8741 15.0038 37.9991 14.6115 37.9991ZM29.6155 32.4605C28.7822 32.4605 27.975 32.5785 27.194 32.8145C26.4133 33.0502 25.6858 33.4079 25.0115 33.8876C24.6038 34.1669 24.2948 34.4566 24.0845 34.7565C23.8742 35.0565 23.769 35.3669 23.769 35.6875C23.769 35.8952 23.846 36.0759 24 36.2295C24.1537 36.3835 24.3345 36.4605 24.5425 36.4605H34.8885C35.0422 36.4605 35.1762 36.3869 35.2905 36.2395C35.4045 36.0919 35.4615 35.9079 35.4615 35.6875C35.4615 35.3669 35.3563 35.0565 35.146 34.7565C34.9357 34.4566 34.6267 34.1669 34.219 33.8876C33.5447 33.4079 32.8172 33.0502 32.0365 32.8145C31.2558 32.5785 30.4488 32.4605 29.6155 32.4605ZM29.6155 30.6145C30.3845 30.6145 31.0383 30.3452 31.577 29.8065C32.1153 29.2682 32.3845 28.6144 32.3845 27.8451C32.3845 27.0761 32.1153 26.4222 31.577 25.8835C31.0383 25.3452 30.3845 25.076 29.6155 25.076C28.8462 25.076 28.1923 25.3452 27.654 25.8835C27.1153 26.4222 26.846 27.0761 26.846 27.8451C26.846 28.6144 27.1153 29.2682 27.654 29.8065C28.1923 30.3452 28.8462 30.6145 29.6155 30.6145Z" fill="url(#paint0_linear_1_5140)"/>
<defs>
<linearGradient id="paint0_linear_1_5140" x1="38.846" y1="0.0605469" x2="7.26636" y2="46.079" gradientUnits="userSpaceOnUse">
<stop stop-color="#5A46E3"/>
<stop offset="1" stop-color="#4533BE"/>
</linearGradient>
</defs>
</svg>
