<svg width="40" height="35" viewBox="0 0 40 35" fill="none" xmlns="http://www.w3.org/2000/svg">
<path d="M4.523 22.4115C3.254 22.4115 2.18283 21.9715 1.3095 21.0915C0.4365 20.2115 0 19.1438 0 17.8885C0 16.6332 0.44 15.5655 1.32 14.6855C2.2 13.8055 3.26767 13.3655 4.523 13.3655V6.9845C4.523 6.33183 4.77017 5.7585 5.2645 5.2645C5.7585 4.77017 6.33183 4.523 6.9845 4.523H15.477C15.477 3.254 15.917 2.18283 16.797 1.3095C17.677 0.4365 18.7447 0 20 0C21.2553 0 22.323 0.440001 23.203 1.32C24.083 2.2 24.523 3.26767 24.523 4.523H33.0155C33.6682 4.523 34.2415 4.77017 34.7355 5.2645C35.2298 5.7585 35.477 6.33183 35.477 6.9845V13.3655C36.746 13.3655 37.8172 13.8055 38.6905 14.6855C39.5635 15.5655 40 16.6332 40 17.8885C40 19.1438 39.56 20.2115 38.68 21.0915C37.8 21.9715 36.7323 22.4115 35.477 22.4115V32.5385C35.477 33.1912 35.2298 33.7647 34.7355 34.259C34.2415 34.753 33.6682 35 33.0155 35H6.9845C6.33183 35 5.7585 34.753 5.2645 34.259C4.77017 33.7647 4.523 33.1912 4.523 32.5385V22.4115ZM13.3925 18.181C13.8872 18.181 14.3038 18.0078 14.6425 17.6615C14.9808 17.3152 15.15 16.8947 15.15 16.4C15.15 15.905 14.9768 15.4883 14.6305 15.15C14.2842 14.8117 13.8637 14.6425 13.369 14.6425C12.8743 14.6425 12.4578 14.8157 12.1195 15.162C11.7808 15.508 11.6115 15.9285 11.6115 16.4235C11.6115 16.9182 11.7847 17.3347 12.131 17.673C12.4773 18.0117 12.8978 18.181 13.3925 18.181ZM26.631 18.181C27.1257 18.181 27.5422 18.0078 27.8805 17.6615C28.2192 17.3152 28.3885 16.8947 28.3885 16.4C28.3885 15.905 28.2153 15.4883 27.869 15.15C27.5227 14.8117 27.1022 14.6425 26.6075 14.6425C26.1128 14.6425 25.6962 14.8157 25.3575 15.162C25.0192 15.508 24.85 15.9285 24.85 16.4235C24.85 16.9182 25.0232 17.3347 25.3695 17.673C25.7158 18.0117 26.1363 18.181 26.631 18.181ZM13.35 27.3075H26.65C26.9713 27.3075 27.2408 27.198 27.4585 26.979C27.6758 26.7597 27.7845 26.4878 27.7845 26.1635C27.7845 25.8518 27.6758 25.5865 27.4585 25.3675C27.2408 25.1482 26.9713 25.0385 26.65 25.0385H13.35C13.0287 25.0385 12.7592 25.1513 12.5415 25.377C12.3242 25.6023 12.2155 25.874 12.2155 26.192C12.2155 26.51 12.3242 26.7755 12.5415 26.9885C12.7592 27.2012 13.0287 27.3075 13.35 27.3075Z" fill="url(#paint0_linear_1_39)"/>
<defs>
<linearGradient id="paint0_linear_1_39" x1="37.2727" y1="7.8992e-07" x2="1.44722" y2="32.5938" gradientUnits="userSpaceOnUse">
<stop stop-color="#DEA300"/>
<stop offset="1" stop-color="#FFD968"/>
</linearGradient>
</defs>
</svg>
