<svg width="44" height="36" viewBox="0 0 44 36" fill="none" xmlns="http://www.w3.org/2000/svg">
<path d="M19.85 17.15L16.65 13.95C16.35 13.65 16 13.5083 15.6 13.525C15.2 13.5417 14.85 13.7 14.55 14C14.25 14.3 14.1 14.65 14.1 15.05C14.1 15.45 14.25 15.8 14.55 16.1L18.8 20.35C19.1 20.65 19.45 20.8 19.85 20.8C20.25 20.8 20.6 20.65 20.9 20.35L30 11.85C30 11.4833 29.9667 11.1083 29.9 10.725C29.8333 10.3417 29.6667 10.0167 29.4 9.75C29.1 9.45 28.7417 9.3 28.325 9.3C27.9083 9.3 27.55 9.45 27.25 9.75L19.85 17.15ZM0 36V33H42.5C42.9333 33 43.2917 33.1417 43.575 33.425C43.8583 33.7083 44 34.0667 44 34.5C44 34.9333 43.8583 35.2917 43.575 35.575C43.2917 35.8583 42.9333 36 42.5 36H0ZM5 30C4.2 30 3.5 29.7 2.9 29.1C2.3 28.5 2 27.8 2 27V3C2 2.2 2.3 1.5 2.9 0.9C3.5 0.3 4.2 0 5 0H39C39.8 0 40.5 0.3 41.1 0.9C41.7 1.5 42 2.2 42 3V27C42 27.8 41.7 28.5 41.1 29.1C40.5 29.7 39.8 30 39 30H5Z" fill="url(#paint0_linear_7_765)"/>
<defs>
<linearGradient id="paint0_linear_7_765" x1="41" y1="8.1249e-07" x2="4" y2="36" gradientUnits="userSpaceOnUse">
<stop stop-color="#002FDF"/>
<stop offset="1" stop-color="#4D62B0"/>
</linearGradient>
</defs>
</svg>
