<svg width="34" height="36" viewBox="0 0 34 36" fill="none" xmlns="http://www.w3.org/2000/svg">
<path d="M28.7115 32.8494L26.546 34.9954C26.269 35.2724 25.9262 35.4077 25.5175 35.4014C25.1085 35.3947 24.7552 35.2427 24.4575 34.9454C24.1808 34.6684 24.0425 34.3236 24.0425 33.9109C24.0425 33.4982 24.1808 33.1534 24.4575 32.8764L26.573 30.7109L24.4575 28.5954C24.1808 28.3184 24.0425 27.9756 24.0425 27.5669C24.0425 27.1579 24.1808 26.8046 24.4575 26.5069C24.7552 26.1969 25.1117 26.0451 25.527 26.0514C25.9423 26.0577 26.2987 26.2096 26.596 26.5069L28.7115 28.6224L30.8075 26.4764C31.0845 26.1791 31.4307 26.0304 31.846 26.0304C32.2613 26.0304 32.6178 26.1791 32.9155 26.4764C33.2255 26.7867 33.3805 27.1431 33.3805 27.5454C33.3805 27.9481 33.2255 28.3046 32.9155 28.6149L30.8 30.7109L32.946 32.8569C33.2433 33.1546 33.3902 33.5059 33.3865 33.9109C33.3825 34.3159 33.2255 34.6672 32.9155 34.9649C32.6178 35.2416 32.2665 35.3819 31.8615 35.3859C31.4565 35.3896 31.1052 35.2427 30.8075 34.9454L28.7115 32.8494ZM5.5 32.9994C6.195 32.9994 6.78533 32.7564 7.271 32.2704C7.757 31.7847 8 31.1944 8 30.4994C8 29.8044 7.757 29.2141 7.271 28.7284C6.78533 28.2424 6.195 27.9994 5.5 27.9994C4.805 27.9994 4.21467 28.2424 3.729 28.7284C3.243 29.2141 3 29.8044 3 30.4994C3 31.1944 3.243 31.7847 3.729 32.2704C4.21467 32.7564 4.805 32.9994 5.5 32.9994ZM5.5 35.9994C3.97433 35.9994 2.67633 35.4641 1.606 34.3934C0.535333 33.3231 0 32.0251 0 30.4994C0 28.9737 0.535333 27.6757 1.606 26.6054C2.67633 25.5347 3.97433 24.9994 5.5 24.9994C6.70767 24.9994 7.79417 25.3539 8.7595 26.0629C9.72483 26.7719 10.3832 27.7097 10.7345 28.8764C12.1628 28.6251 13.3462 27.9469 14.2845 26.8419C15.2232 25.7366 15.6925 24.4557 15.6925 22.9994V15.2879C15.6925 12.6622 16.6193 10.4226 18.473 8.56889C20.327 6.71489 22.5668 5.78789 25.1925 5.78789H28.223L25.627 3.19189C25.3297 2.89422 25.1828 2.54089 25.1865 2.13189C25.1905 1.72322 25.3475 1.36372 25.6575 1.05339C25.9678 0.743057 26.3243 0.587891 26.727 0.587891C27.1293 0.587891 27.4857 0.743057 27.796 1.05339L32.7345 6.02239C33.0962 6.38406 33.277 6.80589 33.277 7.28789C33.277 7.76989 33.0962 8.19172 32.7345 8.55339L27.746 13.5419C27.469 13.8186 27.1293 13.9621 26.727 13.9724C26.3243 13.9827 25.9678 13.8392 25.6575 13.5419C25.3475 13.2649 25.1957 12.9167 25.202 12.4974C25.2083 12.0784 25.35 11.7137 25.627 11.4034L28.204 8.78789H25.1925C23.3848 8.78789 21.8495 9.41922 20.5865 10.6819C19.3238 11.9449 18.6925 13.4802 18.6925 15.2879V22.9994C18.6925 25.2661 17.938 27.2411 16.429 28.9244C14.92 30.6077 13.0423 31.6019 10.796 31.9069C10.486 33.1146 9.838 34.0986 8.852 34.8589C7.866 35.6192 6.74867 35.9994 5.5 35.9994ZM5.2885 9.42639L3.123 11.5724C2.846 11.8494 2.50317 11.9847 2.0945 11.9784C1.6855 11.9717 1.33217 11.8197 1.0345 11.5224C0.757833 11.2454 0.6195 10.9006 0.6195 10.4879C0.6195 10.0752 0.757833 9.73039 1.0345 9.45339L3.15 7.28789L1.0345 5.17239C0.757833 4.89539 0.6195 4.55256 0.6195 4.14389C0.6195 3.73489 0.757833 3.38156 1.0345 3.08389C1.33217 2.77389 1.68867 2.62206 2.104 2.62839C2.51933 2.63472 2.87567 2.78656 3.173 3.08389L5.2885 5.19939L7.3845 3.05339C7.6615 2.75606 8.00767 2.60739 8.423 2.60739C8.83833 2.60739 9.19483 2.75606 9.4925 3.05339C9.8025 3.36372 9.9575 3.72006 9.9575 4.12239C9.9575 4.52506 9.8025 4.88156 9.4925 5.19189L7.377 7.28789L9.523 9.43389C9.82033 9.73156 9.96717 10.0829 9.9635 10.4879C9.9595 10.8929 9.8025 11.2442 9.4925 11.5419C9.19483 11.8186 8.8435 11.9589 8.4385 11.9629C8.0335 11.9666 7.68217 11.8197 7.3845 11.5224L5.2885 9.42639Z" fill="url(#paint0_linear_1_5995)"/>
<defs>
<linearGradient id="paint0_linear_1_5995" x1="16.6933" y1="0.587891" x2="-5.23584" y2="32.5001" gradientUnits="userSpaceOnUse">
<stop stop-color="#01E1ED"/>
<stop offset="1" stop-color="#00B6C0"/>
</linearGradient>
</defs>
</svg>
