<svg width="42" height="40" viewBox="0 0 42 40" fill="none" xmlns="http://www.w3.org/2000/svg">
<path d="M18.9001 22.1319L15.6541 18.9164C15.3771 18.6394 15.0341 18.4977 14.6251 18.4914C14.2161 18.4851 13.8564 18.6369 13.5461 18.9469C13.2564 19.2369 13.1116 19.5882 13.1116 20.0009C13.1116 20.4136 13.2564 20.7649 13.5461 21.0549L17.6346 25.1434C17.9962 25.5047 18.4181 25.6854 18.9001 25.6854C19.3821 25.6854 19.8039 25.5047 20.1656 25.1434L28.4541 16.8549C28.7514 16.5572 28.8981 16.2091 28.8941 15.8104C28.8904 15.4117 28.7437 15.0572 28.4541 14.7469C28.1437 14.4369 27.7872 14.2767 27.3846 14.2664C26.9822 14.2561 26.6259 14.4061 26.3156 14.7164L18.9001 22.1319ZM13.8196 38.3664L11.0541 33.7164L5.82306 32.5929C5.37439 32.5059 5.01606 32.2701 4.74806 31.8854C4.48006 31.5007 4.37306 31.0841 4.42706 30.6354L4.93856 25.2549L1.38106 21.1854C1.07339 20.8574 0.919556 20.4626 0.919556 20.0009C0.919556 19.5392 1.07339 19.1444 1.38106 18.8164L4.93856 14.7469L4.42706 9.36641C4.37306 8.91775 4.48006 8.50108 4.74806 8.11641C5.01606 7.73175 5.37439 7.49591 5.82306 7.40891L11.0541 6.28541L13.8196 1.63541C14.0606 1.24074 14.3887 0.971577 14.8041 0.82791C15.2194 0.684244 15.6412 0.706077 16.0696 0.89341L21.0001 2.97791L25.9306 0.89341C26.3589 0.706077 26.7807 0.684244 27.1961 0.82791C27.6114 0.971577 27.9396 1.24074 28.1806 1.63541L30.9461 6.28541L36.1771 7.40891C36.6257 7.49591 36.9841 7.73175 37.2521 8.11641C37.5201 8.50108 37.6271 8.91775 37.5731 9.36641L37.0616 14.7469L40.6191 18.8164C40.9267 19.1444 41.0806 19.5392 41.0806 20.0009C41.0806 20.4626 40.9267 20.8574 40.6191 21.1854L37.0616 25.2549L37.5731 30.6354C37.6271 31.0841 37.5201 31.5007 37.2521 31.8854C36.9841 32.2701 36.6257 32.5059 36.1771 32.5929L30.9461 33.7164L28.1806 38.3664C27.9396 38.7611 27.6114 39.0302 27.1961 39.1739C26.7807 39.3176 26.3589 39.2957 25.9306 39.1084L21.0001 37.0239L16.0696 39.1084C15.6412 39.2957 15.2194 39.3176 14.8041 39.1739C14.3887 39.0302 14.0606 38.7611 13.8196 38.3664Z" fill="url(#paint0_linear_1_6067)"/>
<defs>
<linearGradient id="paint0_linear_1_6067" x1="41.0806" y1="-1.40635" x2="2.66626" y2="40.8551" gradientUnits="userSpaceOnUse">
<stop stop-color="#F468AF"/>
<stop offset="1" stop-color="#D25F9A"/>
</linearGradient>
</defs>
</svg>
