<svg width="48" height="48" viewBox="0 0 48 48" fill="none" xmlns="http://www.w3.org/2000/svg">
<mask id="mask0_980_52709" style="mask-type:alpha" maskUnits="userSpaceOnUse" x="0" y="0" width="48" height="48">
<rect width="48" height="48" fill="#D9D9D9"/>
</mask>
<g mask="url(#mask0_980_52709)">
<path d="M25.1345 35.496V43.8655C25.1345 44.1962 25.0282 44.4678 24.8155 44.6805C24.6025 44.8935 24.3307 45 24 45C23.6693 45 23.3975 44.8935 23.1845 44.6805C22.9718 44.4678 22.8655 44.1962 22.8655 43.8655V35.496L20.6845 37.677C20.4615 37.9 20.1948 38.0147 19.8845 38.021C19.5745 38.0273 19.3078 37.919 19.0845 37.696C18.8488 37.4603 18.731 37.1853 18.731 36.871C18.731 36.557 18.8488 36.2885 19.0845 36.0655L22.9885 32.1425C23.2755 31.8552 23.6127 31.7115 24 31.7115C24.3873 31.7115 24.7245 31.8552 25.0115 32.1425L28.9655 36.096C29.1885 36.319 29.3 36.5825 29.3 36.8865C29.3 37.1905 29.1885 37.4603 28.9655 37.696C28.7295 37.932 28.4597 38.0417 28.156 38.025C27.852 38.0083 27.5885 37.8923 27.3655 37.677L25.1345 35.496ZM12.504 25.1345H4.1345C3.80383 25.1345 3.53217 25.0282 3.3195 24.8155C3.1065 24.6025 3 24.3307 3 24C3 23.6693 3.1065 23.3975 3.3195 23.1845C3.53217 22.9718 3.80383 22.8655 4.1345 22.8655H12.504L10.323 20.6345C10.1207 20.4115 10.0112 20.148 9.9945 19.844C9.97783 19.5403 10.081 19.2705 10.304 19.0345C10.5397 18.8115 10.8063 18.7 11.104 18.7C11.4013 18.7 11.668 18.8115 11.904 19.0345L15.8575 22.9885C16.1448 23.2755 16.2885 23.6127 16.2885 24C16.2885 24.3873 16.1448 24.7245 15.8575 25.0115L11.904 28.946C11.681 29.182 11.4175 29.2948 11.1135 29.2845C10.8095 29.2742 10.5397 29.1512 10.304 28.9155C10.068 28.6795 9.95317 28.4128 9.9595 28.1155C9.96617 27.8178 10.0873 27.5512 10.323 27.3155L12.504 25.1345ZM35.527 25.1345L37.727 27.3155C37.95 27.5385 38.0647 27.8052 38.071 28.1155C38.0773 28.4255 37.9627 28.6922 37.727 28.9155C37.491 29.1512 37.2192 29.269 36.9115 29.269C36.6038 29.269 36.332 29.1512 36.096 28.9155L32.1925 25.0115C31.8925 24.7245 31.7425 24.3873 31.7425 24C31.7425 23.6127 31.8925 23.2755 32.1925 22.9885L36.127 19.0345C36.35 18.8115 36.6135 18.7 36.9175 18.7C37.2212 18.7 37.491 18.8115 37.727 19.0345C37.9627 19.2705 38.0722 19.5403 38.0555 19.844C38.0388 20.148 37.9293 20.4115 37.727 20.6345L35.527 22.8655H43.8655C44.1962 22.8655 44.4678 22.9718 44.6805 23.1845C44.8935 23.3975 45 23.6693 45 24C45 24.3307 44.8935 24.6025 44.6805 24.8155C44.4678 25.0282 44.1962 25.1345 43.8655 25.1345H35.527ZM24 26.1155C23.4153 26.1155 22.9167 25.909 22.504 25.496C22.091 25.0833 21.8845 24.5847 21.8845 24C21.8845 23.4153 22.091 22.9032 22.504 22.4635C22.9167 22.0238 23.4153 21.804 24 21.804C24.618 21.804 25.1385 22.0155 25.5615 22.4385C25.9845 22.8615 26.196 23.382 26.196 24C26.196 24.5847 25.9762 25.0833 25.5365 25.496C25.0968 25.909 24.5847 26.1155 24 26.1155ZM22.8655 12.473V4.1345C22.8655 3.80383 22.9718 3.53217 23.1845 3.3195C23.3975 3.1065 23.6693 3 24 3C24.3307 3 24.6025 3.1065 24.8155 3.3195C25.0282 3.53217 25.1345 3.80383 25.1345 4.1345V12.473L27.3655 10.273C27.5885 10.0707 27.852 9.96117 28.156 9.9445C28.4597 9.92783 28.7295 10.0373 28.9655 10.273C29.1885 10.509 29.3 10.7757 29.3 11.073C29.3 11.3707 29.1885 11.6373 28.9655 11.873L25.0115 15.8075C24.7245 16.1075 24.3873 16.2575 24 16.2575C23.6127 16.2575 23.2755 16.1075 22.9885 15.8075L19.054 11.873C18.818 11.65 18.7052 11.3865 18.7155 11.0825C18.7258 10.7788 18.8488 10.509 19.0845 10.273C19.3205 10.0373 19.5872 9.9195 19.8845 9.9195C20.1822 9.9195 20.4488 10.0373 20.6845 10.273L22.8655 12.473Z" fill="white"/>
</g>
</svg>
