<svg width="48" height="48" viewBox="0 0 48 48" fill="none" xmlns="http://www.w3.org/2000/svg">
<mask id="mask0_980_52714" style="mask-type:alpha" maskUnits="userSpaceOnUse" x="0" y="0" width="48" height="48">
<rect width="48" height="48" fill="#D9D9D9"/>
</mask>
<g mask="url(#mask0_980_52714)">
<path d="M41 34.3059L26.05 22.5944C25.396 22.0867 24.6665 21.8881 23.8615 21.9984C23.0565 22.1087 22.4103 22.5011 21.923 23.1754L16.5575 30.5794C16.3038 30.9204 15.975 31.1191 15.571 31.1754C15.1673 31.2317 14.8117 31.1266 14.504 30.8599L7 24.8524V18.8834C7 18.2754 7.26217 17.8414 7.7865 17.5814C8.31083 17.3211 8.81667 17.3677 9.304 17.7214L14.231 21.4214L22.4195 9.9449C22.8938 9.27024 23.5432 8.87274 24.3675 8.7524C25.1918 8.63174 25.9245 8.83557 26.5655 9.3639L33.654 14.9984H38.1155C38.9102 14.9984 39.5897 15.2804 40.154 15.8444C40.718 16.4087 41 17.0882 41 17.8829V34.3059ZM7 38.9984V27.7409L13.7885 33.1909C14.4295 33.6986 15.159 33.8972 15.977 33.7869C16.795 33.6766 17.4475 33.2842 17.9345 32.6099L23.281 25.2254C23.5347 24.8714 23.8602 24.6726 24.2575 24.6289C24.6552 24.5856 25.0142 24.6907 25.3345 24.9444L41 37.1639V38.9984H7Z" fill="white"/>
</g>
</svg>
