<svg width="48" height="48" viewBox="0 0 48 48" fill="none" xmlns="http://www.w3.org/2000/svg">
<mask id="mask0_1011_4736" style="mask-type:alpha" maskUnits="userSpaceOnUse" x="0" y="0" width="48" height="48">
<rect width="48" height="48" fill="#D9D9D9"/>
</mask>
<g mask="url(#mask0_1011_4736)">
<path d="M18.1001 23.0443L22.6771 18.4673L18.5231 14.3133L16.9231 15.9328C16.7001 16.1558 16.4366 16.2673 16.1326 16.2673C15.829 16.2673 15.5591 16.1558 15.3231 15.9328C15.0875 15.6968 14.9696 15.4301 14.9696 15.1328C14.9696 14.8351 15.0875 14.5684 15.3231 14.3328L16.9426 12.7328L12.7691 8.59028L8.19263 13.1673L18.1001 23.0443ZM34.7846 39.7903L39.3616 35.1828L35.1886 31.0093L33.5886 32.6288C33.3656 32.8518 33.099 32.9633 32.7886 32.9633C32.4783 32.9633 32.2116 32.8518 31.9886 32.6288C31.7526 32.3928 31.6346 32.1261 31.6346 31.8288C31.6346 31.5315 31.7526 31.2648 31.9886 31.0288L33.5886 29.4288L29.5041 25.3248L24.9271 29.9018L34.7846 39.7903ZM30.5501 13.8288L34.1846 17.4828L38.7306 12.9363L35.0961 9.30178L30.5501 13.8288ZM8.44263 41.0018C8.02196 41.0018 7.67646 40.8665 7.40613 40.5958C7.13546 40.3255 7.00013 39.9799 7.00013 39.5593V34.6863C7.00013 34.4863 7.03346 34.3061 7.10013 34.1458C7.1668 33.9858 7.27713 33.8288 7.43113 33.6748L16.4696 24.6363L6.33113 14.4978C5.94113 14.1081 5.7513 13.6646 5.76163 13.1673C5.77196 12.6699 5.9618 12.2263 6.33113 11.8363L11.3886 6.69778C11.7783 6.30811 12.2218 6.11328 12.7191 6.11328C13.2168 6.11328 13.6605 6.30811 14.0501 6.69778L24.2886 16.8863L33.5156 7.65978C33.7513 7.42378 34.0076 7.25511 34.2846 7.15378C34.5616 7.05245 34.845 7.00178 35.1346 7.00178C35.4116 7.00178 35.6886 7.05245 35.9656 7.15378C36.2423 7.25511 36.4986 7.42378 36.7346 7.65978L40.3421 11.3248C40.5781 11.5608 40.7436 11.8173 40.8386 12.0943C40.9333 12.3709 40.9806 12.6478 40.9806 12.9248C40.9806 13.2144 40.9333 13.4946 40.8386 13.7653C40.7436 14.0356 40.5781 14.2888 40.3421 14.5248L31.1541 23.7133L41.3041 33.9018C41.6938 34.2915 41.8886 34.7383 41.8886 35.2423C41.8886 35.7459 41.6938 36.1863 41.3041 36.5633L36.2156 41.6403C35.8256 42.03 35.3788 42.2248 34.8751 42.2248C34.3711 42.2248 33.9308 42.03 33.5541 41.6403L23.3961 31.5018L14.3271 40.5708C14.1731 40.7248 14.0161 40.8351 13.8561 40.9018C13.6958 40.9684 13.5156 41.0018 13.3156 41.0018H8.44263Z" fill="white"/>
</g>
</svg>
