<svg width="48" height="48" viewBox="0 0 48 48" fill="none" xmlns="http://www.w3.org/2000/svg">
<mask id="mask0_980_52694" style="mask-type:alpha" maskUnits="userSpaceOnUse" x="0" y="0" width="48" height="48">
<rect width="48" height="48" fill="#D9D9D9"/>
</mask>
<g mask="url(#mask0_980_52694)">
<path d="M33.7655 35.2496V38.7391C33.7655 38.9691 33.8453 39.1534 34.005 39.2921C34.165 39.4304 34.3517 39.4996 34.565 39.4996C34.7627 39.4996 34.9313 39.4197 35.071 39.2601C35.2107 39.1001 35.2805 38.9192 35.2805 38.7176V35.2496H38.7805C39.0012 35.2496 39.1813 35.1689 39.321 35.0076C39.4607 34.8466 39.5305 34.6639 39.5305 34.4596C39.5305 34.2556 39.4607 34.0836 39.321 33.9436C39.1813 33.8039 39.0012 33.7341 38.7805 33.7341H35.2805V30.2446C35.2805 30.0146 35.2107 29.8304 35.071 29.6921C34.9313 29.5534 34.7593 29.4841 34.555 29.4841C34.351 29.4841 34.1683 29.5534 34.007 29.6921C33.846 29.8304 33.7655 30.0146 33.7655 30.2446V33.7341H30.283C30.0637 33.7341 29.8808 33.8034 29.7345 33.9421C29.5885 34.0804 29.5155 34.2562 29.5155 34.4696C29.5155 34.6672 29.5947 34.8466 29.753 35.0076C29.9117 35.1689 30.0965 35.2496 30.3075 35.2496H33.7655ZM34.461 42.9996C32.102 42.9996 30.0892 42.1611 28.4225 40.4841C26.7562 38.8071 25.923 36.8046 25.923 34.4766C25.923 32.0886 26.756 30.0576 28.422 28.3836C30.0883 26.7096 32.1097 25.8726 34.486 25.8726C36.8287 25.8726 38.8385 26.7096 40.5155 28.3836C42.1922 30.0576 43.0305 32.0886 43.0305 34.4766C43.0305 36.8046 42.1922 38.8071 40.5155 40.4841C38.8385 42.1611 36.8203 42.9996 34.461 42.9996ZM9 21.9721V12.6841C9 12.0641 9.17417 11.5059 9.5225 11.0096C9.8705 10.5136 10.3207 10.1539 10.873 9.93056L22.9885 5.42656C23.3422 5.29323 23.6793 5.22656 24 5.22656C24.3207 5.22656 24.6578 5.29323 25.0115 5.42656L37.127 9.93056C37.6793 10.1539 38.1295 10.5136 38.4775 11.0096C38.8258 11.5059 39 12.0641 39 12.6841V21.7806C39 22.2269 38.8267 22.5769 38.48 22.8306C38.1333 23.0842 37.7553 23.1406 37.346 22.9996C36.8947 22.8842 36.4217 22.7894 35.927 22.7151C35.432 22.6407 34.9457 22.6036 34.468 22.6036C31.198 22.6036 28.4115 23.7609 26.1085 26.0756C23.8055 28.3899 22.654 31.1902 22.654 34.4766C22.654 35.6046 22.8342 36.7417 23.1945 37.8881C23.5545 39.0341 24.0872 40.1147 24.7925 41.1301C25.0872 41.5634 25.1032 41.9872 24.8405 42.4016C24.5775 42.8156 24.2127 42.9496 23.746 42.8036C21.6257 42.1496 19.7462 41.3007 18.1075 40.2571C16.4692 39.2134 14.8603 37.6006 13.281 35.4186C11.9323 33.5162 10.8817 31.4286 10.129 29.1556C9.37633 26.8822 9 24.4877 9 21.9721Z" fill="white"/>
</g>
</svg>
