<svg width="48" height="48" viewBox="0 0 48 48" fill="none" xmlns="http://www.w3.org/2000/svg">
<mask id="mask0_980_52679" style="mask-type:alpha" maskUnits="userSpaceOnUse" x="0" y="0" width="48" height="48">
<rect width="48" height="48" fill="#D9D9D9"/>
</mask>
<g mask="url(#mask0_980_52679)">
<path d="M6.7115 39C6.23617 39 5.83217 38.8332 5.4995 38.4995C5.1665 38.1658 5 37.7607 5 37.284C5 36.8073 5.1665 36.4068 5.4995 36.0825C5.83217 35.7582 6.23617 35.596 6.7115 35.596H9V11.8845C9 11.1012 9.285 10.4247 9.855 9.855C10.4247 9.285 11.1012 9 11.8845 9H39.8655C40.1868 9 40.4562 9.10967 40.6735 9.329C40.8912 9.54833 41 9.82017 41 10.1445C41 10.4688 40.8912 10.7373 40.6735 10.95C40.4562 11.163 40.1868 11.2695 39.8655 11.2695H11.8845C11.7052 11.2695 11.5578 11.3272 11.4425 11.4425C11.3272 11.5578 11.2695 11.7052 11.2695 11.8845V35.596H21.0575C21.5278 35.596 21.9275 35.7618 22.2565 36.0935C22.5855 36.4248 22.75 36.8272 22.75 37.3005C22.75 37.7795 22.5855 38.1825 22.2565 38.5095C21.9275 38.8365 21.5278 39 21.0575 39H6.7115ZM28.231 39C27.8223 39 27.4797 38.8618 27.203 38.5855C26.9267 38.3088 26.7885 37.9662 26.7885 37.5575V16.3655C26.7885 15.9568 26.9267 15.6143 27.203 15.338C27.4797 15.0613 27.8223 14.923 28.231 14.923H41.577C41.9857 14.923 42.3282 15.0613 42.6045 15.338C42.8808 15.6143 43.019 15.9568 43.019 16.3655V37.5575C43.019 37.9662 42.8808 38.3088 42.6045 38.5855C42.3282 38.8618 41.9857 39 41.577 39H28.231Z" fill="white"/>
</g>
</svg>
